<?xml version="1.0" encoding="UTF-8"?>
<svg id="Calque_2" data-name="Calque 2" xmlns="http://www.w3.org/2000/svg" viewBox="0 0 527.89 740.82">
  <defs>
    <style>
      .cls-1 {
        fill: #999;
      }

      .cls-1, .cls-2, .cls-3, .cls-4, .cls-5, .cls-6, .cls-7, .cls-8, .cls-9, .cls-10 {
        stroke-width: 0px;
      }

      .cls-11 {
        stroke: #000;
      }

      .cls-11, .cls-12, .cls-13 {
        fill: none;
        stroke-miterlimit: 10;
      }

      .cls-2 {
        fill: #646463;
      }

      .cls-12 {
        stroke: #fff;
      }

      .cls-3 {
        fill: #a87b4a;
      }

      .cls-4 {
        fill: #504f4f;
      }

      .cls-5 {
        fill: #f0b27d;
      }

      .cls-13 {
        stroke: #1d1d1b;
      }

      .cls-7 {
        fill: #777;
      }

      .cls-8 {
        fill: #fff;
      }

      .cls-9 {
        fill: #e41c19;
      }

      .cls-10 {
        fill: #843d13;
      }
    </style>
  </defs>
  <g id="Calque_1-2" data-name="Calque 1">
    <g>
      <g>
        <path class="cls-10" d="M527.35,271.12c-.53,8.93-42.05,18.92-42.05,18.92-3.67,17.34-42.93,26.21-43.41,25.48l-1.09.12c-5.22-47.38-10.63-93.91-12.47-100.23-3.89-13.4-22.91-16.82-22.91-16.82-7.36-8.93-26.8-9.46-26.8-9.46,0,0-4.73-14.71,4.2-16.29,8.94-1.58,33.11-12.61,31.01-18.39,0,0,37.84,10.51,42.04-11.57,4.21-22.07-3.15-29.95-25.22-30.48,0,0-22.08-7.36-16.29-34.68,0,0-67.8,1.57-92.5-54.14,0,0-45.2,4.21-29.43,82.52,0,0-10.92,20.18-9.44,39.41h-.02c-31.01-21.55-3.68-46.77-3.68-46.77C242.5-25.29,358.65,7.29,358.65,7.29c167.65-43.09,103.53,132.97,103.53,132.97,0,0,72,8.93,43.62,72,0,0,39.94,26.8-.52,52.03-40.47,25.22,22.07,6.83,22.07,6.83Z"/>
        <path class="cls-9" d="M368.12,491.55c-12.18.44-24.19.18-35.71-.54-19.6-1.23-37.79-3.81-53.01-6.6h0c-26.71-4.9-44.26-10.43-44.26-10.43,0,0,41.52-132.44,56.24-152.94,0,0,53.6,12.09,114.04,5.79,0,0,1.97,2.91,5.26,7.87l2.62,88.04s3.16,1.01,7.71,2.08h0v11.67c-15.41.35-11.38,5.69-15.59,7.01-4.2,1.31,3.15,25.49,3.15,25.49,18.66,14.71,39.68,1.57,41.26-1.32s-.53-21.02-2.36-26.01c-1.56-4.24-6.41-4.75-7.84-4.81-.23-2.75.2-9.56.2-9.56,5.46-.1,10.19-1.28,12.37-4.55,0,0-1.1-10.7-2.84-27.24,18.33,30.47,34.22,60.38,28.59,64.29-13.38,9.31-28.17,16.16-43.65,21.07-21.37,6.79-44.06,9.88-66.18,10.69Z"/>
        <path class="cls-9" d="M447.27,683.84s19.81,33.74,18.06,40.82c-11.3,13.93-21.54,7.1-30.04,6.84-8.5-.27-30.15-28.12-30.15-28.12.06-4.83,1.59-11.45,6.88-19.54h.01c2.97,2.84,6.21,4.42,6.21,4.42l.06.21c-.2.06-.36.11-.49.16-2.03.82-6.04,4.73-.32,6.91.03-.05,1.9.13,4.66.27-1.51.67-2.38,1.46-2.26,2.33,0,0-5.73,4.95,1.02,6.74.96.26,2.2.42,3.63.5-1.22.75-1.56,1.52-.56,2.17-3.34,4.39,2.92,4.23,2.92,4.23.71,2.58,31.77.17,22.69-8.3-.49-.46-1.19-.82-2.04-1.09,1-.41,1.62-.85,1.72-1.28.62-2.68.2-5.12-3.34-7.09-.5-.28-1.33-.49-2.39-.63.32-.21.61-.44.86-.68,4.41-4.24,2.51-5.81.09-6.34l.87-.07c.75-.75,1.38-1.58,1.9-2.46h.01Z"/>
        <path class="cls-5" d="M299.8,66.14c.46-.2,16.36-7.32,21.53-6.29,0,0,6.31-3.68,0-4.73-6.21-1.03-21.09,10.67-21.53,11.02ZM430.65,112.4c22.07.53,29.43,8.41,25.22,30.48-4.2,22.08-42.04,11.57-42.04,11.57,2.1,5.78-22.07,16.81-31.01,18.39-8.93,1.58-4.2,16.29-4.2,16.29-5.81,2.8-11.79,3.3-16.84,2.93-7.28-.54-12.59-2.93-12.59-2.93,6.67-3.59-8.41-9.46-8.41-9.46-43.78,1.54-56.38-15.88-57.79-34.16-1.48-19.23,9.44-39.41,9.44-39.41-15.77-78.31,29.43-82.52,29.43-82.52,24.7,55.71,92.5,54.14,92.5,54.14-5.79,27.32,16.29,34.68,16.29,34.68ZM389.85,102.92c0-4.61-3.73-8.34-8.34-8.34s-8.34,3.73-8.34,8.34,3.73,8.34,8.34,8.34,8.34-3.73,8.34-8.34ZM324.14,99.66c0-4.6-3.74-8.34-8.35-8.34s-8.34,3.74-8.34,8.34,3.74,8.35,8.34,8.35,8.35-3.74,8.35-8.35Z"/>
        <path class="cls-8" d="M449.59,703.48c9.08,8.47-21.98,10.88-22.69,8.3,0,0-6.26.16-2.92-4.23-1-.65-.66-1.42.56-2.17,7.04.39,18.65-1.15,23.01-2.99.85.27,1.55.63,2.04,1.09Z"/>
        <path class="cls-5" d="M439.63,436.85c1.43.06,6.28.57,7.84,4.81,1.83,4.99,3.94,23.12,2.36,26.01s-22.6,16.03-41.26,1.32c0,0-7.35-24.18-3.15-25.49,4.21-1.32.18-6.66,15.59-7.01v-11.66c5.33,1.24,12.55,2.57,18.82,2.46,0,0-.43,6.81-.2,9.56Z"/>
        <path class="cls-9" d="M435.29,731.5c8.5.26,18.74,7.09,30.04-6.84-5.55,22.5-29.22,15.83-37,9.99l-21.18-22.07s-2.1-3.25-2.01-9.2c0,0,21.65,27.85,30.15,28.12Z"/>
        <path class="cls-9" d="M449.36,395.5c1.74,16.54,2.84,27.24,2.84,27.24-2.18,3.27-6.91,4.45-12.37,4.55-6.27.11-13.49-1.22-18.82-2.46h0c-4.55-1.08-7.71-2.09-7.71-2.09l-2.62-88.04c8.09,12.16,24.15,36.65,38.68,60.8Z"/>
        <path class="cls-8" d="M445.93,694.02c3.54,1.97,3.96,4.41,3.34,7.09-.1.43-.72.87-1.72,1.28-5.87-1.86-19.04.52-23.01,2.99-1.43-.08-2.67-.24-3.63-.5-6.75-1.79-1.02-6.74-1.02-6.74-.12-.87.75-1.66,2.26-2.33,6.21.33,16.94.49,21.39-2.42,1.06.14,1.89.35,2.39.63Z"/>
        <path class="cls-9" d="M408.28,669.22c.95-2.07,2.55-4.26,5.02-6.57,11.89-11.11,24.61-6.02,30.62-2.44,2.24,1.32,3.55,2.44,3.55,2.44,0,0,4.73,12.9-.21,21.19-.52.88-1.15,1.71-1.9,2.46l-.87.07c-1.31-.28-2.79-.25-3.49-.18-.32.03-.64.05-.97.05-3.13-.04-18.08,1.25-21.73,2.23l-.06-.21s-3.24-1.58-6.21-4.43c-3.5-3.31-6.63-8.36-3.75-14.61Z"/>
        <path class="cls-8" d="M441.89,603.84l3.47,56.15-1.44.22c-6.01-3.58-18.73-8.67-30.62,2.44-2.47,2.31-4.07,4.5-5.02,6.57l-13.7-60.64s28.08,5.3,47.31-4.74Z"/>
        <path class="cls-8" d="M444.49,686.37c2.42.53,4.32,2.1-.09,6.34-.25.24-.54.47-.86.68-5.35-.71-16.58.29-21.39,2.42-2.76-.14-4.63-.32-4.66-.27-5.72-2.18-1.71-6.09.32-6.91.13-.05.29-.1.49-.16,3.65-.98,18.6-2.27,21.73-2.23.33,0,.65-.02.97-.05.7-.07,2.18-.1,3.49.18Z"/>
        <path class="cls-9" d="M409.97,310.78l-.9-30.54-.21-6.89c-33.62,7.96-115,.12-116.23,0,1.04-2.19,2.2-4.51,3.48-6.96,0,0-2.61-2.05-4.73-5.96h-.01c-4.74-8.72-7.13-26.69,26.81-51.96.34.56,14.09,23.04,27.07,7.73,12.18-14.38,16-22.75,16.49-23.9,0-.01.01-.01.02-.01s.03.01.03.02c-.22,2.16-2.47,27.42,8.14,29.22,29.42,4.99,35.49-22.94,35.49-22.94,0,0,19.02,3.42,22.91,16.82,1.84,6.32,7.25,52.85,12.47,100.23,3.23,29.44,6.39,59.21,8.56,79.86-14.53-24.15-30.59-48.64-38.68-60.8l-.71-23.92Z"/>
        <path class="cls-5" d="M434.3,480.86l7.59,122.98c-19.23,10.04-47.31,4.74-47.31,4.74l-26.46-117.03c22.12-.81,44.81-3.9,66.18-10.69Z"/>
        <path class="cls-9" d="M405.42,311.99c-21.84,2.77-111.41-1.46-111.41-1.46,0,0-1.12.29-2.63.24-4.73-.14-13.23-3.66-1.86-30.53,1.24.18,85.1,11.93,119.55,0l.9,30.54c-.54.51-2.13.9-4.55,1.21Z"/>
        <path class="cls-9" d="M408.86,273.35l.21,6.89c-34.45,11.93-118.31.18-119.55,0,.9-2.14,1.93-4.43,3.11-6.89,1.23.12,82.61,7.96,116.23,0Z"/>
        <path class="cls-8" d="M405.42,311.99v14.84c-60.44,6.3-114.04-5.79-114.04-5.79v-10.26h0c1.51.04,2.63-.25,2.63-.25,0,0,89.57,4.23,111.41,1.46Z"/>
        <path class="cls-8" d="M378.62,189.13s19.44.53,26.8,9.46c0,0-6.07,27.93-35.49,22.94-10.61-1.8-8.36-27.06-8.14-29.22,0-.01-.02-.02-.03-.02l.02-.23c5.05.37,11.03-.13,16.84-2.93Z"/>
        <circle class="cls-6" cx="381.51" cy="102.92" r="8.34"/>
        <path class="cls-8" d="M361.78,192.06l-.02.23s-.02,0-.02.01c-.49,1.15-4.31,9.52-16.49,23.9-12.98,15.31-26.73-7.17-27.07-7.73h0c8.11-6.04,18.29-12.5,31.01-19.34,0,0,5.31,2.39,12.59,2.93Z"/>
        <path class="cls-5" d="M332.41,491.01l-.04.75-22.07,122.54c-17.88,9.46-39.6-5.72-39.6-5.72l2.67-38.13,6.03-86.04c15.22,2.79,33.41,5.37,53.01,6.6Z"/>
        <path class="cls-6" d="M315.79,91.32c4.61,0,8.35,3.74,8.35,8.34s-3.74,8.35-8.35,8.35-8.34-3.74-8.34-8.35,3.74-8.34,8.34-8.34Z"/>
        <path class="cls-10" d="M321.33,55.12c6.31,1.05,0,4.73,0,4.73-5.17-1.03-21.07,6.09-21.53,6.29.44-.35,15.32-12.05,21.53-11.02Z"/>
        <path class="cls-9" d="M318.18,208.46h0c-33.94,25.28-31.55,43.25-26.81,51.97l-65.13,26.13c3.72-11.36-7.67-16.11-7.67-16.11l99.61-61.99Z"/>
        <path class="cls-8" d="M269.78,621.63l.92-13.05s21.72,15.18,39.6,5.72l-9.35,51.9-1.16,6.44c-15.7,1.12-27.58-3.61-33.13-6.43h0s.43-6.16.43-6.16l.7-10.03,1.99-28.39Z"/>
        <path class="cls-9" d="M263.2,680.99c-16.61-22.64,3.46-20.97,3.46-20.97l.43.03-.43,6.15h0c5.55,2.83,17.43,7.56,33.13,6.44l1.16-6.44c7.64-.3,5.14,3.28,5.14,3.28,0,0,2.53,5.97,3.16,17.87.33,6.36.27,15.5.18,21.29-23.28,19.04-91.43,10.65-92.52,10.51.11-3.69,1.04-8.8,4.74-13.14,4.03-4.76,11.37-8.6,24.53-8.64-11.47-21.38,5.86-19.39,17.02-16.38Z"/>
        <path class="cls-9" d="M309.43,708.64c-.05,3.3-.11,5.51-.11,5.51-15.9,14.64-55.59,14.87-77.3,12.79-8.59-.82-14.36-2-14.74-2.8,0,0-.45-2.04-.37-4.99,1.09.14,69.24,8.53,92.52-10.51Z"/>
        <path class="cls-2" d="M221.65,706.01c-3.7,4.34-4.63,9.45-4.74,13.14-.08,2.95.37,4.99.37,4.99.38.8,6.15,1.98,14.74,2.8l-.03.35c-7.73,2.46-26.98,1.63-46.43-18.21-7.12-7.26-14.26-17.06-20.87-30.18-1.15-2.27-2.28-4.64-3.38-7.11-1.17-2.58-2.3-5.28-3.42-8.09-1.87-4.71-3.38-9.27-4.57-13.67h0c-5.94-21.98-3.98-40.06.53-53.86.05-.13.09-.27.13-.42,6.8-20.48,19.15-31.38,19.15-31.38l16.55-7.05,16.68-7.09,4.18-1.78,6.36-2.71s33.58-8.15,56.13,24.69l.34.02-2.67,38.13-.92,13.05-15.45-14.72-20.5-1.28-11.04-9.46-13.4,18.13,12.26,11.93h20.76l25.38,23.79-.7,10.03-.43-.03s-20.07-1.67-3.46,20.97c-11.16-3.01-28.49-5-17.02,16.38-13.16.04-20.5,3.88-24.53,8.64Z"/>
        <polygon class="cls-1" points="254.33 606.91 269.78 621.63 267.79 650.02 242.41 626.23 221.65 626.23 209.39 614.3 222.79 596.17 233.83 605.63 254.33 606.91"/>
        <path class="cls-4" d="M245.66,385.16c3.64,46.02-16.29,55.75-31.54,56.64-3.75.23-7.22-.08-9.98-.52-3.83-.61-6.31-1.46-6.31-1.46-12.61,53.08-57.81,10.51-57.81,10.51-14.81-.75-20.93-9.33-22.67-20.06-.57-3.48-.67-7.19-.45-10.94.95-17.01,8.4-34.69,8.4-34.69-15.24-39.95,29.44-53.61,29.44-53.61,0-31.01,26.27-38.89,26.27-38.89,0,0,18.34,2.21,13.14-4.47-.5-.63-1.44-.95-2.63-1.06v-.05s4.47-3.36,0-5.72c-.55-.29-1.17-.49-1.84-.61,0,0,4.5.34,3.83-3.2l6.95,15.46s2.37.7,5.9,2.05c12.66,4.85,40.24,18.15,26.68,38.07,0,0,10.72,28.55,12.62,52.55Z"/>
        <path class="cls-5" d="M193.48,276.92c-2.34.6-3.8-1.6-3.8-1.6,0,0,.03-.5.17-1.28.22-1.23.71-3.15,1.78-4.86h0c1.02-1.65,2.56-3.09,4.89-3.58,6.3-1.31,9.98,9.72,9.98,9.72h4.21l3.41-2.1,4.45-2.77s11.39,4.75,7.67,16.11l-19.88,7.98c-3.53-1.35-5.9-2.05-5.9-2.05l-6.95-15.46-.03-.11Z"/>
        <path class="cls-2" d="M152.76,477.79c31.99-5.32,46.22-15.07,52.33-21.4,2.23-3.27,7.05-11.84-.95-15.11,2.76.44,6.23.75,9.98.52h0s6.08,10.11,2.78,13.78c-3.3,3.68,3.53,25.28,3.53,25.28,0,0,7.92,10.01-6.31,18.34-1.58.92-3.15,1.82-4.73,2.7-96.58,53.53-181.98,9.38-190.72,8.87-8.88-.53-14.77-17.87-13.19-19.01s-3.15-18.83-3.15-18.83c0,0-19.97-27.16,72-45.64,0,0,40.78-10.07,42.46-7.97h.11c-.22,3.76-.12,7.47.45,10.95l-.56.09c-19.02-3.16-22.76,19.97-22.76,19.97-1.77,1.1-3.76,2.33-5.89,3.63-11.42-29.48-51.92-8.36-51.92-8.36-15.8-6.74-17.5,17.24-17.55,17.91h0c10.44,5.36,29.47,14.39,35.34,12.32-3.69,6.46-3.14,22.85-3.14,22.85l39.24-17.21c26.15.54,46.63-1.01,62.65-3.68Z"/>
        <path class="cls-2" d="M31.76,650.38c.87-9.47,3.22-23.81,9.46-32.98l.18-1.56c-.61-.15-1.25-.32-1.93-.49-5.44-1.4-5.61-5.37-5.61-5.37l-5.15-27.1,25.3,6.33s1.52,20.79,2.51,28.19c.99,7.41,4.14,5.7,4.14,5.7,5.26,6.69-4.73,13.46-4.73,13.46l-5.08,23.43s-3.85,8.89,15.07,10.51l8.93-33.94-2.63-45.38-.68-.03c2.04-1.24,3.84-3.81,4.19-8.87.87-12.83,14.19-18.61,14.19-18.61,0,0,2.98-12.79-14.37-5.95,0,0-3.31,4.89-6.22,8.94l-.26-.19s-3.68-26.27-4.73-29.43c-1.05-3.15-16.29-6.3-16.29-6.3,0,0-1.77,23.03,2.8,42.52h0c-7.89-.9-20.84-5.38-20.84-5.38,0,0-4.91-3.51,6.21-12.97,11.13-9.46-4.99-9.17-4.99-9.17,0,0-3.38,1.91-7.34,5l-.02-.03-5.2-39.94c8.74.51,94.14,44.66,190.72-8.87v43.84l1.15,2.71-4.18,1.78c.64-6.79-6.2-28.43-6.2-28.43-12.92-3.15-12.82,8.94-12.82,8.94,0,0,4.18,24.79,2.34,26.58l-16.55,7.05-6.31-31c-12.61-2.11-19.44,6.06-19.44,6.06,0,0,8.94,47.5,6.6,56.32-.04.15-.08.29-.13.42-4.51,13.8-6.47,31.88-.53,53.85h0s-2.45,22.78-2.45,22.78l10.43-1.01h.01c1.1,2.47,2.23,4.84,3.38,7.11l-.49.25c-81.54,31.89-134.33-17.95-135.58-19.14l2.61-.02s0-3.93.53-9.61ZM123.73,670.5c4.16-6.24-4.73-125.66-4.73-125.66-9.46-12.18-22.6,0-22.6,0,0,0,8.93,120.36,1.58,125.66,0,0,12.08,20.46,25.75,0Z"/>
        <path class="cls-1" d="M200.16,521.8s6.84,21.64,6.2,28.43l-16.68,7.09c1.84-1.79-2.34-26.58-2.34-26.58,0,0-.1-12.09,12.82-8.94Z"/>
        <path class="cls-4" d="M204.14,441.28c8,3.27,3.18,11.84.95,15.11-6.11,6.33-20.34,16.08-52.33,21.4l-51.07-32.19s-3.08,1.91-7.66,4.73c0,0,3.74-23.13,22.76-19.97l.56-.09c1.74,10.73,7.86,19.31,22.67,20.06,0,0,45.2,42.57,57.81-10.51,0,0,2.48.85,6.31,1.46Z"/>
        <path class="cls-5" d="M194.15,287.67c5.2,6.68-13.14,4.47-13.14,4.47,0,0-1.04-1.39-1.33-2.63-.21-.91,0-1.73,1.33-1.84,2.31-.19,7.29-1.36,10.51-1.06,1.19.11,2.13.43,2.63,1.06Z"/>
        <path class="cls-5" d="M193.51,277.03c.67,3.54-3.83,3.2-3.83,3.2-4.75-.85-11.82,2.19-11.82,2.19-6.83-3.42.52-7.62.52-7.62,0,0,9.46-2.63,11.3-.79l.17.03c-.14.78-.17,1.28-.17,1.28,0,0,1.46,2.2,3.8,1.6l.03.11Z"/>
        <path class="cls-5" d="M191.52,280.84c4.47,2.36,0,5.72,0,5.72v.05c-3.22-.3-8.2.87-10.51,1.06-1.34.11-1.54.93-1.33,1.84l-.07.02c-7.18-2.09-1.75-7.11-1.75-7.11,0,0,7.07-3.04,11.82-2.19.67.12,1.29.32,1.84.61Z"/>
        <path class="cls-4" d="M189.68,242.75s3.9,20.27,1.95,26.42h0s-8.69-4.88-12.02-1.99c-.57.5-1.13.89-1.64,1.21l-.11-.16c-.79-2.63-16.56-11.57-16.56-11.57,0,0,5.26-6.3,8.28-6.3h4.34s6.29-6.31,8.4-4.47l7.36-3.14Z"/>
        <path class="cls-5" d="M191.63,269.18c-1.07,1.71-1.56,3.63-1.78,4.86l-.17-.03c-1.84-1.84-11.3.79-11.3.79-4.13-4.57-2.86-4.81-.41-6.41.51-.32,1.07-.71,1.64-1.21,3.33-2.89,12.02,2,12.02,2Z"/>
        <path class="cls-2" d="M28.62,660.01c1.25,1.19,54.04,51.03,135.58,19.14l.49-.25c6.61,13.12,13.75,22.92,20.87,30.18l-.86.86c-88.81,39.41-142.96-3.14-156.1-8.93-13.13-5.79-9.46-12.75-9.46-12.75,0,0,4.21-1.43,2.63-22.08-1.37-18.06,7.7-16.47,9.99-15.8-.53,5.68-.53,9.61-.53,9.61l-2.61.02Z"/>
        <path class="cls-1" d="M166.82,533.37l6.31,31s-12.35,10.9-19.15,31.38c2.34-8.82-6.6-56.32-6.6-56.32,0,0,6.83-8.17,19.44-6.06Z"/>
        <path class="cls-1" d="M161.31,671.79h-.01l-10.43,1.01,2.45-22.77c1.19,4.4,2.7,8.96,4.57,13.67,1.12,2.81,2.25,5.51,3.42,8.09Z"/>
        <path class="cls-3" d="M90.11,481.47l-39.24,17.21s-.55-16.39,3.14-22.85c.54-.96,1.18-1.69,1.92-2.13,3.55-2.09,20.04-12.24,32.21-19.74,2.13-1.3,4.12-2.53,5.89-3.63,4.58-2.82,7.66-4.73,7.66-4.73l51.07,32.19c-16.02,2.67-36.5,4.22-62.65,3.68Z"/>
        <path class="cls-1" d="M119,544.84s8.89,119.42,4.73,125.66c-13.67,20.46-25.75,0-25.75,0,7.35-5.3-1.58-125.66-1.58-125.66,0,0,13.14-12.18,22.6,0Z"/>
        <path class="cls-7" d="M28.71,582.88l-8.16-2.04c-17.35-10.31-5.56-23.17,3.34-30.1,3.96-3.09,7.34-5,7.34-5,0,0,16.12-.29,4.99,9.17-11.12,9.46-6.21,12.97-6.21,12.97,0,0,12.95,4.48,20.84,5.39,1.6.18,3,.22,4.03.04,6.13-1.05,7.01,1.75,10.51-1.58.7-.67,2.25-2.73,3.94-5.07,2.91-4.05,6.22-8.94,6.22-8.94,17.35-6.84,14.37,5.95,14.37,5.95,0,0-13.32,5.78-14.19,18.61-.35,5.06-2.15,7.63-4.19,8.87-3.13,1.91-6.85.73-6.85.73l-10.68-2.67-25.3-6.33Z"/>
        <path class="cls-4" d="M88.14,453.96c-12.17,7.5-28.66,17.65-32.21,19.74-.74.44-1.38,1.17-1.92,2.13-5.87,2.07-24.9-6.96-35.34-12.31h0c.05-.68,1.75-24.66,17.55-17.92,0,0,40.5-21.12,51.92,8.36Z"/>
        <path class="cls-1" d="M72.22,591.18l2.63,45.38-8.93,33.94c-18.92-1.62-15.07-10.51-15.07-10.51l5.08-23.43s9.99-6.77,4.73-13.46c0,0-3.15,1.71-4.14-5.7-.99-7.4-2.51-28.19-2.51-28.19l10.68,2.67s3.72,1.18,6.85-.73l.68.03Z"/>
        <path class="cls-1" d="M69.07,566.47l.26.19c-1.69,2.34-3.24,4.4-3.94,5.07-3.5,3.33-4.38.53-10.51,1.58-1.03.18-2.43.14-4.03-.04h0c-4.57-19.5-2.8-42.53-2.8-42.53,0,0,15.24,3.15,16.29,6.3,1.05,3.16,4.73,29.43,4.73,29.43Z"/>
      </g>
      <g>
        <path class="cls-13" d="M485.3,290.04s41.52-9.99,42.05-18.92c0,0-62.54,18.39-22.07-6.83,40.46-25.23.52-52.03.52-52.03,28.38-63.07-43.62-72-43.62-72,0,0,64.12-176.06-103.53-132.97,0,0-116.15-32.58-79.36,91.45,0,0-27.33,25.22,3.68,46.77"/>
        <path class="cls-13" d="M328.69,142.36s19.45,11.03,33.11-4.21"/>
        <path class="cls-13" d="M299.79,66.15h.01"/>
        <path class="cls-13" d="M299.8,66.14c.44-.35,15.32-12.05,21.53-11.02,6.31,1.05,0,4.73,0,4.73-5.17-1.03-21.07,6.09-21.53,6.29Z"/>
        <path class="cls-13" d="M339.2,130.8s-14.19-13.14,0-13.67"/>
        <path class="cls-13" d="M369.93,95.06s17.62-16.82,35.49,0"/>
        <path class="cls-13" d="M369.93,112.4s15,11.04,32.86,0"/>
        <path class="cls-13" d="M303.47,91.32s13.66-20.44,29.43,3.74"/>
        <path class="cls-13" d="M303.47,106.36s8.4,14.1,25.22,8.49"/>
        <path class="cls-13" d="M324.14,99.66c0,4.61-3.74,8.35-8.35,8.35s-8.34-3.74-8.34-8.35,3.74-8.34,8.34-8.34,8.35,3.74,8.35,8.34Z"/>
        <circle class="cls-13" cx="381.51" cy="102.92" r="8.34"/>
        <path class="cls-13" d="M279.4,484.4c-26.71-4.89-44.26-10.42-44.26-10.42,0,0,41.52-132.44,56.24-152.94v-10.26"/>
        <path class="cls-13" d="M405.42,311.79v15.04s1.97,2.91,5.26,7.87c8.09,12.16,24.15,36.65,38.68,60.8,18.33,30.47,34.22,60.38,28.59,64.29-13.38,9.31-28.17,16.16-43.65,21.07-21.37,6.79-44.06,9.88-66.18,10.69-12.18.44-24.19.18-35.71-.54-19.6-1.23-37.79-3.81-53.01-6.6"/>
        <path class="cls-13" d="M291.38,321.04s53.6,12.09,114.04,5.79"/>
        <path class="cls-13" d="M441.89,315.52c.48.73,39.74-8.14,43.41-25.48"/>
        <path class="cls-13" d="M255.11,697.86c-3.24-.34-6.21-.5-8.93-.49-13.16.04-20.5,3.88-24.53,8.64-3.7,4.34-4.63,9.45-4.74,13.14-.08,2.95.37,4.99.37,4.99.38.8,6.15,1.98,14.74,2.8,21.71,2.08,61.4,1.85,77.3-12.79,0,0,.06-2.21.11-5.51.09-5.79.15-14.93-.18-21.29-.63-11.9-3.16-17.87-3.16-17.87,0,0,2.5-3.58-5.14-3.28"/>
        <path class="cls-13" d="M263.2,680.99c-11.16-3.01-28.49-5-17.02,16.38h0"/>
        <path class="cls-13" d="M271.41,683.67s-3.57-1.43-8.21-2.67"/>
        <path class="cls-13" d="M266.66,660.02s-20.07-1.67-3.46,20.97h0"/>
        <polyline class="cls-13" points="279.4 484.4 279.4 484.41 273.37 570.45 270.7 608.58 269.78 621.63 267.79 650.02 267.09 660.05 266.66 666.2"/>
        <path class="cls-13" d="M332.37,491.76l-22.07,122.54-9.35,51.9-1.16,6.44c-15.7,1.12-27.58-3.61-33.13-6.43-2.25-1.15-3.46-1.98-3.46-1.98"/>
        <polyline class="cls-13" points="368.12 491.54 368.12 491.55 394.58 608.58 408.28 669.22 408.57 670.5"/>
        <polyline class="cls-13" points="434.3 480.86 441.89 603.84 445.36 659.99"/>
        <path class="cls-13" d="M270.7,608.58s21.72,15.18,39.6,5.72"/>
        <path class="cls-13" d="M394.58,608.58s28.08,5.3,47.31-4.74"/>
        <path class="cls-13" d="M418.24,688.26s-3.24-1.58-6.21-4.43c-3.5-3.31-6.63-8.36-3.75-14.61.95-2.07,2.55-4.26,5.02-6.57,11.89-11.11,24.61-6.02,30.62-2.44,2.24,1.32,3.55,2.44,3.55,2.44,0,0,4.73,12.9-.21,21.19-.52.88-1.15,1.71-1.9,2.46"/>
        <path class="cls-13" d="M447.27,683.84s19.81,33.74,18.06,40.82c-5.55,22.5-29.22,15.83-37,9.99l-21.18-22.07s-2.1-3.25-2.01-9.2c.06-4.83,1.59-11.45,6.88-19.54"/>
        <path class="cls-13" d="M216.9,719.15h.01c1.09.14,69.24,8.53,92.52-10.51"/>
        <path class="cls-13" d="M405.14,703.38s21.65,27.85,30.15,28.12c8.5.26,18.74,7.09,30.04-6.84"/>
        <path class="cls-13" d="M418.3,688.47c-.2.06-.36.11-.49.16-2.03.82-6.04,4.73-.32,6.91.03-.05,1.9.13,4.66.27,6.21.33,16.94.49,21.39-2.42.32-.21.61-.44.86-.68,4.41-4.24,2.51-5.81.09-6.34-1.31-.28-2.79-.25-3.49-.18-.32.03-.64.05-.97.05-3.13-.04-18.08,1.25-21.73,2.23Z"/>
        <path class="cls-13" d="M422.15,695.81c-1.51.67-2.38,1.46-2.26,2.33,0,0-5.73,4.95,1.02,6.74.96.26,2.2.42,3.63.5,7.04.39,18.65-1.15,23.01-2.99,1-.41,1.62-.85,1.72-1.28.62-2.68.2-5.12-3.34-7.09-.5-.28-1.33-.49-2.39-.63-5.35-.71-16.58.29-21.39,2.42Z"/>
        <path class="cls-13" d="M447.55,702.39c.85.27,1.55.63,2.04,1.09,9.08,8.47-21.98,10.88-22.69,8.3,0,0-6.26.16-2.92-4.23-1-.65-.66-1.42.56-2.17,3.97-2.47,17.14-4.85,23.01-2.99Z"/>
        <path class="cls-13" d="M191.63,269.18c-1.07,1.71-1.56,3.63-1.78,4.86-.14.78-.17,1.28-.17,1.28,0,0,1.46,2.2,3.8,1.6,1.1-.27,2.39-1.16,3.82-3.18"/>
        <path class="cls-13" d="M318.18,208.46l-99.61,61.99-4.45,2.77-3.41,2.1h-4.21s-3.68-11.03-9.98-9.72c-2.33.49-3.87,1.93-4.89,3.57"/>
        <polyline class="cls-13" points="291.37 260.43 226.24 286.56 206.36 294.54"/>
        <path class="cls-13" d="M421.01,424.82c-4.55-1.07-7.71-2.08-7.71-2.08l-2.62-88.04-.71-23.92-.9-30.54-.21-6.89-.29-9.85"/>
        <path class="cls-13" d="M318.18,208.46c8.11-6.03,18.29-12.49,31.01-19.33,6.67-3.59-8.41-9.46-8.41-9.46-43.78,1.54-56.38-15.88-57.79-34.16-1.48-19.23,9.44-39.41,9.44-39.41-15.77-78.31,29.43-82.52,29.43-82.52,24.7,55.71,92.5,54.14,92.5,54.14-5.79,27.32,16.29,34.68,16.29,34.68,22.07.53,29.43,8.41,25.22,30.48-4.2,22.08-42.04,11.57-42.04,11.57,2.1,5.78-22.07,16.81-31.01,18.39-8.93,1.58-4.2,16.29-4.2,16.29,0,0,19.44.53,26.8,9.46,0,0,19.02,3.42,22.91,16.82,1.84,6.32,7.25,52.85,12.47,100.23,3.23,29.44,6.39,59.21,8.56,79.86,1.74,16.54,2.84,27.24,2.84,27.24-2.18,3.27-6.91,4.45-12.37,4.55-6.27.11-13.49-1.22-18.82-2.46"/>
        <path class="cls-13" d="M409.98,310.78h-.01c-.54.51-2.13.9-4.55,1.21-21.84,2.77-111.41-1.46-111.41-1.46,0,0-1.12.29-2.63.24-4.73-.14-13.23-3.66-1.86-30.53.9-2.14,1.93-4.43,3.11-6.89,1.04-2.19,2.2-4.51,3.48-6.96,0,0-2.61-2.05-4.73-5.96h-.01c-4.74-8.72-7.13-26.69,26.81-51.96"/>
        <path class="cls-13" d="M439.83,437.89c-.09-.16-.16-.53-.2-1.04-.23-2.75.2-9.56.2-9.56"/>
        <path class="cls-13" d="M439.23,436.84s.15,0,.4,0c1.43.06,6.28.57,7.84,4.81,1.83,4.99,3.94,23.12,2.36,26.01s-22.6,16.03-41.26,1.32c0,0-7.35-24.18-3.15-25.49,4.21-1.32.18-6.66,15.59-7.01v-11.66h0"/>
        <path class="cls-13" d="M191.52,286.61c1.19.11,2.13.43,2.63,1.06,5.2,6.68-13.14,4.47-13.14,4.47,0,0-1.04-1.39-1.33-2.63-.21-.91,0-1.73,1.33-1.84,2.31-.19,7.29-1.36,10.51-1.06Z"/>
        <path class="cls-13" d="M191.52,286.56s4.47-3.36,0-5.72c-.55-.29-1.17-.49-1.84-.61-4.75-.85-11.82,2.19-11.82,2.19,0,0-5.43,5.02,1.75,7.11"/>
        <path class="cls-13" d="M177.86,282.42c-6.83-3.42.52-7.62.52-7.62,0,0,9.46-2.63,11.3-.79"/>
        <path class="cls-13" d="M181.01,292.14s-26.27,7.88-26.27,38.89c0,0-44.68,13.66-29.44,53.61,0,0-7.45,17.68-8.4,34.69-.22,3.75-.12,7.46.45,10.94,1.74,10.73,7.86,19.31,22.67,20.06,0,0,45.2,42.57,57.81-10.51,0,0,2.48.85,6.31,1.46,2.76.44,6.23.75,9.98.52,15.25-.89,35.18-10.62,31.54-56.64-1.9-24-12.62-52.55-12.62-52.55,13.56-19.92-14.02-33.22-26.68-38.07-3.53-1.35-5.9-2.05-5.9-2.05l-6.95-15.46c.67,3.54-3.83,3.2-3.83,3.2"/>
        <path class="cls-13" d="M178.38,274.8c-4.13-4.57-2.86-4.81-.41-6.41.51-.32,1.07-.71,1.64-1.21,3.33-2.89,12.02,2,12.02,2h0c1.95-6.16-1.95-26.43-1.95-26.43l-7.36,3.14c-2.11-1.84-8.4,4.47-8.4,4.47h-4.34c-3.02,0-8.28,6.3-8.28,6.3,0,0,15.77,8.94,16.56,11.57"/>
        <path class="cls-13" d="M349.19,189.13s5.31,2.39,12.59,2.93c5.05.37,11.03-.13,16.84-2.93"/>
        <path class="cls-13" d="M318.18,208.46h0c.34.57,14.09,23.05,27.07,7.74,12.18-14.38,16-22.75,16.49-23.9,0-.01.01-.01.02-.01s.03.01.03.02c-.22,2.16-2.47,27.42,8.14,29.22,29.42,4.99,35.49-22.94,35.49-22.94"/>
        <path class="cls-13" d="M289.51,280.24h.01c1.24.18,85.1,11.93,119.55,0"/>
        <path class="cls-13" d="M292.62,273.35h.01c1.23.12,82.61,7.96,116.23,0h.01"/>
        <path class="cls-13" d="M32.28,650.56s-.19-.08-.52-.18c-2.29-.67-11.36-2.26-9.99,15.8,1.58,20.65-2.63,22.08-2.63,22.08,0,0-3.67,6.96,9.46,12.75,13.14,5.79,67.29,48.34,156.1,8.93"/>
        <path class="cls-13" d="M28.6,659.99l.02.02c1.25,1.19,54.04,51.03,135.58,19.14"/>
        <path class="cls-13" d="M214.12,441.81s6.08,10.1,2.78,13.77c-3.3,3.68,3.53,25.28,3.53,25.28,0,0,7.92,10.01-6.31,18.34-1.58.92-3.15,1.82-4.73,2.7-96.58,53.53-181.98,9.38-190.72,8.87-8.88-.53-14.77-17.87-13.19-19.01s-3.15-18.83-3.15-18.83c0,0-19.97-27.16,72-45.64,0,0,40.78-10.07,42.46-7.97"/>
        <line class="cls-13" x1="209.39" y1="545.74" x2="209.39" y2="501.9"/>
        <line class="cls-13" x1="23.87" y1="550.71" x2="18.67" y2="510.77"/>
        <path class="cls-13" d="M31.23,659.99s0-3.93.53-9.61c.87-9.47,3.22-23.81,9.46-32.98"/>
        <path class="cls-13" d="M28.6,582.28l.11.6,5.15,27.1s.17,3.97,5.61,5.37c.68.17,1.32.34,1.93.49,4.24,1.06,6.65,1.56,6.65,1.56,12.61,11.52-4.21,8.46-4.21,8.46"/>
        <path class="cls-13" d="M50.85,573.27c1.6.18,3,.22,4.03.04,6.13-1.05,7.01,1.75,10.51-1.58.7-.67,2.25-2.73,3.94-5.07,2.91-4.05,6.22-8.94,6.22-8.94,17.35-6.84,14.37,5.95,14.37,5.95,0,0-13.32,5.78-14.19,18.61-.35,5.06-2.15,7.63-4.19,8.87-3.13,1.91-6.85.73-6.85.73l-10.68-2.67-25.3-6.33-8.16-2.04c-17.35-10.31-5.56-23.17,3.34-30.1,3.96-3.09,7.34-5,7.34-5,0,0,16.12-.29,4.99,9.17-11.12,9.46-6.21,12.97-6.21,12.97,0,0,12.95,4.48,20.84,5.39Z"/>
        <path class="cls-13" d="M153.32,650.03c1.19,4.4,2.7,8.96,4.57,13.67,1.12,2.81,2.25,5.51,3.42,8.09,1.1,2.47,2.23,4.84,3.38,7.11,6.61,13.12,13.75,22.92,20.87,30.18,19.45,19.84,38.7,20.67,46.43,18.21"/>
        <path class="cls-13" d="M153.85,596.17c-4.51,13.8-6.47,31.88-.53,53.85"/>
        <path class="cls-13" d="M273.03,570.43c-22.55-32.84-56.13-24.69-56.13-24.69l-6.36,2.71-4.18,1.78-16.68,7.09-16.55,7.05s-12.35,10.9-19.15,31.38"/>
        <path class="cls-13" d="M193.63,559.64s-48.02,68.85,28.02,146.37"/>
        <polyline class="cls-13" points="267.79 650.02 242.41 626.23 221.65 626.23 209.39 614.3 222.79 596.17 233.83 605.63 254.33 606.91 269.78 621.63 270.09 621.92"/>
        <line class="cls-13" x1="253.54" y1="608.58" x2="244.34" y2="623.1"/>
        <line class="cls-13" x1="233.3" y1="606.91" x2="223.84" y2="621.13"/>
        <path class="cls-13" d="M154.21,478.71l-1.45-.92-51.07-32.19s-3.08,1.91-7.66,4.73c-1.77,1.1-3.76,2.33-5.89,3.63-12.17,7.5-28.66,17.65-32.21,19.74-.74.44-1.38,1.17-1.92,2.13-3.69,6.46-3.14,22.85-3.14,22.85l39.24-17.21,6.29-2.76s6.31-1.58,2.63-23.65"/>
        <path class="cls-13" d="M18.67,463.52c10.44,5.35,29.47,14.38,35.34,12.31"/>
        <path class="cls-13" d="M11.64,459.79s2.82,1.56,7.03,3.72"/>
        <path class="cls-13" d="M209.39,450.33s-.86,2.49-4.3,6.06c-6.11,6.33-20.34,16.08-52.33,21.4-16.02,2.67-36.5,4.22-62.65,3.68"/>
        <path class="cls-13" d="M94.03,450.33s3.74-23.13,22.76-19.97"/>
        <path class="cls-13" d="M204.14,457.69s.39-.49.95-1.3c2.23-3.27,7.05-11.84-.95-15.11"/>
        <path class="cls-13" d="M18.67,463.52h0c.05-.68,1.75-24.66,17.55-17.92,0,0,40.5-21.12,51.92,8.36"/>
        <path class="cls-13" d="M123.73,670.5c4.16-6.24-4.73-125.66-4.73-125.66-9.46-12.18-22.6,0-22.6,0,0,0,8.93,120.36,1.58,125.66,0,0,12.08,20.46,25.75,0Z"/>
        <path class="cls-13" d="M69.07,566.47s-3.68-26.27-4.73-29.43c-1.05-3.15-16.29-6.3-16.29-6.3,0,0-1.77,23.03,2.8,42.52"/>
        <path class="cls-13" d="M54.01,589.21s1.52,20.79,2.51,28.19c.99,7.41,4.14,5.7,4.14,5.7,5.26,6.69-4.73,13.46-4.73,13.46l-5.08,23.43s-3.85,8.89,15.07,10.51l8.93-33.94-2.63-45.38"/>
        <path class="cls-13" d="M173.13,564.37l-6.31-31c-12.61-2.11-19.44,6.06-19.44,6.06,0,0,8.94,47.5,6.6,56.32-.04.15-.08.29-.13.42"/>
        <polyline class="cls-13" points="161.3 671.79 150.87 672.8 153.32 650.03 153.32 650.02"/>
        <path class="cls-13" d="M189.68,557.32c1.84-1.79-2.34-26.58-2.34-26.58,0,0-.1-12.09,12.82-8.94,0,0,6.84,21.64,6.2,28.43"/>
        <path class="cls-12" d="M428.37,707.25c2.66-.3,5.32-.59,7.97-.89.4-.04.79-.09,1.19-.13.11-.02.22-.03.33-.04,1.48-.17,2.97-.33,4.45-.5.94-.1,1.88-.21,2.83-.28-.25-.06-.5-.12-.74-.18"/>
        <path class="cls-12" d="M426.48,697.75c.87-.28,1.82-.03,2.71-.21.35-.08.68-.21,1.02-.29.59-.13,1.2-.08,1.81-.07.87.02,1.74-.04,2.61-.1.6-.04,1.19-.08,1.79-.13.45-.03.9-.06,1.34-.15.33-.06.65-.16.98-.22.87-.17,1.76-.1,2.65-.04"/>
        <path class="cls-11" d="M218.57,270.45s11.39,4.75,7.67,16.11"/>
      </g>
    </g>
    <path class="cls-9" d="M413.92,337.45c3.22,0,3.22-5,0-5s-3.22,5,0,5h0Z"/>
    <path class="cls-9" d="M411.5,334.53c-.67,4.36,1.93,8.73,3.94,12.46s4.34,7.26,6.88,10.65,5.7,6.76,8.22,10.38,4.65,7.6,6.74,11.53c1.51,2.84,5.83.32,4.32-2.52-2.02-3.79-4.05-7.6-6.48-11.15s-5.16-6.44-7.69-9.71-4.64-6.38-6.61-9.79c-1.02-1.76-1.97-3.57-2.83-5.42-.66-1.41-1.92-3.48-1.67-5.09.2-1.33-.34-2.69-1.75-3.08-1.18-.33-2.87.4-3.08,1.75h0Z"/>
    <path class="cls-9" d="M434.44,377.31c1.34,4.18,3.15,8.21,5.41,11.98,1.23,2.05,4.77,1.28,4.66-1.26-.05-1.07-.11-2.19-.49-3.2-.27-.71-.59-1.31-1.09-1.89-.14-.16-.29-.3-.44-.45-.1-.09-.2-.18-.29-.27.28.36.4.78.34,1.24l-4.18,1.1c.97,1.2,2.07,2.75,2.99,4.26s1.83,3.24,2.59,4.93c.54,1.2,2.37,1.57,3.42.9,1.24-.8,1.47-2.14.9-3.42-1.65-3.69-3.82-7.07-6.36-10.21-.55-.67-1.64-.86-2.43-.64-.92.25-1.4.91-1.75,1.75-.7,1.69.47,3.04,1.53,4.17-.29-.31.07.14.12.24-.22-.45.02.16.04.27.03.13.09.71.05.27.03.31.04.63.06.94l4.66-1.26c-2.11-3.52-3.67-6.94-4.9-10.78-.4-1.24-1.75-2.17-3.08-1.75-1.24.4-2.17,1.74-1.75,3.08h0Z"/>
    <path class="cls-9" d="M446.21,396.47c3.22,0,3.22-5,0-5s-3.22,5,0,5h0Z"/>
    <path class="cls-9" d="M446.22,396.47c3.22,0,3.22-5,0-5s-3.22,5,0,5h0Z"/>
    <path class="cls-9" d="M446.24,396.47c3.22,0,3.22-5,0-5s-3.22,5,0,5h0Z"/>
    <path class="cls-9" d="M443.74,393.97c0,.66.02,1.32.07,1.98-.01.34.06.67.22.96.1.31.27.58.52.8.23.24.49.42.8.52.3.16.62.23.96.22.65-.03,1.32-.24,1.77-.73l.39-.51c.23-.39.34-.81.34-1.26.04-.42-.06-.88-.12-1.29-.03-.24-.07-.48-.1-.72-.07-.48-.13-.96-.2-1.45l.09.66c-.02-.12-.03-.24-.02-.36l-.09.66v-.06c-1.38.37-2.78.74-4.17,1.1l.03.03-.39-.51s.03.05.04.08l-.25-.6c.05.15.1.31.14.46l-.09-.66c0,.07,0,.14,0,.21l.09-.66c-.05.31-.11.63-.12.94s.04.64.12.94c.05.22.13.43.16.65l-.09-.66c.03.25.03.5,0,.76l.09-.66c0,.07-.02.13-.04.2l.25-.6s-.03.06-.05.08l.39-.51-.04.03.51-.39-.04.02.6-.25s-.06.02-.09.03l.66-.09c-.2.03-.41,0-.61-.02l.66.09h-.06c-.33-.11-.66-.13-1-.05-.33.02-.64.11-.93.3-.29.16-.53.37-.7.64-.22.24-.37.52-.45.85-.15.64-.11,1.36.25,1.93l.39.51c.31.31.68.52,1.1.64.33.05.68.11,1.01.13.07,0,.15,0,.22,0,.03,0,.06,0,.1,0l.66-.09c.7-.19,1.27-.62,1.66-1.23.27-.42.33-.76.39-1.21.03-.24.07-.47.07-.71s-.04-.47-.07-.71-.06-.47-.12-.7c-.04-.13-.08-.25-.1-.38l.09.66c0-.1,0-.19,0-.29l-.09.66c.04-.31.12-.62.13-.93,0-.14-.04-.32-.05-.44-.02-.17-.03-.3-.08-.45-.17-.57-.37-1.14-.82-1.56-.66-.61-1.54-.89-2.43-.64-.42.12-.79.33-1.1.64-.31.31-.52.68-.64,1.1-.05.3-.13.62-.1.93s.08.63.12.94c.03.23.06.46.1.69.06.46.13.92.19,1.38l-.09-.66c.03.2.04.39.02.59h5c-.05-.66-.08-1.32-.07-1.98s-.28-1.32-.73-1.77c-.23-.24-.49-.42-.8-.52-.3-.16-.62-.23-.96-.22-.65.03-1.32.24-1.77.73s-.73,1.09-.73,1.77h0Z"/>
  </g>
</svg>