<?xml version="1.0" encoding="UTF-8"?>
<svg id="Calque_2" data-name="Calque 2" xmlns="http://www.w3.org/2000/svg" viewBox="0 0 101 101">
  <defs>
    <style>
      .cls-1 {
        fill: #562412;
      }

      .cls-1, .cls-2, .cls-3 {
        stroke: #572310;
        stroke-miterlimit: 10;
      }

      .cls-2 {
        fill: #c1951d;
      }

      .cls-3 {
        fill: none;
        stroke-width: 2px;
      }
    </style>
  </defs>
  <g id="Calque_2-2" data-name="Calque 2">
    <g>
      <circle class="cls-2" cx="50.5" cy="50.5" r="50"/>
      <path class="cls-3" d="M37.14,66.78h38.83c.39,0,.67.38.54.74-1.03,2.71-5.57,11.97-19.94,12.49s-19-9.66-19.97-12.5c-.12-.36.15-.73.54-.73Z"/>
      <path class="cls-3" d="M64.18,21.7s7.56-9.13,16.51,1.06"/>
      <path class="cls-3" d="M24.74,23.4s-1.85,4.11,20.52,2.59"/>
      <path class="cls-1" d="M49.24,34.52l6.35-.15c2.95-3.19,6-2.43,6-2.43h28.55s.46.76,3.09,5.32-2.01,4.56-2.01,4.56c0,0-1.85,13.99-17.44,15.67-15.59,1.67-17.13-13.38-17.13-13.38l-8.51-.15s-4.15,15.51-17.11,14.14c-17.78-1.88-15.74-15.51-15.74-15.51,0,0-3.09-.91-2.78-3.5s2.93-5.63,5.09-4.87l31.64.3Z"/>
    </g>
  </g>
</svg>