<?xml version="1.0" encoding="UTF-8"?>
<svg id="Calque_2" data-name="Calque 2" xmlns="http://www.w3.org/2000/svg" viewBox="0 0 101 101">
  <defs>
    <style>
      .cls-1 {
        fill: #e55f9f;
      }

      .cls-1, .cls-2 {
        stroke-width: 0px;
      }

      .cls-3 {
        fill: #562412;
      }

      .cls-3, .cls-4, .cls-5 {
        stroke: #572310;
        stroke-miterlimit: 10;
      }

      .cls-4 {
        fill: #c1951d;
      }

      .cls-5 {
        fill: none;
        stroke-width: 2px;
      }

      .cls-2 {
        fill: #572310;
      }
    </style>
  </defs>
  <g id="Calque_2-2" data-name="Calque 2">
    <g>
      <circle class="cls-4" cx="50.5" cy="50.5" r="50"/>
      <path class="cls-1" d="M40.82,88.64c1.23,0,2.45.01,3.68.08,1.02.05,2.23,0,3.2.28l-1.49-1.15.11.15-.25-1.93c-.11-.18-.21-.07-.29.32-.49.66-.25.56.69-.29-.06-.09-1.2.03-1.32.02-.89-.07-1.75-.33-2.59-.61-1.82-.61-3.57-1.73-5.46-2.05v4.82c4.63-1.86,9.52-3.01,14.53-3.08,2.39-.03,4.83.1,7.16.65s4.39,2.12,6.8,2.67v-4.82c-3.29,1.19-6.57,2.47-9.97,3.34-2.96.76-6.43,1.4-9.38.24l1.1.64-.16-.12.64,1.1-.07-.29v1.33l.13-.31-.64,1.1c1.11-1.25,3.36-1.38,4.89-1.67,2.36-.45,4.73-.9,7.09-1.34,1.33-.25,2.08-1.85,1.75-3.08-.38-1.39-1.74-2-3.08-1.75-1.96.37-3.91.74-5.87,1.11-1.54.29-3.14.5-4.63,1.01-1.67.56-3.71,1.51-4.34,3.29-.75,2.13.77,3.55,2.68,4.06,7.09,1.88,14.61-1.48,21.17-3.84,2.16-.78,2.58-4.23,0-4.82s-4.52-2.16-7.01-2.72c-2.69-.6-5.52-.82-8.27-.78-5.43.08-10.83,1.23-15.86,3.25-1.04.42-1.84,1.22-1.84,2.41,0,1.02.77,2.23,1.84,2.41,2.26.38,4.31,1.8,6.54,2.38,2.03.53,5.27,1.08,6.94-.58.65-.65,1.42-1.79,1.65-2.68.38-1.47-.61-2.93-2.05-3.28-2.52-.61-5.44-.49-8.01-.47-3.22.02-3.22,5.02,0,5h0Z"/>
      <path class="cls-5" d="M50.5,93s25.93.61,29.01-28.59H21.69s4.35,27.48,28.81,28.59Z"/>
      <path class="cls-5" d="M30.34,24.86s3.7-8.11,9.88,0"/>
      <path class="cls-5" d="M32.49,85.4s17.25-12.06,37.49,0"/>
      <path class="cls-5" d="M61.57,23.96s3.7-8.11,9.88,0"/>
      <ellipse class="cls-3" cx="66.51" cy="49.9" rx="4.95" ry="4.88"/>
      <ellipse class="cls-3" cx="35.97" cy="50.79" rx="4.95" ry="4.88"/>
      <path class="cls-2" d="M25.05,68.98c17.21-.19,34.41-.38,51.62-.58l-2.5-2.5c-.08,2.47-.16,5.06-1.13,7.38-1.05,2.52-3.26,4.62-4.97,6.7l2.43-.64c-8.33-3.5-17.59-4.38-26.48-2.86-2.11.36-4.19.87-6.22,1.53-1.08.35-2.15.75-3.21,1.18-.33.14-.66.28-.99.42-.74.24-.51.35.71.32,0-.18-1.07-.89-1.23-1.04-1.56-1.42-1.96-3.02-2.93-4.84-.89-1.67-2.35-3.06-2.72-4.96l-2.41,3.16c8.26-.97,16.57-1.46,24.89-1.44,4.08.01,8.15.14,12.22.39s8.31.89,12.43-.01l-2.82-3.67c-1.05,1.5-1.67,3.23-2.32,4.93-.28.74-.58,1.46-.98,2.14-.12.21-.24.44-.39.63-.15.18-.3.35-.47.51-.35.3-.34.32.01.06-1.07.06-2.25-.2-3.32-.3-1.13-.1-2.26-.21-3.38-.31-2.24-.21-4.48-.43-6.72-.62-4.52-.39-8.87-.22-13.36.4-1.11.15-2.23.32-3.34.48-1.04.15-2.5.1-3.46.51-.79.02-.67.17.35.45-.17-.24-.34-.48-.5-.73-.24-.37-.48-.75-.7-1.13-.56-.96-1.05-1.96-1.44-3l-1.75,3.08c2.93-.96,6.35-.91,9.41-1.15,3.22-.25,6.44-.45,9.67-.59s6.46-.22,9.68-.24c1.66-.01,3.31,0,4.97.02.73,0,1.45.02,2.18.05.4.01.81.03,1.21.06.22.01,1.35.3.72-.04l-.9-.9.14.29-.34-1.26c.03-.48-.17.18-.25.33-.16.29-.33.58-.52.86-.14.21-.32.4-.46.61-.07.09-.15.17-.23.25-.33.33-.06.24.82-.26-.05-.22-1.89-.51-2.16-.56-.83-.15-1.67-.26-2.51-.33-3.12-.26-6.29-.04-9.41.08-6.52.26-13.03.69-19.55.76-3.22.03-3.22,5.03,0,5,5.86-.06,11.72-.42,17.57-.68,2.86-.13,5.72-.26,8.58-.26,1.25,0,2.52.01,3.76.21,1.37.21,2.69.89,4.09.75,2.42-.25,4.31-3.3,5.02-5.4.51-1.5.06-3.17-1.4-3.94-1.25-.66-3.06-.53-4.44-.58-5.77-.19-11.57-.05-17.33.22-3.31.15-6.61.36-9.92.63s-6.71.25-9.75,1.25c-1.19.39-2.25,1.76-1.75,3.08.71,1.86,1.55,3.66,2.65,5.32.53.8,1.07,1.71,1.88,2.25,1.01.67,2.02.6,3.18.44,4.06-.58,8.13-1.36,12.23-1.56s8.1.31,12.13.68c2.09.19,4.19.39,6.28.58s4,.42,5.75-1.19c2.72-2.51,3.01-6.42,5.06-9.35,1.34-1.91-.86-4.1-2.82-3.67-3.74.82-7.81.03-11.59-.19-4.07-.24-8.14-.36-12.22-.36-8.15,0-16.3.49-24.4,1.44-1.69.2-2.75,1.43-2.41,3.16s1.26,3.14,2.22,4.56,1.45,2.84,2.2,4.32c.83,1.63,2.19,2.91,3.59,4.05.77.62,1.51,1.26,2.52,1.39,1.09.13,2-.39,2.97-.79,6.66-2.77,13.98-3.71,21.13-2.94,4.09.44,8.12,1.57,11.91,3.16.74.31,1.93-.04,2.43-.64,2.09-2.54,4.59-5.04,5.91-8.1s1.54-6.28,1.65-9.52c.04-1.34-1.18-2.51-2.5-2.5-17.21.19-34.41.38-51.62.58-3.22.04-3.22,5.04,0,5h0Z"/>
    </g>
  </g>
</svg>