<?xml version="1.0" encoding="UTF-8"?>
<svg id="Calque_2" data-name="Calque 2" xmlns="http://www.w3.org/2000/svg" viewBox="0 0 425.23 764.19">
  <defs>
    <style>
      .cls-1 {
        fill: #3f3f3f;
      }

      .cls-1, .cls-2, .cls-3, .cls-4, .cls-5, .cls-6, .cls-7, .cls-8, .cls-9, .cls-10, .cls-11, .cls-12, .cls-13, .cls-14, .cls-15, .cls-16, .cls-17, .cls-18 {
        stroke-width: 0px;
      }

      .cls-2 {
        fill: #4165ae;
      }

      .cls-3 {
        fill: #262626;
      }

      .cls-19 {
        fill: none;
        stroke: #000;
        stroke-miterlimit: 10;
      }

      .cls-4 {
        fill: #2b4b9b;
      }

      .cls-5 {
        fill: #bab9b9;
      }

      .cls-7 {
        fill: #e52421;
      }

      .cls-8 {
        fill: #d8db20;
      }

      .cls-9 {
        fill: #6e6b6b;
      }

      .cls-10 {
        fill: #e5201e;
      }

      .cls-11 {
        fill: #2b2b2b;
      }

      .cls-12 {
        fill: #b26413;
      }

      .cls-13 {
        fill: #5c81c1;
      }

      .cls-14 {
        fill: #fff;
      }

      .cls-15 {
        fill: #d3d3d3;
      }

      .cls-16 {
        fill: #999898;
      }

      .cls-17 {
        fill: #e2201f;
      }

      .cls-18 {
        fill: #e9e22b;
      }
    </style>
  </defs>
  <g id="Calque_1-2" data-name="Calque 1">
    <g>
      <g>
        <path class="cls-11" d="M339.36,722.16l1.05.52c-1.59,3.15-3.3,5.53-4.88,7.3l-8.61-8.69s-1.4-5.79.7-10.69l11.74,11.56Z"/>
        <path class="cls-11" d="M420.47,744.58v10.52c-46.8,25.82-76.41-14.5-78.84-17.98,1.39-1.71,2.87-4.25,4.17-8.03,2.53,3.44,29.97,38.84,74.67,15.49Z"/>
        <path class="cls-11" d="M198.72,714.8l1.54,10.51-.02.02c-1.89-2.22-3.46-5-4.74-8.08l.38-.16,2.84-2.29Z"/>
        <path class="cls-11" d="M195.1,730.15l-.09.07c-38.89,37.49-95.3,14.36-95.3,14.36,0,0,.03-3.93,1.7-8.83l.23.08s45.89,22.07,88.29-15.25l.27-.09c1.25,3.58,2.85,6.91,4.9,9.66Z"/>
        <path class="cls-1" d="M349.55,695.89c-1.02-1.4-2.05-3.07-2.87-4.97-1.83-4.25-2.58-9.64.23-15.58.67-1.42,1.54-2.86,2.64-4.33,4.38-5.84,10.42-8.05,16.38-8.49,10.68-.8,21.08,4.11,21.08,4.11,0,0,9.63,5.25-2.98,27.5l-.04.19c-14.91-2.73-28.69,4.72-28.69,4.72,0,0-.62.6-1.4,1.57,0,0-2.16-1.73-4.35-4.72Z"/>
        <path class="cls-1" d="M366.69,729.56c5.29-1.55,19.69-5.2,32.42-3.09,9.64,1.6,18.32,6.5,21.36,18.11-44.7,23.35-72.14-12.05-74.67-15.49,2.27-6.59,4-16.95,3.75-33.2,2.19,2.99,4.35,4.72,4.35,4.72-2.54,3.16-6.71,10.2,4.26,12.29-1.18,2.45-3.61,8.94,4.67,7.51-6.3,9.28,3.86,9.15,3.86,9.15Z"/>
        <path class="cls-1" d="M343.79,665.05l3.12,10.29c-2.81,5.94-2.06,11.33-.23,15.58l-.14.06c0,15.05-2.79,25.08-6.13,31.7l-1.05-.52-11.74-11.56s1.05-11.56,4.03-15.42c0,0-15.49-28.9,12.14-30.13Z"/>
        <path class="cls-1" d="M191.19,663.55l7.53,51.25-2.84,2.29-.38.16c-5.83-13.87-6.1-33.63-6.1-33.63,2.53-4.71,2.19-8.67.26-11.98l1.53-8.09Z"/>
        <path class="cls-1" d="M190.2,720.49l-.27.09-26.15,4.52-.23-1.33c2.31-.41,4.13-2.37,1.68-8.79,0,0,14.71.7,9.11-10.51,0,0,6.65,1.75,8.06-2.63.98-3.07-.19-5.58-2.4-7.6l5.86-6.62.04.03s-.73,18.39,4.3,32.84Z"/>
        <path class="cls-1" d="M163.55,723.77l.23,1.33-62.14,10.73-.23-.08c2.71-7.96,9.77-18.46,28.08-18.65,7.67-.09,17.31,1.64,29.43,6.11,0,0,2.52.93,4.63.56Z"/>
        <path class="cls-14" d="M180,694.24c2.21,2.02,3.38,4.53,2.4,7.6-1.41,4.38-8.06,2.63-8.06,2.63-5.61-11.21-29.61-8.76-29.61-8.76-2.67-5.44,1.82-7.57,6.88-8.35.19.31.3.47.3.47l28.03,6.48.06-.07Z"/>
        <path class="cls-14" d="M174.34,704.47c5.6,11.21-9.11,10.51-9.11,10.51-2.1-5.49-16.29-7.88-16.29-7.88-4.62-1.45-8.15-1.8-10.85-1.44l-.02-.14c-2.97-4.89,6.66-9.81,6.66-9.81,0,0,24-2.45,29.61,8.76Z"/>
        <path class="cls-14" d="M165.23,714.98c2.45,6.42.63,8.38-1.68,8.79-2.11.37-4.63-.56-4.63-.56-12.12-4.47-21.76-6.2-29.43-6.11h0s-1.07-10.19,8.6-11.44c2.7-.36,6.23-.01,10.85,1.44,0,0,14.19,2.39,16.29,7.88Z"/>
        <path class="cls-14" d="M386.31,694.83c15.76,4.03,5.43,11.39,5.43,11.39-22.25-4.2-33.11,5.78-33.11,5.78,0,0-.2.35-.47.9-10.97-2.09-6.8-9.13-4.26-12.29.78-.97,1.4-1.57,1.4-1.57,0,0,13.78-7.45,28.69-4.72.77.14,1.55.31,2.32.51Z"/>
        <path class="cls-14" d="M391.74,706.22s9.78,3.66,3.49,10.42c-5.68-1.03-26.95-4.26-32.4,3.77-8.28,1.43-5.85-5.06-4.67-7.51.27-.55.47-.9.47-.9,0,0,10.86-9.98,33.11-5.78Z"/>
        <path class="cls-14" d="M396.64,716.91s9.31,3.7,2.47,9.56c-12.73-2.11-27.13,1.54-32.42,3.09,0,0-10.16.13-3.86-9.15,5.45-8.03,26.72-4.8,32.4-3.77.9.16,1.41.27,1.41.27Z"/>
        <path class="cls-14" d="M335.53,729.98c1.58-1.77,3.29-4.15,4.88-7.3,3.34-6.62,6.13-16.65,6.13-31.7l.14-.06c.82,1.9,1.85,3.57,2.87,4.97.25,16.25-1.48,26.61-3.75,33.2-1.3,3.78-2.78,6.32-4.17,8.03-2.8,3.43-5.25,3.54-5.25,3.54l-24.52,13.91-12.79-5.96,30.3-13.84s2.81-1.06,6.16-4.79Z"/>
        <path class="cls-14" d="M241.26,732.67l-9.64,9.64-20.49-4.91c-7.19.78-12.34-2.29-16.03-7.25-2.05-2.75-3.65-6.08-4.9-9.66-5.03-14.45-4.3-32.84-4.3-32.84l-.04-.03,3.54-4s.27,19.76,6.1,33.63c1.28,3.08,2.85,5.86,4.74,8.08,3.36,3.93,7.75,6.08,13.51,4.89l27.51,2.45Z"/>
        <path class="cls-15" d="M356.55,630.95l9.38,31.57c-5.96.44-12,2.65-16.38,8.49-1.1,1.47-1.97,2.91-2.64,4.33l-3.12-10.29-8.23-27.14s11.8,1.74,20.59-6.84l.4-.12Z"/>
        <path class="cls-15" d="M196.65,634.56l-5.42,28.75s-.05-.01-.08-.01l.04.25-1.53,8.09c-3.91-6.72-14.4-10.71-20.86-12.6h0s5.85-29.46,5.85-29.46c0,0,8.93,7.77,22,4.98Z"/>
        <path class="cls-3" d="M424.27,110.07c4.13,28.87-21.12,29.4-25.43,29.29-.06,0-.11,0-.16,0-.1,0-.19-.01-.26-.01-.13-.01-.2-.01-.2-.01,48.88,50.98,5.26,59.04,5.26,59.04-14.89,29.6-46.6,4.2-46.6,4.2-27.68,21.72-48.35-3.15-48.35-3.15,0,0-24.08,14.08-35.17,9.76.58-8.77,8.89-18.17,8.89-18.17,0,0,2.28-3.16,10.34-3.33,8.05-.18,39.41-7.18,44.32-15.94,0,0,25.57,12.61,42.92-9.29,17.34-21.89-2.98-30.3-2.98-30.3,0,0-24.19-.96-25.23,10.68-1.05,11.74-7.71,13.49-7.71,13.49-1.57-1.75,0-7.2,0-7.2-10.51,11.37-18.74,11.93-20.32,11.41,0,0,2.63-24.53,21.37-22.08,0,0-33.1-30.65-25.75-66.57.53-39.67-85.12-16.35-86.26-16.03,0,.18-22.39,8.29-36.71,33.8l-.58-.32s-.01-.01-.02-.03c-.05-.12-.25-.54-.6-1.19-2.57-5.39-11.77-27.82,1.37-49.51,0,0,8.93-5.26,18.66-1.75,0,0,.17-28.03,18.79-31.89,0,0,12.92-.7,22.07,9.11,0,0,76.77-42.74,88.33,23.48,0,0,35.74-6.4,26.63,33.24-9.11,39.63-7.18,33.15-7.18,33.15,46.07-28.9,60.56,6.13,60.56,6.13Z"/>
        <path class="cls-12" d="M394.89,298.04l-7.77-5.92-12.02-9.14-.13-.1c4.33-5.53,10.11-11.19,17.83-16.45h.01c10.35,7.41,19.33,14.17,24.86,19,14.86,12.98,0,21.72,0,21.72l-69.73,65.35c-2.45,4.55-19.97,15.76-19.97,15.76-11.41,2.61-22.48,1.52-27.96.67-2.26-.36-3.57-.67-3.57-.67,0,0,.7-6.65-7.71-19.09,0,0,1.93-5.08,2.98-10.69,1.05-5.6.35-15.24.35-15.24,0,0,3.09.97,7.01,1.26.39-.3.77-.6,1.15-.87,23.03-16.87,28.8,17.13,28.8,17.13,0,0-.17,3.33,4.73-.88,4.91-4.2,61.14-61.84,61.14-61.84Z"/>
        <path class="cls-7" d="M374.97,282.88l.13.1,12.02,9.14h-.01c-9,14.76-17.44,20.99-22.52,24.49-5.08,3.51-6.31,0-6.31,0l-6.93-4.75.1-.15c1.31-35.04,30.41-53.01,30.41-53.01h.01c3.75,2.61,7.42,5.21,10.94,7.72h-.01c-7.72,5.27-13.5,10.93-17.83,16.46Z"/>
        <path class="cls-17" d="M381.87,258.69h-.01s-29.1,17.98-30.41,53.02l-.1.15-44.75-30.63c-7.34-5.03-7.54,4.73-7.54,4.73l1.16,57.67-19.89-40.56-1.01-2.05s10.11-1.44,0-9.72l-.44-.11c2.27-8.91,11.13-40.71,30.26-77.41,0,0,1.88-.05,4.25.42,1.69.34,3.63.94,5.3,2.03,0,0,33.93,22.03,63.18,42.46Z"/>
        <path class="cls-12" d="M253.12,210.65c.43-9.94-10.11-22.97-10.11-22.97,0,0-.61-3.59-27.42-11.57-8.45-2.52-14.65-7.56-19.18-13.29h-.01c-9.84-12.45-11.81-28.13-11.81-28.13.14-5.05.58-9.8,1.28-14.27,1.89-12.32,5.7-22.47,10.37-30.77,14.32-25.51,36.71-33.62,36.71-33.8,1.14-.32,86.79-23.64,86.26,16.03-7.35,35.92,25.75,66.57,25.75,66.57-18.74-2.45-21.37,22.08-21.37,22.08,1.58.52,9.81-.04,20.32-11.41,0,0-1.57,5.45,0,7.2,0,0,6.66-1.75,7.71-13.49,1.04-11.64,25.23-10.68,25.23-10.68,0,0,20.32,8.41,2.98,30.3-17.35,21.9-42.92,9.29-42.92,9.29-4.91,8.76-36.27,15.76-44.32,15.94-8.06.17-10.34,3.33-10.34,3.33,0,0-8.31,9.4-8.89,18.17-.28,4.12,1.15,8.11,5.96,10.91-1.36,7.53-16.52,19.97-25.63,16.64-9.1-3.33-5.25-17.87-5.25-17.87,3.24-2.03,4.55-4.95,4.68-8.21ZM268.87,74.19c6.28.13,18.91-.04,23.19-3.24v-1.63c0-.66-.64-1.12-1.27-.93-5.42,1.62-24.59,2.58-25.55,2.63-1.07.05,0,3.04,0,3.04,0,0,1.42.08,3.63.13ZM281.04,86.47c0-3.53-2.86-6.39-6.39-6.39s-6.39,2.86-6.39,6.39,2.86,6.39,6.39,6.39,6.39-2.86,6.39-6.39ZM242.53,73.72c3.54-3.15-1.71-3.27-1.71-3.27-14.85-1.17-20.1-3.69-21.15-3.69s-.81,1.84-.81,1.84c0,0,18.94,9.32,23.67,5.12ZM237.05,84.65c0-3.53-2.86-6.4-6.39-6.4s-6.4,2.87-6.4,6.4,2.87,6.39,6.4,6.39,6.39-2.86,6.39-6.39Z"/>
        <path class="cls-2" d="M346.37,552.58l-1.78-6.19c9.4-6.59,12.05-1.56,12.05-1.56l8.41,31.54c-5.39,8.55-12.26,14.13-19.44,17.73-7.25,3.64-14.82,5.25-21.52,5.82-6.05.53-11.39.2-15.13-.24-15.44-27.12-6.63-30.67-6.63-30.67l-.43-1.22c6.31,1.17,25.69,2.85,44.47-15.21Z"/>
        <path class="cls-12" d="M345.61,594.1l10.94,36.85-.4.12c-8.79,8.58-20.59,6.84-20.59,6.84l-11.44-37.72-.03-.27c6.7-.57,14.27-2.18,21.52-5.82Z"/>
        <path class="cls-4" d="M169.69,545.87l30.57-158.9v-12.11l-4.38-24.7,4.59-3.98,56.9-49.36.66-.46,3.89,5.58c-11.38,9.91-.47,13.64-.01,13.79h.01c1.15,2.05,3.33,3.42,5.83,3.42s4.68-1.37,5.83-3.41h.01s9.43-3.86,1.52-10.6l2.37-4.12.05-.3c1.14.2,1.79.3,1.79.3l1.01,2.05,19.89,40.56c-.38.27-.76.57-1.15.87-3.92-.29-7.01-1.26-7.01-1.26,0,0,.7,9.64-.35,15.24-1.05,5.61-2.98,10.69-2.98,10.69,8.41,12.44,7.71,19.09,7.71,19.09,0,0,1.31.31,3.57.67l-.24,1.44,44.82,156.02,1.78,6.19c-18.78,18.06-38.16,16.38-44.47,15.21l-2.65-7.53-40.12-113.84c-3.16-5.08-14.37-6.3-14.37-6.3l-21.65,112.46-1.75,9.07h0c-29.44,8.87-47.67-4.9-52.85-9.65l1.18-6.13Z"/>
        <path class="cls-4" d="M313.48,213.78l-.09.42c-2.37-.47-4.25-.42-4.25-.42-19.13,36.7-27.99,68.5-30.26,77.41-.34,1.31-.53,2.13-.59,2.39-9.77-.85-14.46-2.63-16.46-3.68l.09-.18s.08-.71.28-2.06h.01c.88-5.91,4.12-24.09,13.17-48.48h.01c2.3-6.21,4.98-12.81,8.09-19.72h0c.48-1.07.97-2.15,1.47-3.23,0,0,23-10.73,28.52-2.45Z"/>
        <path class="cls-13" d="M301.9,567.79l.43,1.22s-8.81,3.55,6.63,30.67c-3.48-.39-5.58-.89-5.58-.89l-9.46-26.19s-5.6-8.4,4.73-12.13l.6-.21,2.65,7.53Z"/>
        <path class="cls-3" d="M268.87,74.19c-2.21-.05-3.63-.13-3.63-.13,0,0-1.07-2.99,0-3.04.96-.05,20.13-1.01,25.55-2.63.63-.19,1.27.27,1.27.93v1.63c-4.28,3.2-16.91,3.37-23.19,3.24Z"/>
        <path class="cls-7" d="M279.32,220.09l4.16-.63c-3.11,6.91-5.79,13.51-8.09,19.71h-.01c-10.36,12.26-26.94,7.55-26.94,7.55,0,0-14.18-9.72-7.53-28.95l7.53,1.09s-3.85,14.54,5.25,17.87c9.11,3.33,24.27-9.11,25.63-16.64Z"/>
        <path class="cls-18" d="M278.29,293.58c.06-.26.25-1.08.59-2.39l.44.11c10.11,8.28,0,9.72,0,9.72,0,0-.65-.1-1.79-.3-3.23-.58-10.38-2.03-17.66-4.56-1.45-.5-2.45-1.05-3.1-1.6v-.02c-3.72-3.24,4.28-7.05,4.28-7.05l1.15.17c-.2,1.35-.28,2.06-.28,2.06l-.09.18c2,1.05,6.69,2.83,16.46,3.68Z"/>
        <circle class="cls-6" cx="274.65" cy="86.47" r="6.39"/>
        <path class="cls-18" d="M277.53,300.72l-.05.3-2.37,4.12c7.91,6.74-1.52,10.6-1.52,10.6h-.01c.56-.97.87-2.09.87-3.29,0-3.7-3-6.7-6.7-6.7s-6.7,3-6.7,6.7c0,1.19.31,2.31.86,3.28-.46-.15-11.37-3.88.01-13.79l-3.89-5.58-1.26-1.8c.65.55,1.65,1.1,3.1,1.6,7.28,2.53,14.43,3.98,17.66,4.56Z"/>
        <path class="cls-8" d="M274.45,312.45c0,1.2-.31,2.32-.87,3.29-1.15,2.04-3.33,3.41-5.83,3.41s-4.68-1.37-5.83-3.41h-.01c-.55-.98-.86-2.1-.86-3.29,0-3.7,3-6.7,6.7-6.7s6.7,3,6.7,6.7Z"/>
        <path class="cls-17" d="M205.58,289.07l-26.26,17.5h-.01c-20.59-9.54-28.21-47.05-28.21-47.05,18.73-13.25,55.47-38.47,71.94-44.34l17.87,2.59c-6.65,19.23,7.53,28.95,7.53,28.95,0,0,16.58,4.71,26.94-7.54-9.05,24.39-12.29,42.57-13.17,48.48h-.01l-1.15-.17s-8,3.81-4.29,7.05v.02s1.27,1.8,1.27,1.8l-.66.46-56.9,49.36c.65-23.98,2.68-42.74,5.11-57.11Z"/>
        <path class="cls-3" d="M243.01,187.68s10.54,13.03,10.11,22.97c-.75,0-21.76-.52-35.95-13.69,0,0-40.21,29.17-44.67-19.44,0,0-27.59,13.93-37.84-6.57s16.03-44.15,16.03-44.15c0,0-19.45.79-23.39-16.55,0,0,13.47-38.35,67.34-21,0,0-.01-.01-.04-.03l.99-.02.05.1s.02.03.02.03l.58.32c-4.67,8.3-8.48,18.45-10.37,30.77l-.32-.05c-17.04-15.25-19.75,0-19.75,0-1.56,40.81,29.92,42.42,30.6,42.45h.01c4.53,5.73,10.73,10.77,19.18,13.29,26.81,7.98,27.42,11.57,27.42,11.57Z"/>
        <path class="cls-3" d="M240.82,70.45s5.25.12,1.71,3.27c-4.73,4.2-23.67-5.12-23.67-5.12,0,0-.25-1.84.81-1.84s6.3,2.52,21.15,3.69Z"/>
        <path class="cls-6" d="M230.66,78.25c3.53,0,6.39,2.87,6.39,6.4s-2.86,6.39-6.39,6.39-6.4-2.86-6.4-6.39,2.87-6.4,6.4-6.4Z"/>
        <path class="cls-13" d="M222.98,561.15c-.54.18-1.08.35-1.62.5l1.75-9.07s6.94,2.98,6.41,14.02-2.98,24.17-2.98,24.17c0,0-2.53,1.64-6.89,3.32.2-.67,6.84-24.12,3.39-32.75l-.06-.19Z"/>
        <path class="cls-2" d="M168.51,552c5.18,4.75,23.41,18.52,52.85,9.66h0c.54-.16,1.08-.33,1.62-.51l.06.19c3.45,8.63-3.19,32.08-3.39,32.75-4,1.56-9.54,3.14-16.07,3.52-6.48.38-13.94-.43-21.84-3.63-7.6-3.1-15.6-8.41-23.52-17.04l6.31-28.73s2.73-3.93,5.16-2.34l-1.18,6.13Z"/>
        <path class="cls-11" d="M209.88,705.98c1.39,6.62,1.25,11.11,1.25,11.11l-10.87,8.22-1.54-10.51,10.83-8.76.33-.06Z"/>
        <path class="cls-1" d="M209.88,705.98l-.33.06-10.83,8.76-7.53-51.25.04-.24c33.18,3.88,14.46,29.77,14.46,29.77,2.1,4.7,3.39,9.14,4.19,12.9Z"/>
        <path class="cls-12" d="M203.58,597.61v.17s-6.93,36.78-6.93,36.78c-13.07,2.79-22-4.98-22-4.98l7.04-35.48.05-.12c7.9,3.2,15.36,4.01,21.84,3.63Z"/>
        <path class="cls-14" d="M191.23,663.31l-.04.24-.04-.25s.05.01.08.01Z"/>
        <path class="cls-12" d="M184.59,134.69s1.97,15.68,11.81,28.13c-.68-.03-32.16-1.64-30.6-42.45,0,0,2.71-15.25,19.75,0l.32.05c-.7,4.47-1.14,9.22-1.28,14.27Z"/>
        <path class="cls-1" d="M163.78,725.1l26.15-4.52c-42.4,37.32-88.29,15.25-88.29,15.25l62.14-10.73Z"/>
        <path class="cls-1" d="M189.66,671.64c1.93,3.31,2.27,7.27-.26,11.98l-3.54,4-5.86,6.62c-5.66-5.17-18.1-7.12-18.1-7.12,0,0-5.41-.51-10.29.24-2.23-3.61-15.62-27.08,11.87-29.67,0,0,2.18.42,5.32,1.34h0c6.46,1.9,16.95,5.89,20.86,12.61Z"/>
        <path class="cls-14" d="M180,694.24l-.06.07-28.03-6.48s-.11-.16-.3-.47c4.88-.75,10.29-.24,10.29-.24,0,0,12.44,1.95,18.1,7.12Z"/>
        <path class="cls-10" d="M179.31,306.57l-8.83,5.88c-10.81-4.17-18.85-16.56-24-27.25-4.53-9.39-6.83-17.46-6.83-17.46,0,0,4.48-3.28,11.45-8.22,0,0,7.62,37.51,28.21,47.05Z"/>
        <path class="cls-12" d="M146.48,285.2l-23.65,11.62-27.28,13.39c-.31-9.64-5.82-12.4-6.11-12.54l29.99-17.88,20.22-12.05s2.3,8.07,6.83,17.46Z"/>
        <path class="cls-16" d="M95.55,310.21l27.28-13.39c-1.59,2.36,14.72,79.62,14.72,79.62l-5.52,6.57c-74.89,1.84-75.42,44.93-75.42,44.93,0,0-3.67-30.74-5.25-32.84-1.58-2.11-4.21-11.04-3.68-12.35.53-1.32.53-11.65-5.52-25.14,0,0-3.15-15.33-2.63-17.7.53-2.36-12.87-69.47-12.08-84.27,0,0-11.04-11.1-3.16-19.25l44.73-14.72,40.67-1.58,9.74,59.7-29.99,17.88h-.01l-7.59,4.53-.16.03c-.79-4.4-3.65-5.52-6.77-5.28h0c-.02-7.78-8.4-10.8-14-9.75-.3.05-.57.12-.83.19-2.76.78-2.37,4.87.48,5.13,2.78.25,5.77,1.54,4.48,6.16h0c-2.88.09-7.61,3.34-7.61,3.34-1.33.17-2.41.78-2.83,2.13-1.45,4.71-2.16,6.53.97,9.94,0,0,.26,12.02,6.73,14.53-.44,1.49-2.64,10.39,6.92,9.18,1.05,2.34-.68,4.17-2.83,5.46-1.6.96-1.12,3.41.73,3.61,5.69.61,12.69-.54,9.42-11.08,4.9-2.23,6.78-5.29,6.78-5.29,0,0,1.33-2.31.48-3.92h.18c2.77-2.73,2.89-7.28,2.06-11.7l9.51-4.67Z"/>
        <path class="cls-9" d="M109.69,220.09l-40.67,1.58-44.73,14.72c-7.88,8.15,3.16,19.25,3.16,19.25-6.05,10.07-24.44-2.18-24.44-2.18,0,0-7.62-14.45,3.68-18.92,11.3-4.47,15.5-8.15,15.5-8.15,0,0,16.03-12.43,31.27-11.21,0,0,27.07-6.17,32.85-2.47,0,0,22.87,4.22,23.38,7.38Z"/>
        <path class="cls-12" d="M95.55,310.21l-9.51,4.67c-1.19-6.33-4.31-12.38-4.31-12.38-.01-.09-.03-.18-.05-.27l.16-.03,7.59-4.53h.01c.29.14,5.8,2.9,6.11,12.54Z"/>
        <path class="cls-12" d="M74.04,320.16c-1.38,1.11-3.28,1.78-4.94-.65-.8-1.17-1.44-3.01-1.96-5.1-.87-3.52-1.39-7.74-1.66-10.6-.19-1.97-.27-3.29-.27-3.29,0,0,.66-.41,1.71-.96,1.89-.98,5.06-2.4,7.99-2.61,3.12-.24,5.98.88,6.77,5.28.02.09.04.18.05.27,0,0,3.12,6.05,4.31,12.38.83,4.42.71,8.97-2.06,11.69h-.18c-.51-.95-1.79-1.66-4.59-1.49l-.02-.55c.51-.36.7-.57.7-.57,0,0,1.75-5.73-4.57-3.77l-1.28-.03Z"/>
        <path class="cls-12" d="M79.21,325.08c2.8-.17,4.08.54,4.59,1.5.85,1.61-.48,3.92-.48,3.92,0,0-1.88,3.06-6.78,5.29-1.94.88-4.36,1.63-7.32,2.01-9.56,1.21-7.36-7.69-6.92-9.18,1.23.48,2.69.62,4.41.26,7.76-1.61,11.17-3.45,12.48-4.35l.02.55Z"/>
        <path class="cls-12" d="M62.3,328.62c-6.47-2.51-6.73-14.53-6.73-14.53,3.12,5.14,10.01,1.29,11.57.32.52,2.09,1.16,3.93,1.96,5.1,1.66,2.43,3.56,1.76,4.94.65l1.28.03c6.32-1.96,4.57,3.77,4.57,3.77,0,0-.19.21-.7.57-1.31.9-4.72,2.74-12.48,4.35-1.72.36-3.18.22-4.41-.26Z"/>
        <path class="cls-5" d="M76.54,335.79c3.27,10.54-3.73,11.69-9.42,11.08-1.85-.2-2.33-2.65-.73-3.61,2.15-1.29,3.88-3.12,2.83-5.46,2.96-.38,5.38-1.13,7.32-2.01Z"/>
        <path class="cls-5" d="M74.91,296.94h0c-2.93.22-6.1,1.64-7.99,2.62-.37-.66-1.05-.89-1.88-.87h0c1.29-4.63-1.7-5.92-4.48-6.17-2.85-.26-3.24-4.35-.48-5.13.26-.07.53-.14.83-.19,5.6-1.05,13.98,1.97,14,9.74Z"/>
        <path class="cls-12" d="M65.48,303.81c.27,2.86.79,7.08,1.66,10.6-1.56.97-8.45,4.82-11.57-.32-3.13-3.41-2.42-5.23-.97-9.94.42-1.35,1.5-1.96,2.83-2.13,3.13-.4,7.61,1.59,8.05,1.79Z"/>
        <path class="cls-12" d="M65.04,298.69c.83-.02,1.51.21,1.88.87-1.05.55-1.71.96-1.71.96,0,0,.08,1.32.27,3.29-.44-.2-4.92-2.19-8.05-1.79,0,0,4.73-3.25,7.61-3.33Z"/>
        <path class="cls-9" d="M56.61,427.94l-27.06-11.82L3.01,253.46s18.39,12.25,24.44,2.18c-.79,14.8,12.61,81.91,12.08,84.27-.52,2.37,2.63,17.7,2.63,17.7,6.05,13.49,6.05,23.82,5.52,25.14-.53,1.31,2.1,10.24,3.68,12.35,1.58,2.1,5.25,32.84,5.25,32.84Z"/>
      </g>
      <g>
        <path class="cls-19" d="M200.26,725.31l10.87-8.22s.14-4.49-1.25-11.11c-.8-3.76-2.09-8.2-4.19-12.9,0,0,18.72-25.89-14.46-29.77-.03,0-.05-.01-.08-.01"/>
        <path class="cls-19" d="M168.8,659.04c6.46,1.89,16.95,5.88,20.86,12.6,1.93,3.31,2.27,7.27-.26,11.98l-3.54,4-5.86,6.62-.06.07"/>
        <path class="cls-19" d="M151.91,687.83s-.11-.16-.3-.47c-2.23-3.61-15.62-27.08,11.87-29.67,0,0,2.18.42,5.32,1.34"/>
        <path class="cls-19" d="M101.64,735.83s45.89,22.07,88.29-15.25"/>
        <polyline class="cls-19" points="195.88 717.09 198.72 714.8 209.55 706.04"/>
        <path class="cls-19" d="M189.4,683.62s.27,19.76,6.1,33.63c1.28,3.08,2.85,5.86,4.74,8.08,3.36,3.93,7.75,6.08,13.51,4.89l27.51,2.45-9.64,9.64-20.49-4.91c-7.19.78-12.34-2.29-16.03-7.25-2.05-2.75-3.65-6.08-4.9-9.66-5.03-14.45-4.3-32.84-4.3-32.84"/>
        <path class="cls-19" d="M129.49,717.09s-1.07-10.18,8.6-11.43c2.7-.36,6.23-.01,10.85,1.44,0,0,14.19,2.39,16.29,7.88,2.45,6.42.63,8.38-1.68,8.79-2.11.37-4.63-.56-4.63-.56-12.12-4.47-21.76-6.2-29.43-6.11-18.31.19-25.37,10.69-28.08,18.65-1.67,4.9-1.7,8.83-1.7,8.83,0,0,56.41,23.13,95.3-14.36"/>
        <path class="cls-19" d="M165.23,714.98s14.71.7,9.11-10.51c-5.61-11.21-29.61-8.76-29.61-8.76,0,0-9.63,4.92-6.66,9.81"/>
        <path class="cls-19" d="M174.34,704.47s6.65,1.75,8.06-2.63c.98-3.07-.19-5.58-2.4-7.6-5.66-5.17-18.1-7.12-18.1-7.12,0,0-5.41-.51-10.29.24-5.06.78-9.55,2.91-6.88,8.35"/>
        <polyline class="cls-19" points="181.69 594.1 174.65 629.58 168.8 659.03 168.8 659.04"/>
        <polyline class="cls-19" points="203.59 597.78 196.65 634.56 191.23 663.31 191.19 663.55 189.66 671.64 189.58 672.06"/>
        <path class="cls-19" d="M223.11,552.58s6.94,2.98,6.41,14.02-2.98,24.17-2.98,24.17c0,0-2.53,1.64-6.89,3.32-4,1.56-9.54,3.14-16.07,3.52-6.48.38-13.94-.43-21.84-3.63-7.6-3.1-15.6-8.41-23.52-17.04l6.31-28.73s2.73-3.93,5.16-2.34l.09.06"/>
        <polyline class="cls-19" points="168.51 552 169.69 545.87 200.26 386.97 200.26 374.86 195.88 350.16 200.47 346.18 257.37 296.82"/>
        <path class="cls-19" d="M221.36,561.65l1.75-9.07,21.65-112.46s11.21,1.22,14.37,6.3l40.12,113.84,2.65,7.53.43,1.22"/>
        <line class="cls-19" x1="221.29" y1="562.04" x2="221.36" y2="561.66"/>
        <polyline class="cls-19" points="299.77 390.37 344.59 546.39 346.37 552.58"/>
        <path class="cls-19" d="M166.98,550.48s.51.59,1.53,1.52c5.18,4.75,23.41,18.52,52.85,9.66h0c.54-.16,1.08-.33,1.62-.51.83-.27,1.66-.55,2.51-.86"/>
        <path class="cls-19" d="M219.65,594.1h0c.2-.68,6.84-24.13,3.39-32.76"/>
        <path class="cls-19" d="M299.77,567.3s.76.23,2.13.49c6.31,1.17,25.69,2.85,44.47-15.21.7-.67,1.4-1.37,2.1-2.1"/>
        <path class="cls-19" d="M298.65,560.47c-10.33,3.73-4.73,12.13-4.73,12.13l9.46,26.19s2.1.5,5.58.89c3.74.44,9.08.77,15.13.24,6.7-.57,14.27-2.18,21.52-5.82,7.18-3.6,14.05-9.18,19.44-17.73l-8.41-31.54s-2.65-5.03-12.05,1.56c-.05.03-.1.06-.15.1"/>
        <path class="cls-19" d="M302.33,569.01s-8.81,3.55,6.63,30.67h0"/>
        <polyline class="cls-19" points="324.12 600.19 335.56 637.91 343.79 665.05 346.91 675.34 346.93 675.4"/>
        <polyline class="cls-19" points="345.61 594.1 356.55 630.95 365.93 662.52"/>
        <path class="cls-19" d="M335.77,730.22l-.24-.24-8.61-8.69s-1.4-5.79.7-10.69l11.74,11.56"/>
        <path class="cls-19" d="M364.59,730.22s.76-.26,2.1-.66c5.29-1.55,19.69-5.2,32.42-3.09,9.64,1.6,18.32,6.5,21.36,18.11v10.52c-46.8,25.82-76.41-14.5-78.84-17.98-.12-.16-.17-.24-.17-.24"/>
        <path class="cls-19" d="M345.61,728.82s.06.09.19.27c2.53,3.44,29.97,38.84,74.67,15.49"/>
        <path class="cls-19" d="M349.55,695.71v.18c.25,16.25-1.48,26.61-3.75,33.2-1.3,3.78-2.78,6.32-4.17,8.03-2.8,3.43-5.25,3.54-5.25,3.54l-24.52,13.91-12.79-5.96,30.3-13.84s2.81-1.06,6.16-4.79c1.58-1.77,3.29-4.15,4.88-7.3,3.34-6.62,6.13-16.65,6.13-31.7"/>
        <path class="cls-19" d="M353.9,700.61s-2.16-1.73-4.35-4.72c-1.02-1.4-2.05-3.07-2.87-4.97-1.83-4.25-2.58-9.64.23-15.58.67-1.42,1.54-2.86,2.64-4.33,4.38-5.84,10.42-8.05,16.38-8.49,10.68-.8,21.08,4.11,21.08,4.11,0,0,9.63,5.25-2.98,27.5"/>
        <path class="cls-19" d="M327.62,710.6s1.05-11.56,4.03-15.42c0,0-15.49-28.9,12.14-30.13"/>
        <path class="cls-19" d="M334.1,671.01s-7.25,5.25,1.46,6.83c0,0,3.45,1.79,9.84,1.95"/>
        <path class="cls-19" d="M366.69,729.56s-10.16.13-3.86-9.15c5.45-8.03,26.72-4.8,32.4-3.77.9.16,1.41.27,1.41.27,0,0,9.31,3.7,2.47,9.56"/>
        <path class="cls-19" d="M362.83,720.41c-8.28,1.43-5.85-5.06-4.67-7.51.27-.55.47-.9.47-.9,0,0,10.86-9.98,33.11-5.78,0,0,9.78,3.66,3.49,10.42"/>
        <path class="cls-19" d="M358.16,712.9c-10.97-2.09-6.8-9.13-4.26-12.29.78-.97,1.4-1.57,1.4-1.57,0,0,13.78-7.45,28.69-4.72.77.14,1.55.31,2.32.51,15.76,4.03,5.43,11.39,5.43,11.39"/>
        <path class="cls-19" d="M335.56,637.91s11.8,1.74,20.59-6.84"/>
        <path class="cls-19" d="M174.65,629.58s8.93,7.77,22,4.98"/>
        <line class="cls-19" x1="238.98" y1="446.42" x2="224.03" y2="527.36"/>
        <line class="cls-19" x1="265.1" y1="448.53" x2="295.56" y2="534.89"/>
        <path class="cls-19" d="M299.06,344.51h0c.39-.31.77-.61,1.15-.88,23.03-16.87,28.8,17.13,28.8,17.13,0,0-.17,3.33,4.73-.88,4.91-4.2,61.14-61.84,61.14-61.84,0,0,1.58-3.32,8.94-4.37"/>
        <path class="cls-19" d="M293.11,357.61s-1.23,6.13,3.33,7.18c0,0-2.28,11.56,2.62,16.64"/>
        <polyline class="cls-19" points="375.1 282.98 387.12 292.12 394.89 298.04"/>
        <path class="cls-19" d="M361.96,314.34s.21-15.14,13.01-31.46c4.33-5.53,10.11-11.19,17.83-16.45"/>
        <path class="cls-19" d="M381.86,258.7s-29.1,17.97-30.41,53.01"/>
        <path class="cls-19" d="M280.33,303.07l19.89,40.56-1.16-57.67s.2-9.76,7.54-4.73l44.75,30.63,6.93,4.75s1.23,3.51,6.31,0c5.08-3.5,13.52-9.73,22.52-24.48"/>
        <path class="cls-19" d="M261.91,315.73c-.55-.97-.86-2.09-.86-3.28,0-3.7,3-6.7,6.7-6.7s6.7,3,6.7,6.7c0,1.2-.31,2.32-.87,3.29-1.15,2.04-3.33,3.41-5.83,3.41s-4.68-1.37-5.83-3.41"/>
        <path class="cls-19" d="M256.77,294.56c.65.55,1.65,1.1,3.1,1.6,7.28,2.53,14.43,3.98,17.66,4.56,1.14.2,1.79.3,1.79.3,0,0,10.11-1.44,0-9.72"/>
        <path class="cls-19" d="M261.05,287.49s-8,3.81-4.29,7.05"/>
        <path class="cls-19" d="M261.92,315.74h-.01c-.46-.16-11.37-3.89.01-13.8l-3.89-5.58-1.26-1.8v-.02"/>
        <path class="cls-19" d="M273.59,315.74s9.43-3.86,1.52-10.6l2.37-4.12"/>
        <path class="cls-19" d="M283.49,219.46c.48-1.07.97-2.15,1.47-3.23,0,0,23-10.73,28.52-2.45"/>
        <path class="cls-19" d="M275.39,239.17c2.3-6.2,4.98-12.8,8.09-19.71"/>
        <path class="cls-19" d="M261.92,289.72s.08-.71.28-2.06h.01c.88-5.91,4.12-24.09,13.17-48.48"/>
        <path class="cls-19" d="M278.27,293.67s.01-.03.02-.09c.06-.26.25-1.08.59-2.39,2.27-8.91,11.13-40.71,30.26-77.41,0,0,1.88-.05,4.25.42,1.69.34,3.63.94,5.3,2.03,0,0,33.93,22.03,63.18,42.46,3.75,2.62,7.42,5.22,10.94,7.73,10.35,7.42,19.33,14.18,24.86,19.01,14.86,12.98,0,21.72,0,21.72l-69.73,65.35c-2.45,4.55-19.97,15.76-19.97,15.76-11.41,2.61-22.48,1.52-27.96.67-2.26-.36-3.57-.67-3.57-.67,0,0,.7-6.65-7.71-19.09,0,0,1.93-5.08,2.98-10.69,1.05-5.6.35-15.24.35-15.24,0,0,3.09.97,7.01,1.26,1.83.14,3.83.12,5.78-.21"/>
        <path class="cls-19" d="M260.53,289.07s.35.33,1.3.83c2,1.05,6.69,2.83,16.46,3.68.34.03.68.06,1.03.09"/>
        <path class="cls-19" d="M217.17,248.73s-6.63,11.08-11.59,40.34c-2.43,14.37-4.46,33.13-5.11,57.11"/>
        <line class="cls-19" x1="179.32" y1="306.57" x2="205.58" y2="289.07"/>
        <path class="cls-19" d="M283.49,219.46h0l-4.16.63c-1.36,7.53-16.52,19.97-25.63,16.64-9.1-3.33-5.25-17.87-5.25-17.87l-7.53-1.09-17.87-2.59c-16.47,5.87-53.21,31.09-71.94,44.34-6.97,4.94-11.45,8.22-11.45,8.22,0,0,2.3,8.07,6.83,17.46,5.15,10.69,13.19,23.08,24,27.25l8.83-5.88"/>
        <path class="cls-19" d="M240.91,217.77c-6.65,19.23,7.53,28.95,7.53,28.95,0,0,16.58,4.71,26.94-7.54h.01"/>
        <path class="cls-19" d="M349.52,156.32s16.12-10.51,24.7-6.13"/>
        <path class="cls-19" d="M279.32,220.09c-4.81-2.8-6.24-6.79-5.96-10.91.58-8.77,8.89-18.17,8.89-18.17,0,0,2.28-3.16,10.34-3.33,8.05-.18,39.41-7.18,44.32-15.94,0,0,25.57,12.61,42.92-9.29,17.34-21.89-2.98-30.3-2.98-30.3,0,0-24.19-.96-25.23,10.68-1.05,11.74-7.71,13.49-7.71,13.49-1.57-1.75,0-7.2,0-7.2-10.51,11.37-18.74,11.93-20.32,11.41,0,0,2.63-24.53,21.37-22.08,0,0-33.1-30.65-25.75-66.57"/>
        <path class="cls-19" d="M398.84,139.36c4.31.11,29.56-.42,25.43-29.29,0,0-14.49-35.03-60.56-6.13,0,0,5.08-15.24,15.07-16.11"/>
        <path class="cls-19" d="M398.42,139.34c.07.01.16.01.26.01"/>
        <path class="cls-19" d="M273.36,209.18c11.09,4.32,35.17-9.76,35.17-9.76,0,0,20.67,24.87,48.35,3.15,0,0,31.71,25.4,46.6-4.2,0,0,43.62-8.06-5.26-59.04"/>
        <path class="cls-19" d="M420.47,154.75s-.53-5.96-22.25-15.42c0,0,.07,0,.2.01.07,0,.16.01.26.01.05,0,.1,0,.16,0,3.23.17,18.19,1.21,21.63,5.58"/>
        <path class="cls-19" d="M253.14,210.65h-.02c-.75,0-21.76-.52-35.95-13.69,0,0-40.21,29.17-44.67-19.44"/>
        <path class="cls-19" d="M195.66,89.33s-.01-.01-.02-.03l-.05-.1c-.09-.18-.29-.55-.55-1.09-2.57-5.39-11.77-27.82,1.37-49.51,0,0,8.93-5.26,18.66-1.75,0,0,.17-28.03,18.79-31.89,0,0,12.92-.7,22.07,9.11,0,0,76.77-42.74,88.33,23.48,0,0,35.74-6.4,26.63,33.24-9.11,39.63-7.18,33.15-7.18,33.15"/>
        <path class="cls-19" d="M177.23,71.88c10.58,4.45,16.07,13.05,17.81,16.23.35.65.55,1.07.6,1.19"/>
        <path class="cls-19" d="M196.4,162.82c-9.84-12.45-11.81-28.13-11.81-28.13.14-5.05.58-9.8,1.28-14.27,1.89-12.32,5.7-22.47,10.37-30.77,14.32-25.51,36.71-33.62,36.71-33.8,1.14-.32,86.79-23.64,86.26,16.03"/>
        <path class="cls-19" d="M248.44,218.86c3.24-2.03,4.55-4.95,4.68-8.21.43-9.94-10.11-22.97-10.11-22.97,0,0-.61-3.59-27.42-11.57-8.45-2.52-14.65-7.56-19.18-13.29"/>
        <path class="cls-19" d="M224.26,131.01s35.22.52,56.76-18.92"/>
        <path class="cls-19" d="M131.24,141.12s6.18-12.48,19.45-14.32"/>
        <path class="cls-19" d="M173.94,199.07s-6.04-4.08-1.44-21.55c0,0-27.59,13.93-37.84-6.57s16.03-44.15,16.03-44.15c0,0-19.45.79-23.39-16.55,0,0,13.47-38.35,67.34-21,0,0-.01-.01-.04-.03-.74-.7-12.82-11.86-26.31-13.13"/>
        <path class="cls-19" d="M196.41,162.82h-.01c-.68-.03-32.16-1.64-30.6-42.45,0,0,2.71-15.25,19.75,0"/>
        <path class="cls-19" d="M173.94,129.56s7.62,3.68,9.46,9.33"/>
        <path class="cls-19" d="M232.02,105.78s-.45-2.62-.16-5.65c.63-6.52,4.7-14.94,24.07-3.28"/>
        <path class="cls-19" d="M233.86,103.42s4.33,2.36,3.94,4.07"/>
        <path class="cls-19" d="M247.39,107.49s3.15-5.12,6.3-2.89"/>
        <path class="cls-19" d="M211.78,94.35s7.31,8.8,20.08,5.78"/>
        <path class="cls-19" d="M215.07,75.43s6.04-5.78,9.19-4.2"/>
        <path class="cls-19" d="M242.53,73.72c-4.73,4.2-23.67-5.12-23.67-5.12,0,0-.25-1.84.81-1.84s6.3,2.52,21.15,3.69c0,0,5.25.12,1.71,3.27Z"/>
        <path class="cls-19" d="M242.4,77.14s-.94-2.32-2.5-2.33"/>
        <path class="cls-19" d="M265.24,77.14s2.14-2.39,3.63-2.95c.32-.13.62-.16.85-.07"/>
        <path class="cls-19" d="M287.59,73.19s5.13,1.32,6.05,3.95"/>
        <path class="cls-19" d="M292.06,69.32v1.63c-4.28,3.2-16.91,3.37-23.19,3.24-2.21-.05-3.63-.13-3.63-.13,0,0-1.07-2.99,0-3.04.96-.05,20.13-1.01,25.55-2.63.63-.19,1.27.27,1.27.93Z"/>
        <path class="cls-19" d="M265.91,98.41s13.01,13.94,27.73-2.61"/>
        <path class="cls-19" d="M237.05,84.65c0,3.53-2.86,6.39-6.39,6.39s-6.4-2.86-6.4-6.39,2.87-6.4,6.4-6.4,6.39,2.87,6.39,6.4Z"/>
        <circle class="cls-19" cx="274.65" cy="86.47" r="6.39"/>
        <path class="cls-19" d="M151.1,259.52s7.62,37.51,28.21,47.05h.01"/>
        <polyline class="cls-19" points="86.04 314.88 95.55 310.21 122.83 296.82 146.48 285.2"/>
        <line class="cls-19" x1="89.43" y1="297.67" x2="81.84" y2="302.2"/>
        <polyline class="cls-19" points="139.65 267.74 119.43 279.79 89.44 297.67"/>
        <path class="cls-19" d="M122.83,296.82c-1.59,2.36,14.72,79.62,14.72,79.62l-5.52,6.57c-74.89,1.84-75.42,44.93-75.42,44.93l-27.06-11.82L3.01,253.46s-7.62-14.45,3.68-18.92c11.3-4.47,15.5-8.15,15.5-8.15,0,0,16.03-12.43,31.27-11.21,0,0,27.07-6.17,32.85-2.47,0,0,22.87,4.22,23.38,7.38l9.74,59.7"/>
        <path class="cls-19" d="M3.01,253.46s18.39,12.25,24.44,2.18c0,0-11.04-11.1-3.16-19.25l44.73-14.72,40.67-1.58"/>
        <path class="cls-19" d="M56.61,427.94s-3.67-30.74-5.25-32.84c-1.58-2.11-4.21-11.04-3.68-12.35.53-1.32.53-11.65-5.52-25.14,0,0-3.15-15.33-2.63-17.7.53-2.36-12.87-69.47-12.08-84.27"/>
        <path class="cls-19" d="M62.36,328.41l-.06.21c-.44,1.49-2.64,10.39,6.92,9.18,2.96-.38,5.38-1.13,7.32-2.01,4.9-2.23,6.78-5.29,6.78-5.29,0,0,1.33-2.31.48-3.92-.51-.96-1.79-1.67-4.59-1.5-.04.01-.08.01-.12.01"/>
        <path class="cls-19" d="M67.46,314.21s-.11.08-.32.2c-1.56.97-8.45,4.82-11.57-.32,0,0,.26,12.02,6.73,14.53,1.23.48,2.69.62,4.41.26,7.76-1.61,11.17-3.45,12.48-4.35.51-.36.7-.57.7-.57,0,0,1.75-5.73-4.57-3.77"/>
        <path class="cls-19" d="M65.52,303.83s-.01-.01-.04-.02c-.44-.2-4.92-2.19-8.05-1.79-1.33.17-2.41.78-2.83,2.13-1.45,4.71-2.16,6.53.97,9.94"/>
        <path class="cls-19" d="M72.88,303.5c4.43,9.79,3.11,14.49,3.11,14.49,0,0-.8,1.24-1.95,2.17-1.38,1.11-3.28,1.78-4.94-.65-.8-1.17-1.44-3.01-1.96-5.1-.87-3.52-1.39-7.74-1.66-10.6-.19-1.97-.27-3.29-.27-3.29,0,0,.66-.41,1.71-.96,1.89-.98,5.06-2.4,7.99-2.61,3.12-.24,5.98.88,6.77,5.28.02.09.04.18.05.27,0,0,3.12,6.05,4.31,12.38.83,4.42.71,8.97-2.06,11.69"/>
        <path class="cls-19" d="M57.43,302.02s4.73-3.25,7.61-3.33c.83-.02,1.51.21,1.88.87"/>
        <path class="cls-19" d="M65.04,298.68c1.29-4.62-1.7-5.91-4.48-6.16-2.85-.26-3.24-4.35-.48-5.13.26-.07.53-.14.83-.19,5.6-1.05,13.98,1.97,14,9.74"/>
        <path class="cls-19" d="M89.43,297.67h.01c.29.14,5.8,2.9,6.11,12.54h0"/>
        <path class="cls-19" d="M76.54,335.79c3.27,10.54-3.73,11.69-9.42,11.08-1.85-.2-2.33-2.65-.73-3.61,2.15-1.29,3.88-3.12,2.83-5.46"/>
      </g>
    </g>
  </g>
</svg>