<?xml version="1.0" encoding="UTF-8"?>
<svg id="Calque_2" data-name="Calque 2" xmlns="http://www.w3.org/2000/svg" viewBox="0 0 369.98 652.25">
  <defs>
    <style>
      .cls-1 {
        fill: #7ac9d6;
      }

      .cls-1, .cls-2, .cls-3, .cls-4, .cls-5, .cls-6, .cls-7, .cls-8, .cls-9, .cls-10, .cls-11, .cls-12, .cls-13, .cls-14, .cls-15 {
        stroke-width: 0px;
      }

      .cls-2 {
        fill: #38bbd0;
      }

      .cls-3 {
        fill: #7ea1ad;
      }

      .cls-5 {
        fill: #e52421;
      }

      .cls-6 {
        fill: #5091ad;
      }

      .cls-7 {
        fill: #199738;
      }

      .cls-16 {
        fill: none;
        stroke: #040202;
        stroke-miterlimit: 10;
      }

      .cls-8 {
        fill: #fff;
      }

      .cls-9 {
        fill: #d9b59f;
      }

      .cls-10 {
        fill: #fefbe2;
      }

      .cls-11 {
        fill: #33bacf;
      }

      .cls-12 {
        fill: #e67440;
      }

      .cls-13 {
        fill: #e97e58;
      }

      .cls-14 {
        fill: #bc7814;
      }

      .cls-15 {
        fill: #e58567;
      }
    </style>
  </defs>
  <g id="Calque_1-2" data-name="Calque 1">
    <g>
      <g>
        <path class="cls-8" d="M205.59,139.18c9.9-2.75,34.81-9.12,37.31-4.36-1.05,3.67-34.49,9.19-34.49,9.19l-2.82-4.83Z"/>
        <path class="cls-8" d="M332.71,555.17c1.68,4.4,2.02,7.73,1.59,10.28l-.21-.04c-4.1-.15-9.31.78-13.36,2.28l-.04-.09c-.79.26-3.21-.28-6.4-1.23,8.38-6.33,3.91-14.72,3.7-15.11,5.17,1.87,10.13,3.27,13.38,3.27l1.34.64Z"/>
        <path class="cls-8" d="M336.8,608.29c8.15.92,2.1,6.26,2.1,6.26,0,0-4.12,1.6-9.15.47-.1-.02-.21-.04-.31-.07-5.16-1.27-1.05-5.43-1.05-5.43,0,0,.08-.66,1.54-1.09.92.03,2.16-.03,3.57-.37.93.02,2.02.09,3.3.23Z"/>
        <path class="cls-8" d="M335.36,599.88c4.64.61,6.39,4.12,1.79,6.75-1.27.72-2.51,1.17-3.65,1.43-1.69-.02-2.82.14-3.57.37-1.04-.03-1.67-.18-1.67-.18,0,0-4.38-1.89-1.01-5.57,0,0,.93-.92,2.48-1.71,1.43-.75,3.39-1.38,5.63-1.09Z"/>
        <path class="cls-8" d="M338.38,592.11s1.71,3-1.62,4.62c-2.66,1.3-5.86,2.2-7.03,2.51h0c-.29.08-.46.12-.46.12,0,0-7.76,1.48-4.1-5.7,0,0,1.72-1.45,4.14-2.37,1.17-.45,2.51-.77,3.9-.74,4.25.09,5.17,1.56,5.17,1.56Z"/>
        <path class="cls-8" d="M325.31,584.33c.98-.92,2.36-1.85,4.17-2.29.62-.15,1.29-.24,2.02-.25,5.65-.08,9.06,2.24,2.45,6.92-1.77,1.26-3.33,2.03-4.67,2.49-3.63,1.26-5.57.18-5.57.18,0,0-3.9-2.36-.31-4.64,0,0,.61-1.2,1.91-2.41Z"/>
        <path class="cls-8" d="M125.79,605.97c.71,2.32.73,3.98.37,5.18-.88,3.05-4.13,3.06-4.13,3.06,0,0-4.12-1.23-3.24-5.44.87-4.2-3.33-7.43-3.33-7.43.01-.54.07-1,.15-1.39.49-2.36,2.04-2.13,2.04-2.13,0,0,3.22-.05,5.88,3.53.86,1.13,1.65,2.63,2.26,4.62Z"/>
        <path class="cls-8" d="M130.73,600.72c3.61,4.99,2.51,13.49,2.51,13.49,0,0-4.84,2.44-6.84-2.99l-.24-.07c.36-1.2.34-2.86-.37-5.18-.61-1.99-1.4-3.49-2.26-4.62h0s2.17-6.24,6.55-1.43c.23.25.44.51.63.79h.01Z"/>
        <path class="cls-8" d="M143.6,610.35c.17,2.44-.05,8.27-7.21,2.54,0,0-3.1-9.83-5.66-12.17h-.01s2.43-4.65,7.07-.45c4.65,4.21,5.7,9.11,5.7,9.11,0,0,.06.39.11.97Z"/>
        <path class="cls-8" d="M152.77,608.33s3.33,11.92-6.13,5.17l-3.01-3.15h-.03c-.05-.58-.11-.97-.11-.97,0,0-1.05-4.9-5.7-9.11,0,0,5.05-5.8,9.05-.35.08.11.16.23.24.35,1.77,2.65,3.08,4.52,3.99,5.79,1.17,1.63,1.7,2.27,1.7,2.27Z"/>
        <path class="cls-8" d="M179.05,599.86l-5.35,14.35h0c-3.42-.42-8.02-1.09-11.56-2.29.02-.28.33-5.5-.33-10.58l2.76-6.84s5.55,9.37,13.95,5.16l.53.2Z"/>
        <path class="cls-10" d="M358.26,546.32c4.64,26.68-8.58,86.89-12.79,88.82-4.2,1.92-39.24,0-39.24,0,0,0-1.92-1.41,0-5.78l35.39.17s14.71-27.15,10.34-83.21c0,0,5.62-3.91,6.3,0Z"/>
        <path class="cls-14" d="M255.61,54.09c.03.15.2.97.55,2.28.05,5.15-7.07,10.68-13.01,8.55-3.44-1.24-6.69-5.56-9.15-9.72-2.56,1.71-23.27,15.79-39.92,34.52,0,0-18.88-19.02,8.27-36.19,0,0-44.5-44.5,28.55-32.23,0,0-10.33-11.92-9.81-17.35.53-5.43,33.55-9.81,64.25,31.01,0,0,.79-32.98,10.51,0,0,0,13.14-15.37,9.46,7.75,0,0,18.43,6.97,20.27,8.85-.3.53-.33.73.1.35.09-.08.05-.2-.1-.35,1.02-1.82,5.18-7.49,5.18-7.49,12.61-7.01,7.36,5.61,7.36,5.61,40.64,8.05,14.71,30.13,14.71,30.13,42.4,66.57-9.55,72.87-9.55,72.87,3.42,45.72-30.48,29.96-30.48,29.96-8.67,28.64-28.95,5.59-28.95,5.59,8.18-2.24,14.24-4.01,14.24-4.01,0,0-31.97-8.94-12.53-27.51,0,0,15.13-3.74,10.86-5.95-14.89-7.71,2.81-23.48,2.81-23.48-47.48,7.54-2.63-24.52-2.63-24.52-28.5-8.81-38.2-37.95-40.44-46.39-.01-.78-.18-1.55-.55-2.28Z"/>
        <path class="cls-5" d="M351.96,546.32c4.37,56.06-10.34,83.21-10.34,83.21l-35.39-.17s4.21-10.34,20.15-10.69c0,0-.09-3.02,1.79-1.93l1.56-1.61.02-.11c5.03,1.13,9.15-.47,9.15-.47,0,0,6.05-5.34-2.1-6.26-1.28-.14-2.37-.21-3.3-.23,1.14-.26,2.38-.71,3.65-1.43,4.6-2.63,2.85-6.14-1.79-6.75-2.24-.29-4.2.34-5.63,1.09v-1.72h0c1.17-.32,4.37-1.22,7.03-2.52,3.33-1.62,1.62-4.62,1.62-4.62,0,0-.92-1.47-5.17-1.56-1.39-.03-2.73.29-3.9.74l-.03-.09c1.34-.46,2.9-1.23,4.67-2.49,6.61-4.68,3.2-7-2.45-6.92-.73.01-1.4.1-2.02.25-1.21-1.04-6.7-5.99-3.1-7.87,2.6-1.35,7.01-3.29,7.92-8.72.43-2.55.09-5.88-1.59-10.28-.29-.76-.62-1.55-.99-2.37,0,0-6.48-4.99-1.22-5.82,5.25-.84,19.05-2.54,21.46-.66Z"/>
        <path class="cls-5" d="M334.09,565.41l.21.04c-.91,5.43-5.32,7.37-7.92,8.72-3.6,1.88,1.89,6.83,3.1,7.87-1.81.44-3.19,1.37-4.17,2.29-.18-.42-1.86-3.89-9-8.62-4.38-2.9-1.04-5.98,4.42-8.02,4.05-1.5,9.26-2.43,13.36-2.28Z"/>
        <path class="cls-12" d="M295.02,341.27c-7.29,1.92-15.72,3.55-25.45,4.82l-.19.18c-9.92-10.42-12.93-20.01-13.78-25.94h.01l23.29-13.84c1.68-1,3.38-1.84,5.09-2.53-3.15-2.72-1.23-4.47-1.23-4.47,0,0,3.85-4.03,2.06-4.74-1.78-.7-19.01-48.1-19.33-48.98,3.33,3.22,6.38,6.42,6.76,7.64,0,0,.66-24.83-4-40.18l49.9,52.27s56.02,54.94-23.13,75.77Z"/>
        <path class="cls-9" d="M317.99,551.26c.21.39,4.68,8.78-3.7,15.11-9.62-2.88-26.22-9.55-26.22-9.55,4.69-5.22,7.26-10.29,8.56-14.83,0,0,11.08,5.56,21.36,9.27Z"/>
        <path class="cls-3" d="M282.21,523.91c-1.45-.95-2.86-2.01-4.23-3.18,0,0,2.24-4.89,7.76-1.21,5.51,3.67,10.24,4.46,10.24,4.46,0,0,3.64,7.6.65,18.01-1.3,4.54-3.87,9.61-8.56,14.83-1.64,1.83-3.55,3.68-5.75,5.53,0,0-6.04-.53-13.14-2.89-7.09-2.37-2.48-9.88-2.48-9.88,1.77,1.03,3.49,1.8,5.11,2.26l.21.22c3.76-3.45,9.24-11.3,10.19-28.15Z"/>
        <path class="cls-9" d="M204.57,81.98s.04-.04.07-.07c1.07-.91,10.57-8.65,21.71-7.53l1.18-3.02c-6.88-4.14-21.54,9.29-22.89,10.55-.03.02-.05.04-.07.07ZM296.42,150.76c4.27,2.21-10.86,5.95-10.86,5.95-19.44,18.57,12.53,27.51,12.53,27.51,0,0-6.06,1.77-14.24,4.01-4.78,1.3-10.29,2.77-15.72,4.13-6.17,1.54-8.27,5.3-8.64,9.14-.5,5.33,2.33,10.83,2.33,10.83l-1.31,12.35s-3.48,4.14-7.03,6.51c-3.55,2.36-9.66.92-9.66.92-3.49-.17-3.72-3.65-3.43-6.13.16-1.4.48-2.48.48-2.48l2.58-5.81c1.2-2.32.69-5.23-.64-8.21-3.36-7.5-11.97-15.44-11.97-15.44,0,0-55.44-19.71-58.07-58.33-1.08-15.8,9.01-32.17,21.31-45.99,16.65-18.73,37.36-32.81,39.92-34.52,2.46,4.16,5.71,8.48,9.15,9.72,5.94,2.13,13.06-3.4,13.01-8.55,2.24,8.44,11.94,37.58,40.44,46.39,0,0-44.85,32.06,2.63,24.52,0,0-17.7,15.77-2.81,23.48ZM267.47,88.83s-.78-11.04-21.15-18.92v2.36c16.56,6.57,21.15,16.56,21.15,16.56ZM216.63,152.42c9.72-2.36,28.9-12.61,26.27-17.6-2.5-4.76-27.41,1.61-37.31,4.36-2.49.69-4.03,1.15-4.03,1.15,0,0,5.34,14.46,15.07,12.09Z"/>
        <path class="cls-13" d="M255.6,320.33c.85,5.93,3.86,15.52,13.78,25.94l.19-.18c9.73-1.27,18.16-2.9,25.45-4.82v8.32c-1.27.91-2.55,1.77-3.85,2.58-2.36,1.48-4.76,2.79-7.18,3.95-2.76,1.32-5.54,2.46-8.31,3.42-2.5.88-4.99,1.61-7.44,2.23-3.14.79-6.21,1.39-9.17,1.84-2.75.42-5.4.71-7.91.89-3.01.23-5.82.31-8.35.31-8.2-.01-13.53-.93-13.53-.93,1.88-11.93,3.8-23.11,5.72-33.53,8.41-45.72,16.74-76.87,21.49-92.93.59.52,4.99,4.45,9,8.34h0c.32.89,17.55,48.29,19.33,48.99,1.79.71-2.06,4.74-2.06,4.74,0,0-1.92,1.75,1.23,4.47-1.71.69-3.41,1.53-5.09,2.53l-23.29,13.84h-.01Z"/>
        <path class="cls-15" d="M291.17,352.17v17.39c-2,1.6-4.12,3.02-6.35,4.27l-.83-17.71c2.42-1.16,4.82-2.47,7.18-3.95Z"/>
        <path class="cls-15" d="M283.99,356.12l.83,17.71c-1.39.79-2.82,1.5-4.28,2.16-1.03.47-2.07.91-3.13,1.31l-1.73-17.76c2.77-.96,5.55-2.1,8.31-3.42Z"/>
        <path class="cls-6" d="M205.61,457.21c12.58-37.69,25.33-74.8,26.77-74.8h0c2.7.22,6.29.42,10.43.44,2.72.01,5.68-.06,8.79-.27,2.79-.19,5.71-.48,8.68-.92,3.07-.45,6.19-1.05,9.29-1.86,2.65-.68,5.28-1.5,7.84-2.5,1.06-.4,2.1-.84,3.13-1.31,1.09,1.31-17.53,44.63-36.14,87.01-6.46,14.7-12.92,29.28-18.55,41.96-10.15,22.86-17.63,39.52-17.63,39.52l-.61.86c-.6-.42-1.19-.81-1.78-1.18-10.5-6.66-20.55-8.26-25.99-8.59v-.03s12.79-39.47,25.77-78.33Z"/>
        <path class="cls-6" d="M277.98,520.73c1.37,1.17,2.78,2.23,4.23,3.18-.95,16.85-6.43,24.7-10.19,28.15l-.21-.22c-1.62-.46-3.34-1.23-5.11-2.26-17.48-10.1-40.85-44.62-40.85-44.62,5.63-12.68,12.09-27.26,18.55-41.96,0,0,12.75,40.12,33.58,57.73Z"/>
        <path class="cls-15" d="M275.68,359.54l1.73,17.76c-2.56,1-5.19,1.82-7.84,2.5l-1.33-18.03c2.45-.62,4.94-1.35,7.44-2.23Z"/>
        <path class="cls-13" d="M268.25,213.23c4.66,15.35,4,40.18,4,40.18-.38-1.22-3.43-4.42-6.76-7.64h0c-4.01-3.9-8.41-7.83-9-8.35,2.51-8.47,4.02-12.74,4.02-12.74l1.31-12.35s-2.83-5.5-2.33-10.83h.01c4.07.79,6.85,5.47,8.74,11.72h.01Z"/>
        <path class="cls-15" d="M268.24,361.77l1.33,18.03c-3.1.81-6.22,1.41-9.29,1.86l-1.17-17.78-.04-.27c2.96-.45,6.03-1.05,9.17-1.84Z"/>
        <path class="cls-4" d="M246.32,69.91c20.37,7.88,21.15,18.92,21.15,18.92,0,0-4.59-9.99-21.15-16.56v-2.36Z"/>
        <path class="cls-15" d="M259.11,363.88l1.17,17.78c-2.97.44-5.89.73-8.68.92l-.42-17.77-.02-.31c2.51-.18,5.16-.47,7.91-.89l.04.27Z"/>
        <path class="cls-5" d="M253.48,231.19c3.55-2.37,7.03-6.51,7.03-6.51,0,0-1.51,4.27-4.02,12.74-.05-.04-.07-.06-.07-.06,0,0-11.68,6.77-16.03.64-1.18-1.66-1.73-3.32-1.89-4.83-.42-4.07,1.89-7.19,1.89-7.19-.29,2.48-.06,5.96,3.43,6.13,0,0,6.11,1.44,9.66-.92Z"/>
        <path class="cls-8" d="M256.42,237.36s.02.02.07.06c-4.75,16.06-13.08,47.21-21.49,92.93-.54,2.94-23.6,0-23.6,0,8.66-38.27,22.37-82.4,26.09-94.17h.01c.61-1.95.95-3.01.95-3.01h.05c.16,1.51.71,3.17,1.89,4.83,4.35,6.13,16.03-.64,16.03-.64Z"/>
        <path class="cls-15" d="M251.18,364.81l.42,17.77c-3.11.21-6.07.28-8.79.27v-18.04c2.53,0,5.34-.08,8.35-.31l.02.31Z"/>
        <path class="cls-13" d="M242.81,209.48c1.33,2.98,1.84,5.89.64,8.21l-2.58,5.81s-.32,1.08-.48,2.48c0,0-2.31,3.12-1.89,7.19h-.05s-.34,1.06-.95,3h-.01s-8.21,7.39-8.21,7.39l-4.04,3.63h-.01s-2.03,1.84-2.03,1.84c0,0,6.28-22.35,19.61-39.55Z"/>
        <path class="cls-4" d="M242.9,134.82c2.63,4.99-16.55,15.24-26.27,17.6-9.73,2.37-15.07-12.09-15.07-12.09,0,0,1.54-.46,4.03-1.15l2.82,4.83s33.44-5.52,34.49-9.19Z"/>
        <path class="cls-15" d="M242.81,364.81v18.04c-4.14-.02-7.73-.22-10.43-.45-3.34-.28-5.33-.58-5.33-.58l2.23-17.94s5.33.92,13.53.93Z"/>
        <path class="cls-13" d="M229.28,243.56l8.21-7.38c-3.72,11.77-17.43,55.9-26.09,94.17-2.26,10.02-4.18,19.65-5.49,28.18h-.08c-1.49-.56-2.85-1.08-4.07-1.59-1.95-.8-3.58-1.55-4.94-2.24-1.76-.89-3.06-1.69-4.02-2.39-3.61-2.65-2.36-3.95-2.36-3.95,0,0,1.65-6.83,4.99-18.01,2.21-7.41,5.16-16.73,8.87-27.26h0c6.21-17.63,14.51-38.59,24.98-59.53Z"/>
        <path class="cls-6" d="M232.38,382.4h0c-1.44.01-14.19,37.12-26.77,74.81-7.87-11.21-3.85-80.28-3.85-80.28,1.39.57,2.34.86,2.34.86.02-5.31.69-11.87,1.81-19.26,1.31-8.53,3.23-18.16,5.49-28.18,0,0,23.06,2.94,23.6,0-1.92,10.42-3.84,21.6-5.72,33.53l-2.23,17.94s1.99.3,5.33.58Z"/>
        <path class="cls-12" d="M225.24,247.19l4.04-3.63c-10.47,20.94-18.77,41.9-24.98,59.52.16-8.83-4.75-16.64-4.75-16.64l-2.73-.79s1.6-4.76,7.46-1.58l20.95-36.87h.01Z"/>
        <path class="cls-4" d="M227.53,71.36l-1.18,3.02c-11.14-1.12-20.64,6.62-21.71,7.53,1.35-1.26,16.01-14.69,22.89-10.55Z"/>
        <path class="cls-3" d="M199.42,556.83h0c5.31-3.78,6.4-12.67,6.4-12.67.59.37,1.18.76,1.78,1.18,1.78,1.21,3.57,2.59,5.34,4.13,4.14,3.61-7.12,14.19-7.12,14.19l-12.31-2.63,2.43-6.51c1.21.67,2.38,1.43,3.47,2.31Z"/>
        <path class="cls-15" d="M205.83,358.52h.08c-1.12,7.4-1.79,13.96-1.81,19.27,0,0-.95-.29-2.34-.86-.63-.26-1.34-.57-2.11-.94-2.51-1.1,2.11-19.05,2.11-19.05,1.22.51,2.58,1.03,4.07,1.58Z"/>
        <path class="cls-3" d="M182.5,550.08l-2.53,6.27-.13-.05-8.41-6.83s-2.62-5.87,4.2-13.93c0,0,1.56-.14,4.21.03,5.44.33,15.49,1.93,25.99,8.59,0,0-1.09,8.89-6.4,12.66h0c-1.09-.87-2.26-1.63-3.47-2.3-4.67-2.6-9.94-3.85-13.45-4.44Z"/>
        <path class="cls-12" d="M199.55,286.44s4.91,7.81,4.75,16.64h0c-3.71,10.54-6.66,19.86-8.87,27.27-15.49-2.16-45.02-33.22-45.02-33.22-3.16-2.17-2.63-5.18-2.63-5.18,0,0,2.27-.25,4.35-3.18,1.08-1.52,2.11-3.76,2.74-7.06h.01c.29-1.52.5-3.26.59-5.25.07-1.52.07-3.18-.01-5,14.87,6.45,35.99,15.02,41.36,14.19l2.73.79Z"/>
        <path class="cls-15" d="M201.76,356.94s-4.62,17.95-2.11,19.05c-1.55-.75-3.29-1.72-4.83-2.93-.71-7.35,2-18.36,2-18.36,1.36.69,2.99,1.44,4.94,2.24Z"/>
        <path class="cls-9" d="M193.52,561.03l-14.47,38.83-.53-.2c-8.4,4.21-13.95-5.16-13.95-5.16l15.4-38.15,2.53-6.27c3.51.59,8.78,1.84,13.45,4.44l-2.43,6.51Z"/>
        <path class="cls-15" d="M196.82,354.7s-2.71,11.01-2,18.36c-3.14-2.43-5.48-5.78-3.86-9.98l1.84-10.77c.96.7,2.26,1.5,4.02,2.39Z"/>
        <path class="cls-5" d="M162.14,611.92c3.54,1.2,8.14,1.87,11.56,2.3,2.75.34,4.74.52,4.82.68,8.54,17.68-2.1,29.7-2.1,29.7-66.87-14.25-93.54-63.41-93.99-64.24,5.89-.58,15.83,2.47,30.4,19.56h2.63l.15.03c-.08.39-.14.85-.15,1.39,0,0,4.2,3.23,3.33,7.43-.88,4.21,3.24,5.44,3.24,5.44,0,0,3.25-.01,4.13-3.06l.24.07c2,5.43,6.84,2.99,6.84,2.99,0,0,1.1-8.5-2.51-13.49,2.56,2.34,5.66,12.17,5.66,12.17,7.16,5.73,7.38-.1,7.21-2.54h.03l3.01,3.15c9.46,6.75,6.13-5.17,6.13-5.17,0,0-.53-.64-1.7-2.27l.56-.27s5.43-4.64,5.17,1.58c-.09,2.05,2.21,3.5,5.34,4.55Z"/>
        <path class="cls-10" d="M176.42,644.6c2.89,2.89-1.05,7.09-1.05,7.09-88.29-23.39-99.59-68.32-99.59-68.32,0,0,2.13-2.58,6.65-3.01.45.83,27.12,49.99,93.99,64.24Z"/>
        <path class="cls-5" d="M161.81,601.34c.66,5.08.35,10.3.33,10.58-3.13-1.05-5.43-2.5-5.34-4.55.26-6.22-5.17-1.58-5.17-1.58l-.56.27c-.91-1.27-2.22-3.14-3.99-5.79-.08-.12-.16-.24-.24-.35l.24-.17s8.41-11.39,12.17-6.39c1.4,1.85,2.16,4.89,2.56,7.98Z"/>
        <path class="cls-15" d="M155.46,271.46c.08,1.82.08,3.48.01,5h-.01l-15.36-7.25c.02-.72.04-1.38.04-1.96.03-1.6.02-2.62.02-2.62,0,0,6.58,3.05,15.3,6.83Z"/>
        <path class="cls-15" d="M155.46,276.46h.01c-.09,1.99-.3,3.73-.59,5.25h-.01c-4.87.38-15.08-6.85-15.08-6.85.17-2,.26-3.98.31-5.65l15.36,7.25Z"/>
        <path class="cls-15" d="M139.79,274.86s10.21,7.23,15.08,6.85c-.63,3.3-1.66,5.54-2.74,7.06-1.91.23-13.33-7.06-13.33-7.06h-.01c.16-.64.3-1.34.42-2.06,0,0,.37.22,0-.02.25-1.51.44-3.15.58-4.77Z"/>
        <path class="cls-15" d="M138.8,281.71s11.42,7.29,13.33,7.06c-2.08,2.93-4.35,3.18-4.35,3.18l-11.04-6.04c.9-.58,1.56-2.15,2.05-4.2h.01Z"/>
        <path class="cls-2" d="M143.64,158.09c.03.87.05,1.76.05,2.64,0,20.25-8.41,38.54-21.93,51.56l-.15-.16-6.3-.61-2.02,1.14-2.01-1.14-11.83,7.97-.52,2.45-8.15,4.38-.75,3.74c-5.73,1.47-11.74,2.26-17.94,2.26-34.16,0-62.72-23.92-69.87-55.92l.22-.05s3.6-.35,4.08-1.4,2.71-1.88,2.58-.53c-.09.92,1.59.88,2.7.75.64-.07,1.26.26,1.54.85.67,1.41,1.54,4.45.54,9.79-1.49,7.93,14.54,9.85,14.54,9.85,0,0,4.07.27,6.17,6.75,1.64,5.07,7.79,9.41,10.39,11.07.7.45,1.23,1.12,1.52,1.9.81,2.22,3.33,6.84,10.56,7.96,0,0,4.54,3.76,8.42,2.87.65-.15,1.32-.16,1.96,0l6.94,1.75.06.02s-.02-.01-.06-.02c-.56-.22-5.06-1.98-5.06-2.96v-.85c0-.5-.33-.93-.81-1.09-1.71-.58-5.21-3.45-6.89-4.88-.63-.54-1.01-1.32-1.01-2.15.03-4.47,2.55-9.66.14-11.63-1.47-1.19-1.94-3.27-2.06-4.89-.11-1.4.45-2.77,1.48-3.74l1.62-1.52s4.2-2.05-2.32-9.85c0,0-3.38-5.43.17-8.93,3.55-3.51-.74-8.94-6.17-6.88s-13.36-.88-14.94-3.46c-1.57-2.58-7.01-2.06-11.6-.44-4.6,1.62-6.92-1.36-6.92-1.36,0,0-3.34-4.45-7.93,2.5-1.53,2.32-1.97,4.91-3.68,3.24-1.71-1.66-6.57,4.29-6.57,4.29l-.21.03c-.74-4.11-1.12-8.35-1.12-12.67,0-3.36.23-6.67.68-9.91.19-.05,2.83-.66,3.5.44.7,1.13,2.01,1.13,2.01,1.13,0,0,1.84-1.13,0-2.89-1.84-1.75,1.58-2.1,1.58-2.1,0,0,1.23-1.31-1.31-2.8s.52-5.26.52-5.26c0,0,7.18.7,5.43-4.9,0,0,4.99-2.98,2.28-5.52-2.72-2.54.26-4.64.26-4.64,0,0,3.77-.88-1.31-5.43l-.08-.06c1.74-2.41,3.63-4.7,5.67-6.87h.01s2.81.97,2.28,4.21c-.52,3.24,2.37,2.02,2.37,2.02,0,0,7.79-5,6.3-8.15s-.7-7.18-.7-7.18c7.11-5.19,15.22-9.09,23.98-11.38l.04.14s1.65,2.44,0,3.75c-1.64,1.31,1.51,4.2,4.21,1.38,2.69-2.83,3.35-6.5,2.17-6.5l-.02-.12c1.66-.28,3.35-.5,5.05-.65l.02.24s1.45,5.91-2.82,6.7c-2.61.48-2.08,1.4-1.28,2.05.55.44,1.23.69,1.94.73,1.63.09,4.9.64.5,3.72-4.05,2.84-1.85,3.77-.3,4.07.59.12,1.2.13,1.8.04l2.26-.32.83,1.61c-1.48.49-2.56,1.56-.71,3.87l-.79,1.57c-2.28,1.58-1.75,4.64-1.75,4.64-4.65,4.56,4.29,7.71,4.29,7.71,0,0-5.78,2.72,5.03,9.81l12.92.97,6.75-.09c15.59-12.7,14.98-.96,14.98-.96,0,0,.17,2.27-2.37,3.15-2.54.87,2.54,8.14,2.54,8.14,0,0,7.54.62,6.05,8.41-1.49,7.8,1.4,9.29,1.4,9.29,6.92,3.15,3.94,4.47,3.94,4.47-3.24,2.01,5.21,8.1,5.21,8.1,0,0,.75,10.46,4.34,1.49,0,0,4.29-3.73,2.71-8.72,0,0,6.31-5.91,3.51-8.45-2.81-2.54-.27-5.56-.27-5.56,0,0,2.81-5.26-3.06-13.05-5.87-7.8-3.07-14.9-3.07-14.9,0,0,1.4-2.54-.7-4.64s-.8-6.67-.8-6.67l.1-.07c5.63,7.22,9.89,15.54,12.42,24.59l-.24.07s-2.28.96-2.11,3.32c.18,2.37,2.63,6.31,2.11,7.89-.53,1.57,1.13,4.29,2.71,5.43h.13ZM4.5,158.7c1.23-.35,4.12-1.31,1.67-2.54-2.46-1.23-3.86,1.67-3.86,1.67,0,0,.97,1.22,2.19.87Z"/>
        <path class="cls-7" d="M143.64,158.09h-.13c-1.58-1.14-3.24-3.86-2.71-5.43.52-1.58-1.93-5.52-2.11-7.89-.17-2.36,2.11-3.32,2.11-3.32l.24-.07c1.5,5.34,2.39,10.94,2.6,16.71Z"/>
        <path class="cls-9" d="M46.5,278.25c.38-.83,1.65-1.73,4.49-2.59,0,0,13.76,4.64,30.87,2.68l-.21-1.88c-.94-1.34-1.61-2.55-2.09-3.64-.79-1.79-1.03-3.25-1.02-4.38.02-1.75.67-2.74.92-3.05l-.42-2.83c7.5-1.18,14.21-3.94,16.97-9.15.98-1.84-1.89-4.35-4.2-5.98-1.37-.96-3.11-1.22-4.7-.68-2.75.93-7.85,1.37-12.9-4.93-1.22-1.51-1.56-3.62-.73-5.37.42-.9,1.06-1.51,2.04-1.08,6.02,2.65,10.48,2.54,12.61,2.23,1.05-.15,2.11.04,3.07.49l9.88,4.71c.86.41,1.82.51,2.76.38,1.45-.19,4.25.2,8.47,4.01,5.85,5.3,10.7,8.96,11.59,9.62.09.07.19.14.29.2l13.68,8.81c0,.09.02.1.08.04l2.15,1.39h.04c0,.58-.02,1.24-.04,1.96-.05,1.67-.14,3.65-.31,5.65-.14,1.62-.33,3.26-.58,4.77-.32-.21-1.21-.77-3.41-2.12-1.3-.8-3.07-1.88-5.45-3.34-11.04-6.74-26.45,5.48-26.45,5.48-22.6,13.63-54.66,2.06-54.66,2.06,0,0-3.62-1.56-2.74-3.46Z"/>
        <path class="cls-15" d="M139.21,279.63v.02c-.12.72-.26,1.42-.42,2.06-.49,2.05-1.15,3.62-2.05,4.2-1.68-.92-1.09-8.15-1.09-8.15l.15-.25c2.2,1.35,3.09,1.91,3.41,2.12Z"/>
        <path class="cls-7" d="M136.42,161.68c2.8,2.54-3.51,8.45-3.51,8.45,1.58,4.99-2.71,8.72-2.71,8.72-3.59,8.97-4.34-1.49-4.34-1.49,0,0-8.45-6.09-5.21-8.1,0,0,2.98-1.32-3.94-4.47,0,0-2.89-1.49-1.4-9.29,1.49-7.79-6.05-8.41-6.05-8.41,0,0-5.08-7.27-2.54-8.14,2.54-.88,2.37-3.15,2.37-3.15,0,0,.61-11.74-14.98.96l-6.75.09-12.92-.97c-10.81-7.09-5.03-9.81-5.03-9.81,0,0-8.94-3.15-4.29-7.71,0,0-.53-3.06,1.75-4.64l.79-1.57c-1.85-2.31-.77-3.38.71-3.87,1.4-.47,3.14-.43,3.14-.43,8.41-8.49,9.55-2.71,9.55-2.71h9.63s.79-2.72,1.23-3.07,9.11-3.15,12.44-.61,3.41,2.98,3.41,2.98c0,0,6.75-1.18,8.16-.32,4.74,3.68,9.01,7.94,12.69,12.67l-.1.07s-1.3,4.57.8,6.67.7,4.64.7,4.64c0,0-2.8,7.1,3.07,14.9,5.87,7.79,3.06,13.05,3.06,13.05,0,0-2.54,3.02.27,5.56Z"/>
        <path class="cls-1" d="M121.61,212.13l.15.16c-8.74,8.42-19.61,14.64-31.73,17.77l.75-3.74,8.15-4.38.52-2.45,11.83-7.97,2.01,1.14,2.02-1.14,6.3.61Z"/>
        <path class="cls-11" d="M115.93,104.12c-1.41-.86-8.16.32-8.16.32,0,0-.08-.44-3.41-2.98s-12,.26-12.44.61-1.23,3.07-1.23,3.07h-9.63s-1.14-5.78-9.55,2.71c0,0-1.74-.04-3.14.43l-.83-1.61c1.06-.15,2.04-.7,2.63-1.59.41-.63.62-1.37,0-1.97-1.37-1.34,5.85-10.38,10.12-5.2,1.07,1.29,2.02,2.02,2.84,2.38,1.66.74,3.19-1.22,2.24-2.77-.27-.45-.29-.78.37-.68.86.13,1.5.4,1.93.63.74.41,1.59.57,2.43.52.94-.06,1.8-.33,1.36-1.22-.85-1.7-2.76-3.54-1.12-3.48,1.64.07,1.58-1.25,1.58-1.25l.03-.11c8.81,2.53,16.92,6.71,23.98,12.19Z"/>
        <path class="cls-7" d="M91.95,91.93l-.03.11s.06,1.32-1.58,1.25c-1.64-.06.27,1.78,1.12,3.48.44.89-.42,1.16-1.36,1.22-.84.05-1.69-.11-2.43-.52-.43-.23-1.07-.5-1.93-.63-.66-.1-.64.23-.37.68.95,1.55-.58,3.51-2.24,2.77-.82-.36-1.77-1.09-2.84-2.38-4.27-5.18-11.49,3.86-10.12,5.2.62.6.41,1.34,0,1.97-.59.89-1.57,1.44-2.63,1.59l-2.26.32c-.6.09-1.21.08-1.8-.04-1.55-.3-3.75-1.23.3-4.07,4.4-3.08,1.13-3.63-.5-3.72-.71-.04-1.39-.29-1.94-.73-.8-.65-1.33-1.57,1.28-2.05,4.27-.79,2.82-6.7,2.82-6.7l-.02-.24c2.2-.21,4.42-.31,6.67-.31,6.89,0,13.55.97,19.86,2.8Z"/>
        <path class="cls-9" d="M81.65,276.46l.21,1.88c-17.11,1.96-30.87-2.68-30.87-2.68-2.84.86-4.11,1.76-4.49,2.59l-7.42-2.59s-2.44-2.44-.81-4.12c.69-.7,2.08-1.27,4.66-1.48,0,0,18.4,8.53,36.62,2.77h.01c.48,1.08,1.15,2.29,2.09,3.63Z"/>
        <path class="cls-9" d="M79.56,272.82h-.01c-18.22,5.77-36.62-2.76-36.62-2.76-2.58.21-3.97.78-4.66,1.48l-.07-.08s-2.42-6.14,4.74-6.18c1.22-.01,2.72.16,4.55.57,12.46,2.77,22.7,4.63,31.05,2.59,0,1.13.23,2.59,1.02,4.38Z"/>
        <path class="cls-9" d="M79.04,262.56l.42,2.83c-.25.31-.9,1.3-.92,3.05-8.35,2.04-18.59.18-31.05-2.59-1.83-.41-3.33-.58-4.55-.57v-.3s.34-6.49,10.85-3.51c5.78,1.64,16.1,2.54,25.25,1.09Z"/>
        <path class="cls-7" d="M74.38,227.97l-6.94-1.75c-.64-.17-1.31-.16-1.96,0-3.88.89-8.42-2.87-8.42-2.87-7.23-1.12-9.75-5.74-10.56-7.96-.29-.78-.82-1.45-1.52-1.9-2.6-1.66-8.75-6-10.39-11.07-2.1-6.48-6.17-6.75-6.17-6.75,0,0-16.03-1.92-14.54-9.85,1-5.34.13-8.38-.54-9.79-.28-.59-.9-.92-1.54-.85-1.11.13-2.79.17-2.7-.75.13-1.35-2.1-.52-2.58.53s-4.08,1.4-4.08,1.4l-.22.05c-.22-.99-.42-1.99-.6-3l.21-.03s4.86-5.95,6.57-4.29c1.71,1.67,2.15-.92,3.68-3.24,4.59-6.95,7.93-2.5,7.93-2.5,0,0,2.32,2.98,6.92,1.36,4.59-1.62,10.03-2.14,11.6.44,1.58,2.58,9.51,5.52,14.94,3.46s9.72,3.37,6.17,6.88c-3.55,3.5-.17,8.93-.17,8.93,6.52,7.8,2.32,9.85,2.32,9.85l-1.62,1.52c-1.03.97-1.59,2.34-1.48,3.74.12,1.62.59,3.7,2.06,4.89,2.41,1.97-.11,7.16-.14,11.63,0,.83.38,1.61,1.01,2.15,1.68,1.43,5.18,4.3,6.89,4.88.48.16.81.59.81,1.09v.85c0,.98,4.5,2.74,5.06,2.96Z"/>
        <path class="cls-7" d="M60.39,90.21c1.18,0,.52,3.67-2.17,6.5-2.7,2.82-5.85-.07-4.21-1.38,1.65-1.31,0-3.75,0-3.75l-.04-.14c2.1-.54,4.23-1,6.4-1.35l.02.12Z"/>
        <path class="cls-7" d="M30.69,110c1.49,3.15-6.3,8.15-6.3,8.15,0,0-2.89,1.22-2.37-2.02.53-3.24-2.28-4.2-2.28-4.2h-.01c3.11-3.36,6.55-6.41,10.26-9.11,0,0-.79,4.03.7,7.18Z"/>
        <path class="cls-7" d="M14.14,118.85c5.08,4.55,1.31,5.43,1.31,5.43,0,0-2.98,2.1-.26,4.64,2.71,2.54-2.28,5.52-2.28,5.52,1.75,5.6-5.43,4.9-5.43,4.9,0,0-3.06,3.77-.52,5.26s1.31,2.8,1.31,2.8c0,0-3.42.35-1.58,2.1,1.84,1.76,0,2.89,0,2.89,0,0-1.31,0-2.01-1.13-.67-1.1-3.31-.49-3.5-.44,1.64-11.85,6.18-22.77,12.88-32.03l.08.06Z"/>
        <path class="cls-7" d="M6.17,156.16c2.45,1.23-.44,2.19-1.67,2.54-1.22.35-2.19-.87-2.19-.87,0,0,1.4-2.9,3.86-1.67Z"/>
      </g>
      <g>
        <path class="cls-16" d="M135.65,277.76s-.59,7.23,1.09,8.15"/>
        <path class="cls-16" d="M42.93,264.98s.35-6.49,10.86-3.51c5.78,1.64,16.1,2.54,25.25,1.09,7.5-1.18,14.21-3.94,16.97-9.15.98-1.84-1.89-4.35-4.2-5.98-1.37-.96-3.11-1.22-4.7-.68-2.75.93-7.85,1.37-12.9-4.93-1.22-1.51-1.56-3.62-.73-5.37.42-.9,1.06-1.51,2.04-1.08,6.02,2.65,10.48,2.54,12.61,2.23,1.05-.15,2.11.04,3.07.49l9.88,4.71c.86.41,1.82.51,2.76.38,1.45-.19,4.25.2,8.47,4.01,5.85,5.3,10.7,8.96,11.59,9.62.09.07.19.14.29.2l13.68,8.81.08.04,2.15,1.39"/>
        <path class="cls-16" d="M38.2,271.46s-2.42-6.14,4.74-6.18c1.22-.01,2.72.16,4.55.57,12.46,2.77,22.7,4.63,31.05,2.59.1-.02.21-.04.31-.07"/>
        <path class="cls-16" d="M46.61,278.29l-.11-.04-7.42-2.59s-2.44-2.44-.81-4.12c.69-.7,2.08-1.27,4.66-1.48,0,0,18.4,8.53,36.62,2.77"/>
        <path class="cls-16" d="M139.21,279.65s.37.22,0-.02c-.32-.21-1.21-.77-3.41-2.12-1.3-.8-3.07-1.88-5.45-3.34-11.04-6.74-26.45,5.48-26.45,5.48-22.6,13.63-54.66,2.06-54.66,2.06,0,0-3.62-1.56-2.74-3.46.38-.83,1.65-1.73,4.49-2.59,0,0,13.76,4.64,30.87,2.68.16,0,.33-.03.49-.05"/>
        <path class="cls-16" d="M79.55,265.28s-.04.04-.09.11c-.25.31-.9,1.3-.92,3.05,0,1.13.23,2.59,1.02,4.38.48,1.09,1.15,2.3,2.09,3.64"/>
        <path class="cls-16" d="M99.17,269.21s10.51-15.27,21.54-6.69"/>
        <path class="cls-16" d="M115.61,599.95c-.08.39-.14.85-.15,1.39,0,0,4.2,3.23,3.33,7.43-.88,4.21,3.24,5.44,3.24,5.44,0,0,3.25-.01,4.13-3.06.36-1.2.34-2.86-.37-5.18-.61-1.99-1.4-3.49-2.26-4.62-2.66-3.58-5.88-3.53-5.88-3.53,0,0-1.55-.23-2.04,2.13Z"/>
        <path class="cls-16" d="M112.92,600.71s2.45,1.72,1.66,11.76"/>
        <path class="cls-16" d="M112.39,610.35s1.32-6.13.53-7.18"/>
        <path class="cls-16" d="M130.73,600.72c3.61,4.99,2.51,13.49,2.51,13.49,0,0-4.84,2.44-6.84-2.99"/>
        <path class="cls-16" d="M123.54,601.34s2.17-6.23,6.55-1.42c.23.25.44.51.63.79"/>
        <path class="cls-16" d="M130.72,600.71s2.43-4.64,7.07-.44c4.65,4.21,5.7,9.11,5.7,9.11,0,0,.06.39.11.97.17,2.44-.05,8.27-7.21,2.54,0,0-3.1-9.83-5.66-12.17h-.01Z"/>
        <path class="cls-16" d="M255.6,54.06s.01.02.01.03c.37.73.54,1.5.55,2.28.05,5.15-7.07,10.68-13.01,8.55-3.44-1.24-6.69-5.56-9.15-9.72-2.42-4.12-4.06-8.06-4.32-8.68"/>
        <path class="cls-16" d="M234.26,55.03s-.09.06-.26.17c-2.56,1.71-23.27,15.79-39.92,34.52-12.3,13.82-22.39,30.19-21.31,45.99,2.63,38.62,58.07,58.33,58.07,58.33,0,0,8.61,7.94,11.97,15.44,1.33,2.98,1.84,5.89.64,8.21l-2.58,5.81s-.32,1.08-.48,2.48c-.29,2.48-.06,5.96,3.43,6.13,0,0,6.11,1.44,9.66-.92,3.55-2.37,7.03-6.51,7.03-6.51l1.31-12.35s-2.83-5.5-2.33-10.83c.37-3.84,2.47-7.6,8.64-9.14,5.43-1.36,10.94-2.83,15.72-4.13,8.18-2.24,14.24-4.01,14.24-4.01,0,0-31.97-8.94-12.53-27.51,0,0,15.13-3.74,10.86-5.95-14.89-7.71,2.81-23.48,2.81-23.48-47.48,7.54-2.63-24.52-2.63-24.52-28.5-8.81-38.2-37.95-40.44-46.39-.35-1.31-.52-2.13-.55-2.28"/>
        <path class="cls-16" d="M199.55,96.19s4.2,9.98,12.08,1.84"/>
        <path class="cls-16" d="M238.44,102.76s2.62,14.19,15.76,4.73"/>
        <path class="cls-16" d="M215.31,128.51s-12.87,2.89-13.66-6.31c-.79-9.2,3.94-9.46,3.94-9.46,0,0,15.5,3.94,15.5-7.62"/>
        <path class="cls-16" d="M242.9,134.82c-2.5-4.76-27.41,1.61-37.31,4.36-2.49.69-4.03,1.15-4.03,1.15,0,0,5.34,14.46,15.07,12.09,9.72-2.36,28.9-12.61,26.27-17.6Z"/>
        <path class="cls-16" d="M205.59,139.18l2.82,4.83s33.44-5.52,34.49-9.19"/>
        <path class="cls-16" d="M325.58,51.56c1.02-1.82,5.18-7.49,5.18-7.49,12.61-7.01,7.36,5.61,7.36,5.61,40.64,8.05,14.71,30.13,14.71,30.13,42.4,66.57-9.55,72.87-9.55,72.87,3.42,45.72-30.48,29.96-30.48,29.96-8.67,28.64-28.95,5.59-28.95,5.59"/>
        <path class="cls-16" d="M325.58,51.56c.15.15.19.27.1.35-.43.38-.4.18-.1-.35Z"/>
        <path class="cls-16" d="M194.08,89.72s-18.88-19.02,8.27-36.19c0,0-44.5-44.5,28.55-32.23,0,0-10.33-11.92-9.81-17.35.53-5.43,33.55-9.81,64.25,31.01,0,0,.79-32.98,10.51,0,0,0,13.14-15.37,9.46,7.75,0,0,18.43,6.97,20.27,8.85"/>
        <path class="cls-16" d="M204.57,81.98s.04-.05.07-.07"/>
        <path class="cls-16" d="M204.64,81.91s-.06.05-.07.07c-.02.01-.03.02-.03.02"/>
        <path class="cls-16" d="M204.64,81.91c1.35-1.26,16.01-14.69,22.89-10.55l-1.18,3.02c-11.14-1.12-20.64,6.62-21.71,7.53Z"/>
        <path class="cls-16" d="M246.32,69.91c20.37,7.88,21.15,18.92,21.15,18.92,0,0-4.59-9.99-21.15-16.56v-2.36Z"/>
        <path class="cls-16" d="M268.24,213.22c-1.89-6.25-4.67-10.93-8.74-11.72"/>
        <path class="cls-16" d="M265.49,245.77c3.33,3.22,6.38,6.42,6.76,7.64,0,0,.66-24.83-4-40.18"/>
        <path class="cls-16" d="M256.42,237.36s.02.02.07.06c.59.52,4.99,4.45,9,8.34"/>
        <path class="cls-16" d="M225.23,247.2l-2.03,1.83s6.28-22.35,19.61-39.55"/>
        <polyline class="cls-16" points="237.49 236.18 229.28 243.56 225.24 247.19"/>
        <path class="cls-16" d="M240.39,225.98s-2.31,3.12-1.89,7.19c.16,1.51.71,3.17,1.89,4.83,4.35,6.13,16.03-.64,16.03-.64"/>
        <path class="cls-16" d="M204.3,303.09c-3.71,10.53-6.66,19.85-8.87,27.26-3.34,11.18-4.99,18.01-4.99,18.01,0,0-1.25,1.3,2.36,3.95.96.7,2.26,1.5,4.02,2.39,1.36.69,2.99,1.44,4.94,2.24,1.22.51,2.58,1.03,4.07,1.58"/>
        <path class="cls-16" d="M229.28,243.56c-10.47,20.94-18.77,41.9-24.98,59.52"/>
        <path class="cls-16" d="M238.45,233.17s-.34,1.06-.95,3h-.01c-3.72,11.78-17.43,55.91-26.09,94.18-2.26,10.02-4.18,19.65-5.49,28.18-1.12,7.39-1.79,13.95-1.81,19.26,0,0-.95-.29-2.34-.86-.63-.26-1.34-.57-2.11-.94-1.55-.75-3.29-1.72-4.83-2.93-3.14-2.43-5.48-5.78-3.86-9.98l1.84-10.77"/>
        <path class="cls-16" d="M196.82,354.7s-2.71,11.01-2,18.36"/>
        <path class="cls-16" d="M201.76,356.94s-4.62,17.95-2.11,19.05"/>
        <path class="cls-16" d="M260.51,224.68s-1.51,4.27-4.02,12.74c-4.75,16.06-13.08,47.21-21.49,92.93-1.92,10.42-3.84,21.6-5.72,33.53,0,0,5.33.92,13.53.93,2.53,0,5.34-.08,8.35-.31,2.51-.18,5.16-.47,7.91-.89,2.96-.45,6.03-1.05,9.17-1.84,2.45-.62,4.94-1.35,7.44-2.23,2.77-.96,5.55-2.1,8.31-3.42,2.42-1.16,4.82-2.47,7.18-3.95,1.3-.81,2.58-1.67,3.85-2.58v-8.41"/>
        <path class="cls-16" d="M291.17,352.17v17.39c-2,1.6-4.12,3.02-6.35,4.27-1.39.79-2.82,1.5-4.28,2.16-1.03.47-2.07.91-3.13,1.31-2.56,1-5.19,1.82-7.84,2.5-3.1.81-6.22,1.41-9.29,1.86-2.97.44-5.89.73-8.68.92-3.11.21-6.07.28-8.79.27-4.14-.02-7.73-.22-10.43-.45-3.34-.28-5.33-.58-5.33-.58l2.23-17.94"/>
        <line class="cls-16" x1="242.81" y1="364.81" x2="242.81" y2="382.85"/>
        <line class="cls-16" x1="251.18" y1="364.81" x2="251.6" y2="382.58"/>
        <line class="cls-16" x1="259.11" y1="363.88" x2="260.28" y2="381.66"/>
        <line class="cls-16" x1="268.24" y1="361.77" x2="269.57" y2="379.8"/>
        <line class="cls-16" x1="275.68" y1="359.54" x2="277.41" y2="377.3"/>
        <line class="cls-16" x1="283.99" y1="356.12" x2="284.82" y2="373.83"/>
        <path class="cls-16" d="M268.24,213.22h.01s49.9,52.28,49.9,52.28c0,0,56.02,54.94-23.13,75.77-7.29,1.92-15.72,3.55-25.45,4.82"/>
        <path class="cls-16" d="M255.43,314.2s-.37,2.3.17,6.13c.85,5.93,3.86,15.52,13.78,25.94,1.85,1.94,3.94,3.92,6.3,5.9"/>
        <path class="cls-16" d="M328.48,309.3s-22.62-14.32-44.49-5.34c-1.71.69-3.41,1.53-5.09,2.53l-23.29,13.84"/>
        <path class="cls-16" d="M265.49,245.76h0c.32.89,17.55,48.29,19.33,48.99,1.79.71-2.06,4.74-2.06,4.74,0,0-1.92,1.75,1.23,4.47"/>
        <path class="cls-16" d="M288.54,299.66s7.18-4.9,31.18-1.05"/>
        <path class="cls-16" d="M195.43,330.35c-15.49-2.16-45.02-33.22-45.02-33.22-3.16-2.17-2.63-5.18-2.63-5.18l-11.04-6.04c.9-.58,1.56-2.15,2.05-4.2.16-.64.3-1.34.42-2.06v-.02c.25-1.51.44-3.15.58-4.77.17-2,.26-3.98.31-5.65.02-.72.04-1.38.04-1.96.03-1.6.02-2.62.02-2.62,0,0,6.58,3.05,15.3,6.83,14.87,6.45,35.99,15.02,41.36,14.19,0,0,1.6-4.76,7.46-1.58l20.95-36.87h.01"/>
        <path class="cls-16" d="M199.55,286.44s4.91,7.81,4.75,16.64h0"/>
        <path class="cls-16" d="M154.88,281.71c.29-1.52.5-3.26.59-5.25.07-1.52.07-3.18-.01-5"/>
        <path class="cls-16" d="M147.78,291.95s2.27-.25,4.35-3.18c1.08-1.52,2.11-3.76,2.74-7.06"/>
        <path class="cls-16" d="M138.8,281.71s11.42,7.29,13.33,7.06"/>
        <path class="cls-16" d="M139.79,274.86s10.21,7.23,15.08,6.85h.01"/>
        <line class="cls-16" x1="140.1" y1="269.21" x2="155.46" y2="276.46"/>
        <path class="cls-16" d="M211.4,330.35s23.06,2.94,23.6,0"/>
        <path class="cls-16" d="M201.76,376.93s-4.02,69.07,3.85,80.28c.07.1.15.2.22.29"/>
        <path class="cls-16" d="M179.84,535.54s12.79-39.47,25.77-78.33c12.58-37.69,25.33-74.8,26.77-74.8h.01"/>
        <path class="cls-16" d="M208.22,544.48s7.48-16.66,17.63-39.52c5.63-12.68,12.09-27.26,18.55-41.96,18.61-42.38,37.23-85.7,36.14-87.01"/>
        <path class="cls-16" d="M193.5,561.03h.02l12.31,2.63s11.26-10.58,7.12-14.19c-1.77-1.54-3.56-2.92-5.34-4.13-.6-.42-1.19-.81-1.78-1.18-10.5-6.66-20.55-8.26-25.99-8.59-2.65-.17-4.21-.03-4.21-.03-6.82,8.06-4.2,13.93-4.2,13.93l8.41,6.83"/>
        <path class="cls-16" d="M182.5,550.08c3.51.59,8.78,1.84,13.45,4.44,1.21.67,2.38,1.43,3.47,2.31,1,.78,1.92,1.66,2.75,2.63"/>
        <path class="cls-16" d="M178.52,549.58s1.58.09,3.98.49"/>
        <path class="cls-16" d="M205.83,544.16s-1.09,8.89-6.4,12.66"/>
        <path class="cls-16" d="M225.85,504.96s23.37,34.52,40.85,44.62c1.77,1.03,3.49,1.8,5.11,2.26"/>
        <path class="cls-16" d="M244.4,463s12.75,40.12,33.58,57.73c1.37,1.17,2.78,2.23,4.23,3.18.04.02.07.05.11.07"/>
        <path class="cls-16" d="M277.98,520.73s2.24-4.89,7.76-1.21c5.51,3.67,10.24,4.46,10.24,4.46,0,0,3.64,7.6.65,18.01-1.3,4.54-3.87,9.61-8.56,14.83-1.64,1.83-3.55,3.68-5.75,5.53,0,0-6.04-.53-13.14-2.89-7.09-2.37-2.48-9.88-2.48-9.88"/>
        <path class="cls-16" d="M268.39,554.52s1.56-.57,3.63-2.46c3.76-3.45,9.24-11.3,10.19-28.15.05-.83.09-1.68.11-2.55"/>
        <polyline class="cls-16" points="161.81 601.34 164.57 594.5 179.97 556.35 182.5 550.08 182.5 550.07"/>
        <polyline class="cls-16" points="173.7 614.21 179.05 599.86 193.52 561.03 195.95 554.52"/>
        <path class="cls-16" d="M288.07,556.82s16.6,6.67,26.22,9.55c3.19.95,5.61,1.49,6.4,1.23"/>
        <path class="cls-16" d="M296.63,541.99s11.08,5.56,21.36,9.27c5.17,1.87,10.13,3.27,13.38,3.27.12,0,.24-.01.35-.01"/>
        <path class="cls-16" d="M151.63,605.79s5.43-4.64,5.17,1.58c-.09,2.05,2.21,3.5,5.34,4.55,3.54,1.2,8.14,1.87,11.56,2.3,2.75.34,4.74.52,4.82.68,8.54,17.68-2.1,29.7-2.1,29.7,2.89,2.89-1.05,7.09-1.05,7.09-88.29-23.39-99.59-68.32-99.59-68.32,0,0,2.13-2.58,6.65-3.01,5.89-.58,15.83,2.47,30.4,19.56h2.63"/>
        <path class="cls-16" d="M147.08,599.75s8.41-11.39,12.17-6.39c1.4,1.85,2.16,4.89,2.56,7.98.66,5.08.35,10.3.33,10.58h0"/>
        <path class="cls-16" d="M82.43,580.35h0c.45.84,27.12,50,93.99,64.25"/>
        <path class="cls-16" d="M137.79,600.27s5.05-5.8,9.05-.35c.08.11.16.23.24.35,1.77,2.65,3.08,4.52,3.99,5.79,1.17,1.63,1.7,2.27,1.7,2.27,0,0,3.33,11.92-6.13,5.17l-3.01-3.15"/>
        <path class="cls-16" d="M351.96,546.32s5.62-3.91,6.3,0c4.64,26.68-8.58,86.89-12.79,88.82-4.2,1.92-39.24,0-39.24,0,0,0-1.92-1.41,0-5.78l35.39.17s14.71-27.15,10.34-83.21Z"/>
        <path class="cls-16" d="M306.23,629.36s4.21-10.34,20.15-10.69c0,0-.09-3.02,1.79-1.93l1.56-1.61"/>
        <path class="cls-16" d="M325.33,584.37s-.01-.01-.02-.04c-.18-.42-1.86-3.89-9-8.62-4.38-2.9-1.04-5.98,4.42-8.02,4.05-1.5,9.26-2.43,13.36-2.28"/>
        <path class="cls-16" d="M329.71,582.23s-.08-.07-.23-.19c-1.21-1.04-6.7-5.99-3.1-7.87,2.6-1.35,7.01-3.29,7.92-8.72.43-2.55.09-5.88-1.59-10.28-.29-.76-.62-1.55-.99-2.37,0,0-6.48-4.99-1.22-5.82,5.25-.84,19.05-2.54,21.46-.66"/>
        <path class="cls-16" d="M330.36,619.72s8.56,4.69,10.78,9.06c.1.2.19.39.26.58"/>
        <path class="cls-16" d="M336.06,620.42s6.58,6.04,5.08,8.36"/>
        <path class="cls-16" d="M329.93,608.43c-1.46.43-1.54,1.09-1.54,1.09,0,0-4.11,4.16,1.05,5.43.1.03.21.05.31.07,5.03,1.13,9.15-.47,9.15-.47,0,0,6.05-5.34-2.1-6.26-1.28-.14-2.37-.21-3.3-.23-1.69-.02-2.82.14-3.57.37Z"/>
        <path class="cls-16" d="M329.93,608.43c-1.04-.03-1.67-.18-1.67-.18,0,0-4.38-1.89-1.01-5.57,0,0,.93-.92,2.48-1.71,1.43-.75,3.39-1.38,5.63-1.09,4.64.61,6.39,4.12,1.79,6.75-1.27.72-2.51,1.17-3.65,1.43-1.41.34-2.65.4-3.57.37Z"/>
        <path class="cls-16" d="M329.73,599.25c-.29.07-.46.11-.46.11,0,0-7.76,1.48-4.1-5.7,0,0,1.72-1.45,4.14-2.37,1.17-.45,2.51-.77,3.9-.74,4.25.09,5.17,1.56,5.17,1.56,0,0,1.71,3-1.62,4.62-2.66,1.3-5.86,2.2-7.03,2.51"/>
        <path class="cls-16" d="M329.28,591.2c-3.63,1.26-5.57.18-5.57.18,0,0-3.9-2.36-.31-4.64,0,0,.61-1.2,1.91-2.41.98-.92,2.36-1.85,4.17-2.29.62-.15,1.29-.24,2.02-.25,5.65-.08,9.06,2.24,2.45,6.92-1.77,1.26-3.33,2.03-4.67,2.49Z"/>
        <polyline class="cls-16" points="329.73 600.97 329.73 599.25 329.73 599.24"/>
        <path class="cls-16" d="M137.87,265.82c0,.09.02.1.08.04.34-.26,1.63-2.24,2.21-1.23"/>
        <path class="cls-16" d="M74.38,227.97c-.56-.22-5.06-1.98-5.06-2.96v-.85c0-.5-.33-.93-.81-1.09-1.71-.58-5.21-3.45-6.89-4.88-.63-.54-1.01-1.32-1.01-2.15.03-4.47,2.55-9.66.14-11.63-1.47-1.19-1.94-3.27-2.06-4.89-.11-1.4.45-2.77,1.48-3.74l1.62-1.52s4.2-2.05-2.32-9.85c0,0-3.38-5.43.17-8.93,3.55-3.51-.74-8.94-6.17-6.88s-13.36-.88-14.94-3.46c-1.57-2.58-7.01-2.06-11.6-.44-4.6,1.62-6.92-1.36-6.92-1.36,0,0-3.34-4.45-7.93,2.5-1.53,2.32-1.97,4.91-3.68,3.24-1.71-1.66-6.57,4.29-6.57,4.29"/>
        <path class="cls-16" d="M74.38,227.97l.06.02s-.02-.01-.06-.02Z"/>
        <path class="cls-16" d="M2.44,176.35s3.6-.35,4.08-1.4,2.71-1.88,2.58-.53c-.09.92,1.59.88,2.7.75.64-.07,1.26.26,1.54.85.67,1.41,1.54,4.45.54,9.79-1.49,7.93,14.54,9.85,14.54,9.85,0,0,4.07.27,6.17,6.75,1.64,5.07,7.79,9.41,10.39,11.07.7.45,1.23,1.12,1.52,1.9.81,2.22,3.33,6.84,10.56,7.96,0,0,4.54,3.76,8.42,2.87.65-.15,1.32-.16,1.96,0l6.94,1.75"/>
        <path class="cls-16" d="M143.64,158.09c.03.87.05,1.76.05,2.64,0,20.25-8.41,38.54-21.93,51.56-8.74,8.42-19.61,14.64-31.73,17.77-5.73,1.47-11.74,2.26-17.94,2.26-34.16,0-62.72-23.92-69.87-55.92-.22-.99-.42-1.99-.6-3-.74-4.11-1.12-8.35-1.12-12.67,0-3.36.23-6.67.68-9.91,1.64-11.85,6.18-22.77,12.88-32.03,1.74-2.41,3.63-4.7,5.67-6.87,3.11-3.35,6.55-6.4,10.26-9.1,7.11-5.19,15.22-9.09,23.98-11.38,2.1-.54,4.23-1,6.4-1.35,1.66-.28,3.35-.5,5.05-.65,2.2-.21,4.42-.31,6.67-.31,6.89,0,13.55.97,19.86,2.8,8.81,2.53,16.92,6.71,23.98,12.19,4.74,3.68,9.01,7.94,12.69,12.67,5.63,7.22,9.89,15.54,12.42,24.59,1.5,5.34,2.39,10.94,2.6,16.71Z"/>
        <polyline class="cls-16" points="121.61 212.13 115.31 211.52 113.29 212.66 111.28 211.52 99.45 219.49 98.93 221.94 90.78 226.32 90.03 230.06"/>
        <path class="cls-16" d="M140.8,141.45s-2.28.96-2.11,3.32c.18,2.37,2.63,6.31,2.11,7.89-.53,1.57,1.13,4.29,2.71,5.43"/>
        <path class="cls-16" d="M116.01,104.17s-.05-.04-.08-.05c-1.41-.86-8.16.32-8.16.32,0,0-.08-.44-3.41-2.98s-12,.26-12.44.61-1.23,3.07-1.23,3.07h-9.63s-1.14-5.78-9.55,2.71c0,0-1.74-.04-3.14.43-1.48.49-2.56,1.56-.71,3.87l-.79,1.57c-2.28,1.58-1.75,4.64-1.75,4.64-4.65,4.56,4.29,7.71,4.29,7.71,0,0-5.78,2.72,5.03,9.81l12.92.97,6.75-.09c15.59-12.7,14.98-.96,14.98-.96,0,0,.17,2.27-2.37,3.15-2.54.87,2.54,8.14,2.54,8.14,0,0,7.54.62,6.05,8.41-1.49,7.8,1.4,9.29,1.4,9.29,6.92,3.15,3.94,4.47,3.94,4.47-3.24,2.01,5.21,8.1,5.21,8.1,0,0,.75,10.46,4.34,1.49,0,0,4.29-3.73,2.71-8.72,0,0,6.31-5.91,3.51-8.45-2.81-2.54-.27-5.56-.27-5.56,0,0,2.81-5.26-3.06-13.05-5.87-7.8-3.07-14.9-3.07-14.9,0,0,1.4-2.54-.7-4.64s-.8-6.67-.8-6.67"/>
        <path class="cls-16" d="M54.01,91.58s1.65,2.44,0,3.75c-1.64,1.31,1.51,4.2,4.21,1.38,2.69-2.83,3.35-6.5,2.17-6.5"/>
        <path class="cls-16" d="M91.92,92.04s.06,1.32-1.58,1.25c-1.64-.06.27,1.78,1.12,3.48.44.89-.42,1.16-1.36,1.22-.84.05-1.69-.11-2.43-.52-.43-.23-1.07-.5-1.93-.63-.66-.1-.64.23-.37.68.95,1.55-.58,3.51-2.24,2.77-.82-.36-1.77-1.09-2.84-2.38-4.27-5.18-11.49,3.86-10.12,5.2.62.6.41,1.34,0,1.97-.59.89-1.57,1.44-2.63,1.59l-2.26.32c-.6.09-1.21.08-1.8-.04-1.55-.3-3.75-1.23.3-4.07,4.4-3.08,1.13-3.63-.5-3.72-.71-.04-1.39-.29-1.94-.73-.8-.65-1.33-1.57,1.28-2.05,4.27-.79,2.82-6.7,2.82-6.7"/>
        <path class="cls-16" d="M19.74,111.93s2.81.96,2.28,4.2c-.52,3.24,2.37,2.02,2.37,2.02,0,0,7.79-5,6.3-8.15s-.7-7.18-.7-7.18"/>
        <path class="cls-16" d="M1.17,150.82h.01c.19-.05,2.83-.66,3.5.44.7,1.13,2.01,1.13,2.01,1.13,0,0,1.84-1.13,0-2.89-1.84-1.75,1.58-2.1,1.58-2.1,0,0,1.23-1.31-1.31-2.8s.52-5.26.52-5.26c0,0,7.18.7,5.43-4.9,0,0,4.99-2.98,2.28-5.52-2.72-2.54.26-4.64.26-4.64,0,0,3.77-.88-1.31-5.43"/>
        <path class="cls-16" d="M2.31,157.83s.97,1.22,2.19.87c1.23-.35,4.12-1.31,1.67-2.54-2.46-1.23-3.86,1.67-3.86,1.67Z"/>
        <path class="cls-16" d="M164.57,594.5s5.55,9.37,13.95,5.16"/>
        <path class="cls-16" d="M317.98,551.25h.01c.21.4,4.68,8.79-3.7,15.12"/>
      </g>
    </g>
  </g>
</svg>