<?xml version="1.0" encoding="utf-8"?>
<!-- Generator: Adobe Illustrator 27.0.1, SVG Export Plug-In . SVG Version: 6.00 Build 0)  -->
<svg version="1.1" id="Calque_2_00000157278241238993906180000009712065179425455785_"
	 xmlns="http://www.w3.org/2000/svg" xmlns:xlink="http://www.w3.org/1999/xlink" x="0px" y="0px" viewBox="0 0 375 420"
	 style="enable-background:new 0 0 375 420;" xml:space="preserve">
<style type="text/css">
	.st0{fill:#C1951D;stroke:#572310;stroke-width:2;stroke-miterlimit:10;}
	.st1{fill:#6EC6D9;stroke:#6EC6D9;stroke-miterlimit:10;}
	.st2{fill:none;stroke:#562412;stroke-width:2;stroke-miterlimit:10;}
	.st3{fill:#562412;stroke:#572310;stroke-miterlimit:10;}
	.st4{fill:none;stroke:#572310;stroke-width:2;stroke-miterlimit:10;}
	.st5{fill:#572310;}
	.st6{fill:#E55F9F;}
</style>
<g id="Calque_1-2">
	<g>
		<ellipse class="st0" cx="100" cy="309.2" rx="88.9" ry="90.2"/>
		<path class="st1" d="M167.8,219c0,0-53,74.1,0,77.5C220.9,299.8,167.8,219,167.8,219z"/>
		<path class="st2" d="M87.7,369.8c0,0,11.7-23.3,24.6,0"/>
		<ellipse class="st3" cx="73.6" cy="303.1" rx="8.8" ry="8.8"/>
		<ellipse class="st3" cx="127.2" cy="303.1" rx="8.8" ry="8.8"/>
	</g>
	<g>
		<circle class="st0" cx="279.7" cy="229" r="90.2"/>
		<path class="st4" d="M243.3,182.8c0,0,6.6-14.6,17.8,0"/>
		<path class="st4" d="M247.2,292c0,0,31.1-21.8,67.6,0"/>
		<path class="st4" d="M299.6,181c0,0,6.6-14.6,17.8,0"/>
		<ellipse class="st3" cx="308.6" cy="227.8" rx="9" ry="8.8"/>
		<ellipse class="st3" cx="253.4" cy="229.4" rx="9" ry="8.8"/>
		<path class="st5" d="M233.7,262.4c31.1-0.3,62.1-0.7,93.2-1l-4.5-4.5c-0.1,4.5-0.3,9.1-2,13.3c-1.9,4.5-5.9,8.4-9,12.1l4.3-1.2
			c-15-6.4-31.8-7.9-47.8-5.2c-3.8,0.6-7.5,1.6-11.3,2.7c-1.9,0.6-3.9,1.3-5.8,2.2c-0.6,0.3-1.2,0.4-1.7,0.7
			c-1.3,0.4-0.9,0.6,1.3,0.6c0-0.3-1.9-1.6-2.2-1.9c-2.7-2.6-3.5-5.5-5.3-8.7c-1.6-3-4.2-5.5-4.9-9l-4.3,5.6
			c14.9-1.7,29.9-2.6,44.9-2.6c7.4,0,14.7,0.3,22.1,0.7c7.4,0.4,15,1.6,22.4,0l-5.1-6.6c-1.9,2.7-3,5.8-4.2,9
			c-0.4,1.3-1,2.6-1.7,3.9c-0.1,0.4-0.4,0.7-0.7,1.2c-0.3,0.3-0.6,0.6-0.9,0.9c-0.6,0.6-0.6,0.6,0,0.1c-1.9,0.1-4-0.3-5.9-0.6
			c-2-0.1-4-0.4-6.1-0.6c-4-0.4-8.1-0.7-12.1-1.2c-8.1-0.7-16-0.4-24.1,0.7c-2,0.3-4,0.6-6.1,0.9c-1.9,0.3-4.5,0.1-6.2,0.9
			c-1.4,0-1.2,0.3,0.6,0.9c-0.3-0.4-0.6-0.9-0.9-1.3c-0.4-0.7-0.9-1.3-1.3-2c-1-1.7-1.9-3.5-2.6-5.3l-3.2,5.5
			c5.3-1.7,11.4-1.6,17.1-2c5.8-0.4,11.6-0.9,17.5-1c5.8-0.3,11.7-0.4,17.5-0.4c3,0,5.9,0,9,0c1.3,0,2.6,0,3.9,0.1
			c0.7,0,1.4,0,2.2,0.1c0.4,0,2.5,0.6,1.3,0l-1.6-1.6l0.3,0.6l-0.6-2.3c0-0.9-0.3,0.3-0.4,0.6c-0.3,0.6-0.6,1-0.9,1.6
			c-0.3,0.4-0.6,0.7-0.9,1.2c-0.1,0.1-0.3,0.3-0.4,0.4c-0.6,0.6-0.1,0.4,1.4-0.4c-0.1-0.4-3.5-0.9-3.9-1c-1.4-0.3-3-0.4-4.5-0.6
			c-5.6-0.4-11.4,0-17.1,0.1c-11.7,0.4-23.6,1.3-35.3,1.3c-5.8,0-5.8,9.1,0,9c10.6-0.1,21.1-0.7,31.7-1.2c5.2-0.3,10.3-0.4,15.5-0.4
			c2.3,0,4.5,0,6.8,0.4c2.5,0.4,4.9,1.6,7.4,1.3c4.3-0.4,7.8-5.9,9.1-9.7c0.9-2.7,0.1-5.8-2.5-7.1c-2.3-1.2-5.5-1-7.9-1
			c-10.4-0.3-21-0.1-31.2,0.4c-5.9,0.3-12,0.6-17.9,1.2c-5.9,0.4-12.1,0.4-17.6,2.3c-2.2,0.7-4,3.2-3.2,5.5c1.3,3.3,2.7,6.6,4.8,9.5
			c1,1.4,1.9,3,3.3,4c1.9,1.2,3.6,1,5.8,0.7c7.4-1,14.7-2.5,22.1-2.7s14.6,0.6,21.8,1.2c3.8,0.3,7.5,0.7,11.3,1s7.2,0.7,10.4-2.2
			c4.9-4.5,5.5-11.6,9.1-16.9c2.5-3.5-1.6-7.4-5.1-6.6c-6.8,1.4-14.2,0-21-0.3c-7.4-0.4-14.7-0.6-22.1-0.6
			c-14.7,0-29.5,0.9-44.1,2.6c-3,0.3-4.5-0.1-3.9,2.9c0.6,3.2,1.9,8.3,3.6,10.9c1.7,2.6,2.6,5.1,3.9,7.8c1.4,2.9,3.9,5.2,6.5,7.4
			c1.4,1.2,4.3,4.7,6,4.9c2,0.3,2.1-3.2,3.8-3.9c12-5.1,25.3-6.6,38.2-5.3c7.4,0.7,14.8,4,21.7,6.8c1.3,0.6,3.3-1.1,4.2-2.3
			c3.8-4.6,8.2-9.1,10.7-14.6c2.3-5.5,2.7-11.3,3-17.2c0-2.5-2.1-3-4.4-3c-31.1,0.3-64.8-0.1-95.9,0.2
			C225.2,254,227.8,262.4,233.7,262.4L233.7,262.4L233.7,262.4z"/>
		<path class="st6" d="M262.2,297.8c2.2,0,4.5,0,6.6,0.1c1.9,0.1,4,0,5.8,0.4l-2.7-2l0.1,0.3l-0.4-3.5c-0.1-0.3-0.4-0.1-0.6,0.6
			c-0.9,1.2-0.4,1,1.3-0.6c-0.1-0.1-2.2,0-2.3,0c-1.6-0.1-3.2-0.6-4.6-1.2c-3.3-1.2-6.5-3.2-9.8-3.8v8.7c8.4-3.3,17.2-5.5,26.2-5.5
			c4.3,0,8.7,0.1,12.9,1.2c4.2,1,7.9,3.8,12.3,4.8v-8.7c-5.9,2.2-11.9,4.5-18.1,6.1c-5.3,1.3-11.6,2.5-16.9,0.4l2,1.2l-0.3-0.1
			l1.2,2l-0.1-0.6v2.5l0.3-0.6l-1.2,2c2-2.3,6.1-2.5,8.8-3c4.2-0.9,8.5-1.6,12.9-2.5c2.5-0.4,3.8-3.3,3.2-5.5
			c-0.7-2.5-3.2-3.6-5.5-3.2c-3.5,0.7-7.1,1.3-10.6,2c-2.7,0.6-5.6,0.9-8.4,1.9c-3,1-6.6,2.7-7.8,5.9c-1.3,3.9,1.4,6.4,4.8,7.4
			c12.9,3.3,27.4-2.6,37.8-7.9c3.9-1.4,5.9-4.7,3.6-6c-4.1-2.4-11.3-5.6-15.9-6.6c-4.9-1-10-1.4-14.9-1.4
			c-9.8,0.1-17.3,2.1-26.4,5.8c-1.9,0.7-5.5,2.3-5.5,4.4c0,1.9,1.4,4,3.3,4.3c4,0.7,8.9,4.6,13,5.7c3.6,1,8.4,0.5,11.5-2.4
			c1.2-1.2,2.6-3.2,3-4.8c0.7-2.6-1.2-5.3-3.8-5.9c-4.5-1.2-9.8-0.9-14.5-0.9C256.4,288.8,256.4,297.8,262.2,297.8L262.2,297.8
			L262.2,297.8z"/>
		<path class="st4" d="M279.7,305.7c0,0,46.8,1.2,52.3-51.6H227.6C227.6,254,235.4,303.7,279.7,305.7z"/>
	</g>
	<g>
		<circle class="st0" cx="122" cy="113.7" r="93.1"/>
		<path class="st4" d="M147.6,60.2c0,0,14-17.1,30.8,2"/>
		<path class="st4" d="M74.2,63.2c0,0-3.5,7.7,38.2,4.8"/>
		<path class="st3" d="M119.7,84l11.9-0.3c5.5-5.9,11.1-4.5,11.1-4.5h53.2c0,0,0.9,1.4,5.8,10c4.9,8.4-3.8,8.4-3.8,8.4
			s-3.5,26-32.5,29.2S133.4,102,133.4,102l-15.9-0.3c0,0-7.7,28.9-31.8,26.3c-33.1-3.5-29.3-28.9-29.3-28.9s-5.8-1.7-5.2-6.5
			c0.6-4.8,5.5-10.6,9.5-9.1L119.7,84L119.7,84z"/>
		<path class="st5" d="M101.1,148.3c21.3-0.1,42.7-0.4,64-0.5l-3.1-2.2c-0.1,2.2-0.2,4.5-1.4,6.5c-1.3,2.2-4.1,4.1-6.2,5.9l3-0.6
			c-10.3-3.1-21.8-3.9-32.8-2.5c-2.6,0.3-5.2,0.8-7.7,1.3c-1.3,0.3-2.7,0.6-4,1.1c-0.4,0.1-0.8,0.2-1.2,0.4
			c-0.9,0.2-0.6,0.3,0.9,0.3c0-0.1-1.3-0.8-1.5-0.9c-1.9-1.3-2.4-2.7-3.7-4.2c-1.1-1.5-2.9-2.7-3.4-4.4l-3,2.8
			c10.2-0.8,20.5-1.3,30.9-1.3c5.1,0,10.1,0.1,15.2,0.4c5.1,0.2,10.3,0.8,15.4,0l-3.5-3.3c-1.3,1.3-2.1,2.8-2.9,4.4
			c-0.3,0.6-0.7,1.3-1.2,1.9c-0.1,0.2-0.3,0.4-0.5,0.6c-0.2,0.1-0.4,0.3-0.6,0.4c-0.4,0.3-0.4,0.3,0,0.1c-1.3,0.1-2.8-0.1-4.1-0.3
			c-1.4-0.1-2.8-0.2-4.2-0.3c-2.8-0.2-5.6-0.4-8.3-0.6c-5.6-0.4-11-0.2-16.6,0.4c-1.4,0.1-2.8,0.3-4.2,0.4c-1.3,0.1-3.1,0.1-4.3,0.4
			c-1,0-0.8,0.1,0.4,0.4c-0.2-0.2-0.4-0.4-0.6-0.6c-0.3-0.4-0.6-0.6-0.9-1c-0.7-0.8-1.3-1.7-1.8-2.6l-2.2,2.7
			c3.7-0.8,7.8-0.8,11.7-1c4-0.2,7.9-0.4,12-0.5c4-0.1,8-0.2,12-0.2c2.1,0,4.1,0,6.2,0c0.9,0,1.8,0,2.7,0.1c0.5,0,1,0,1.5,0.1
			c0.3,0,1.7,0.3,0.9,0l-1.1-0.8l0.2,0.3l-0.4-1.1c0-0.4-0.2,0.1-0.3,0.3c-0.2,0.3-0.4,0.5-0.6,0.8c-0.2,0.2-0.4,0.4-0.6,0.6
			c-0.1,0.1-0.2,0.1-0.3,0.2c-0.4,0.3-0.1,0.2,1-0.2c-0.1-0.2-2.4-0.4-2.7-0.5c-1-0.1-2.1-0.2-3.1-0.3c-3.9-0.2-7.8,0-11.7,0.1
			c-8,0.2-16.2,0.6-24.2,0.6c-4,0-4,4.5,0,4.4c7.2-0.1,14.5-0.4,21.7-0.6c3.6-0.1,7-0.2,10.6-0.2c1.6,0,3.1,0,4.7,0.2
			c1.7,0.2,3.4,0.8,5.1,0.6c3-0.2,5.4-2.9,6.2-4.7c0.6-1.3,0.1-2.8-1.7-3.5c-1.6-0.6-3.8-0.5-5.5-0.5c-7.1-0.1-14.4-0.1-21.4,0.2
			c-4.1,0.1-8.2,0.3-12.3,0.6c-4.1,0.2-8.3,0.2-12.1,1.1c-1.5,0.4-2.8,1.6-2.2,2.7c0.9,1.6,1.9,3.3,3.3,4.7c0.7,0.7,1.3,1.5,2.3,2
			c1.3,0.6,2.5,0.5,4,0.4c5.1-0.5,10.1-1.2,15.2-1.3c5.1-0.1,10,0.3,15,0.6c2.6,0.1,5.2,0.4,7.7,0.5c2.6,0.1,5,0.4,7.1-1.1
			c3.4-2.2,3.8-5.7,6.2-8.3c1.7-1.7-1.1-3.6-3.5-3.3c-4.7,0.7-9.7,0-14.4-0.1c-5.1-0.2-10.1-0.3-15.2-0.3c-10.1,0-23.9-0.9-33.9,0
			c-2.1,0.1,0.3,2.6,0.7,4c0.4,1.6,1.6,2.8,2.8,4s1.8,2.5,2.7,3.8c1,1.4,2.7,2.5,4.5,3.6c1,0.6,3.8,3.5,5,3.6
			c1.4,0.1,5.3,2.7,6.5,2.4c2.6,2.3,3.7,0.9,12.6,1.5c5.1,0.4,11.4-0.2,16.3-2.7c0.9,0.3,9.8-4.2,10.4-4.7c2.6-2.3,5.7-4.5,7.3-7.1
			c1.6-2.7,3.9-6.7,4.1-9.6c0-1.2-3.5-1-5.1-1c-21.3,0.1-44.8,0.3-66.2,0.4C94.9,143.9,97.1,148.3,101.1,148.3L101.1,148.3
			L101.1,148.3z"/>
		<path class="st6" d="M123.1,164.4c1.2,0,2.4,0,3.6,0.1c1,0.1,2.2,0,3.2,0.2l-1.5-0.9l0.1,0.1l-0.2-1.5c-0.1-0.1-0.2-0.1-0.3,0.3
			c-0.5,0.5-0.2,0.4,0.7-0.3c-0.1-0.1-1.2,0-1.3,0c-0.9-0.1-1.7-0.3-2.5-0.5c-1.8-0.5-3.5-1.4-5.4-1.6v3.8c4.6-1.5,9.4-2.4,14.3-2.4
			c2.4,0,4.7,0.1,7,0.5c2.3,0.4,4.3,1.6,6.7,2.1v-3.8c-3.2,1-6.5,2-9.9,2.7c-2.9,0.6-6.3,1.1-9.2,0.2l1.1,0.5l-0.2-0.1l0.6,0.9
			l-0.1-0.3v1.1l0.2-0.3l-0.6,0.9c1.1-1,3.3-1.1,4.8-1.3c2.3-0.4,4.7-0.7,7-1.1c1.3-0.2,2-1.5,1.7-2.4c-0.4-1.1-1.7-1.6-3-1.4
			c-1.9,0.3-3.9,0.6-5.8,0.9c-1.5,0.3-3.1,0.4-4.6,0.8c-1.7,0.4-3.6,1.2-4.3,2.6c-0.7,1.7,0.8,2.8,2.6,3.2c7,1.5,18.6-0.5,25.1-2.4
			c2.1-0.6-2.5-3.1-4.4-4.1c-2.1-1.2-4.3-2-6.9-2.5c-2.7-0.4-5.4-0.6-8.1-0.6c-5.4,0.1-10.6,1-15.6,2.6c-1,0.3-5.5,2.7-5.5,3.7
			c0,0.8,4.6,2.1,5.7,2.3c2.2,0.3,4.7,1,6.9,1.5c2,0.4,12.3,1,13.9-0.3c0.6-0.5-6.2-3.3-6-4c0.4-1.1-0.6-2.3-2.1-2.6
			c-2.4-0.5-5.4-0.4-7.9-0.4C119.9,160.5,119.9,164.4,123.1,164.4L123.1,164.4L123.1,164.4z"/>
		<path class="st4" d="M97.3,144h72.3c0.7,0,1.3,0.7,1,1.4c-1.9,5.1-10.4,22.3-37.1,23.3c-26.7,1-35.4-17.9-37.1-23.3
			C96,144.7,96.6,144,97.3,144z"/>
	</g>
</g>
</svg>
