<?xml version="1.0" encoding="utf-8"?>
<!-- Generator: Adobe Illustrator 27.0.1, SVG Export Plug-In . SVG Version: 6.00 Build 0)  -->
<svg version="1.1" xmlns="http://www.w3.org/2000/svg" xmlns:xlink="http://www.w3.org/1999/xlink" x="0px" y="0px"
	 viewBox="0 0 1113.5 149.6" style="enable-background:new 0 0 1113.5 149.6;" xml:space="preserve">
<style type="text/css">
	.st0{fill:#C1951F;}
	.st1{fill:#57210B;}
	.st2{fill:#006837;}
	.st3{fill:#F1F1F1;}
</style>
<g id="GreenScore">
</g>
<g id="Calque_1">
	
		<image style="display:none;overflow:visible;opacity:0.6;" width="828" height="1792" xlink:href="8909F5BE.jpg"  transform="matrix(0.3827 0 0 0.3827 -102.2974 -145.9313)">
	</image>
	<path class="st0" d="M79.2,45.8c0,0-0.1,8.8,8.7,8.6c-8.1,0.2-8.7,9-8.7,9s-0.1-8.8-9-8.8C79.1,54.6,79.2,45.8,79.2,45.8z"/>
	<path class="st0" d="M37.7,70.5c0,0-0.1,7.6,7.5,7.5c-7,0.2-7.5,7.8-7.5,7.8s-0.1-7.6-7.8-7.6C37.6,78.1,37.7,70.5,37.7,70.5z"/>
	<path class="st0" d="M64.2,63.4c0,0,0,3.1,3.1,3c-2.9,0.1-3.1,3.2-3.1,3.2s0-3.1-3.2-3.1C64.1,66.5,64.2,63.4,64.2,63.4z"/>
	<path class="st0" d="M46,59.5c0,0-0.1,4.5,4.4,4.4c-4.1,0.1-4.4,4.5-4.4,4.5s-0.1-4.5-4.5-4.5C45.9,63.9,46,59.5,46,59.5z"/>
	<path class="st0" d="M31.1,61.3c0,0,0,3.1,3.1,3c-2.9,0.1-3.1,3.2-3.1,3.2s0-3.1-3.2-3.1C31,64.4,31.1,61.3,31.1,61.3z"/>
	<path class="st0" d="M126.8,53.3c0,0,0,3.1,3.1,3c-2.9,0.1-3.1,3.2-3.1,3.2s0-3.1-3.2-3.1C126.8,56.4,126.8,53.3,126.8,53.3z"/>
	<path class="st0" d="M44.6,30.3c0,0,0,3.1,3.1,3c-2.9,0.1-3.1,3.2-3.1,3.2s0-3.1-3.2-3.1C44.5,33.4,44.6,30.3,44.6,30.3z"/>
	<path class="st0" d="M64.8,21.2c0,0,0,2.5,2.5,2.5c-2.3,0.1-2.5,2.6-2.5,2.6s0-2.5-2.6-2.5C64.7,23.7,64.8,21.2,64.8,21.2z"/>
	<path class="st0" d="M55,26.2c0,0-0.1,4.7,4.6,4.6c-4.3,0.1-4.6,4.8-4.6,4.8s-0.1-4.7-4.8-4.7C54.9,30.9,55,26.2,55,26.2z"/>
	<path class="st0" d="M107.3,72.2c0,0-0.1,7.6,7.5,7.5c-7,0.2-7.5,7.8-7.5,7.8s-0.1-7.6-7.8-7.6C107.2,79.8,107.3,72.2,107.3,72.2z"
		/>
	<path class="st0" d="M113,53.3c0,0-0.1,4.7,4.6,4.6c-4.3,0.1-4.6,4.8-4.6,4.8s-0.1-4.7-4.8-4.7C113,57.9,113,53.3,113,53.3z"/>
	<path class="st0" d="M106,26.2c0,0-0.1,4.7,4.6,4.6c-4.3,0.1-4.6,4.8-4.6,4.8s-0.1-4.7-4.8-4.7C105.9,30.9,106,26.2,106,26.2z"/>
	<path class="st0" d="M61.1,82.3c0,0-0.1,5.1,5.4,5c-5,0.1-5.4,5.2-5.4,5.2s-0.1-5.1-5.6-5.1C61,87.4,61.1,82.3,61.1,82.3z"/>
	<path class="st1" d="M59.5,11.1l1.4,5c0,0-43.1,12.3-38.3,62.2c-2.8-1.8-5.1-4.9-5.1-4.9S13.1,28.4,59.5,11.1z"/>
	<path class="st1" d="M100.3,11.1l-1.4,5c0,0,43.1,12.3,38.3,62.2c2.8-1.8,5.1-4.9,5.1-4.9S146.6,28.4,100.3,11.1z"/>
	<path class="st2" d="M74.7,149.5c0,0-7.4,2-29.5-12.6c-14.1-8.4-31.6-27.1-32.9-30.2c-1-2.5-5.7-23-7.6-30.2c-0.5-2,0.4-4.1,2.2-5
		c1.2-0.6,2.7-0.5,4.2,1.5c1.7,4.6,10.4,29.7,12.4,30.9l12.7,9.2c0,0,4.7-3,15.8,7.3c1.3,1.3,3.4,0.3,2.1-2.2
		c-1.1-1.9-16.6-12.5-22.7-16.7c-2.1-1.4-4-3.8-3.9-6.4c0.1-2.6,2.3-5.7,8.4-2.9c10.9,5,25.5,16.3,25.5,16.3S77.7,120.6,74.7,149.5z
		"/>
	<path class="st2" d="M84.8,149.5c0,0,7.4,2,29.5-12.6c14.1-8.4,31.6-27.1,32.9-30.2c1-2.5,5.7-23,7.6-30.2c0.5-2-0.4-4.1-2.2-5
		c-1.2-0.6-2.7-0.5-4.2,1.5c-1.7,4.6-10.4,29.7-12.4,30.9l-12.7,9.2c0,0-4.7-3-15.8,7.3c-1.3,1.3-3.4,0.3-2.1-2.2
		c1.1-1.9,16.6-12.5,22.7-16.7c2.1-1.4,4-3.8,3.9-6.4c-0.1-2.6-2.3-5.7-8.4-2.9c-10.9,5-25.5,16.3-25.5,16.3S81.9,120.6,84.8,149.5z
		"/>
</g>
<g id="FEUILLE_00000009590611113775296670000011454149468947557268_">
	<path class="st2" d="M66.8,9.3c0,0,12.4-0.6,10.9,11.9c0.2,1.8,0.1,2.5,0.1,2.8c0,0.1-0.1,0.1-0.1,0c-0.3-0.3-0.5-1.1-1.1-1.7
		C74.3,22.3,64.8,22.6,66.8,9.3z"/>
	<path class="st3" d="M73.3,17.3c0,0,1.6,1.1,2.7,3"/>
	<path class="st2" d="M93,3.9c0,0-19.1,0.2-15.7,19.3c-0.1,2.8,0,3.9,0.1,4.2c0,0.1,0.2,0.1,0.2,0.1c0.4-0.5,0.6-1.7,1.6-2.7
		C82.7,24.6,97.4,24.3,93,3.9z"/>
	<path class="st3" d="M83.3,16.5c0,0-2.2,2.1-3.2,5.3"/>
	<polygon class="st2" points="77.8,31.8 79.9,31.8 79.9,22.6 77.2,22.6 77.2,31.8 	"/>
</g>
<g id="_x3F_">
	<path class="st1" d="M74.5,92.5h9.1c0.7,0,1.4-0.6,1.4-1.4c0-1.6,0.2-4.5,1-7.5c1-3.2,3.1-5.9,5.9-7.6c8.1-5.1,15-11.3,14.2-22.6
		c-0.4-5.1-3.8-12.4-7.3-16.2c-5.5-5.9-10.3-7.2-15.1-7.7c-2.3-0.2-7.4-0.1-10,0.6c-5.5,1.6-19,5-20,26.3c-0.1,1.2,0.9,2.1,2.1,2.1
		c4,0,6.4-0.1,7.8-0.1c1.1,0,2-0.9,2.1-2c0.3-4.5,3.2-15.5,13.9-15.7c13.5-0.3,14.4,11.6,14.1,14.6c-0.3,2.9,0.3,7-11.9,13.3
		c-8.8,4.6-8.7,18.2-8.4,22.4C73.3,92,73.9,92.5,74.5,92.5z"/>
	<circle class="st1" cx="79.1" cy="105.9" r="6.7"/>
</g>
<g id="FEUILLE">
	<path class="st2" d="M111.5,38.3c0,0,11.3-2.3,11.7,9.4c0.4,1.7,0.5,2.3,0.5,2.5c0,0.1-0.1,0.1-0.1,0.1c-0.3-0.2-0.6-0.9-1.3-1.4
		C120.3,49.2,111.6,50.9,111.5,38.3z"/>
	<path class="st3" d="M118.7,44.8c0,0,1.7,0.8,2.9,2.4"/>
</g>
<g id="FEUILLE_00000040563937473725673880000012247549922297116042_">
	<path class="st2" d="M49.4,70.6c0,0,8.8-1.8,9.2,7.3c0.3,1.3,0.4,1.8,0.4,2c0,0.1-0.1,0.1-0.1,0c-0.2-0.2-0.5-0.7-1-1.1
		C56.2,79.1,49.4,80.4,49.4,70.6z"/>
	<path class="st3" d="M55,75.7c0,0,1.3,0.6,2.2,1.9"/>
</g>
<g id="FEUILLE_00000085961596888029956420000013985894146805925561_">
	<path class="st2" d="M48.8,39.4c0,0-15.7-2.3-15.4,13.8c-0.4,2.3-0.5,3.2-0.5,3.5c0,0.1,0.1,0.1,0.2,0.1c0.4-0.3,0.7-1.3,1.7-2
		C37.6,55.1,49.7,56.7,48.8,39.4z"/>
	<path class="st3" d="M39.1,48.5c0,0-2.1,1.4-3.4,3.9"/>
</g>
<g id="FEUILLE_00000005960510704988495250000016830030231339171205_">
	<path class="st2" d="M127.1,66.7c0,0-11.2,0.4-8.9,11.5c0,1.7,0.1,2.3,0.1,2.5c0,0.1,0.1,0.1,0.1,0c0.2-0.3,0.3-1,0.9-1.6
		C121.3,79,129.9,78.6,127.1,66.7z"/>
	<path class="st3" d="M121.5,74.2c0,0-1.3,1.3-1.8,3.2"/>
	<g>
		<g>
			<path class="st1" d="M248.3,135c-8.4,0-16.1-1.3-23.1-4c-7-2.6-13.1-6.4-18.3-11.2c-5.2-4.8-9.2-10.6-12.1-17.3
				c-2.9-6.7-4.4-14-4.4-22c0-8,1.4-15.3,4.4-22c2.9-6.7,7-12.5,12.2-17.3c5.2-4.8,11.4-8.6,18.5-11.2c7.1-2.6,14.9-4,23.5-4
				c9.8,0,18.6,1.6,26.4,5c7.8,3.3,14.2,8.1,19.3,14.2l-18.9,17.1c-3.6-4-7.5-6.9-11.6-8.9c-4.2-1.9-8.8-2.9-13.9-2.9
				c-4.5,0-8.6,0.7-12.3,2.1c-3.7,1.4-6.9,3.4-9.5,6.1c-2.6,2.7-4.6,5.8-6.1,9.5c-1.5,3.7-2.2,7.8-2.2,12.3c0,4.4,0.7,8.5,2.2,12.1
				c1.4,3.7,3.5,6.9,6.1,9.5c2.6,2.7,5.7,4.7,9.4,6.2c3.6,1.5,7.7,2.2,12.1,2.2c4.4,0,8.7-0.7,12.9-2.2c4.2-1.4,8.4-3.9,12.8-7.4
				l16.6,20.9c-6.1,4.3-13.1,7.6-20.9,9.9C263.6,133.8,255.9,135,248.3,135z M266,117.9V78.1h26.4v43.5L266,117.9z"/>
			<path class="st1" d="M309.9,132.9V51.4h27.3v23.9l-4.2-6.8c2.5-6.1,6.4-10.7,11.8-13.8c5.3-3.1,11.9-4.6,19.6-4.6v25.8
				c-1.3-0.2-2.5-0.3-3.4-0.4c-1,0-2-0.1-3-0.1c-5.8,0-10.5,1.6-14.1,4.7c-3.6,3.1-5.4,8.3-5.4,15.4v37.4H309.9z"/>
			<path class="st1" d="M419.1,134.2c-9.7,0-18.1-1.8-25.3-5.5c-7.2-3.6-12.7-8.6-16.7-15c-4-6.3-5.9-13.5-5.9-21.5
				c0-8.2,1.9-15.5,5.8-21.8c3.8-6.3,9.1-11.3,15.9-14.9s14.4-5.4,23-5.4c8,0,15.3,1.7,21.8,5c6.5,3.4,11.8,8.2,15.8,14.4
				c3.9,6.3,5.9,13.9,5.9,22.9c0,1-0.1,2.2-0.2,3.5c-0.1,1.3-0.2,2.5-0.3,3.6h-64.3v-15h49.2l-10.8,4.2c0.1-3.6-0.6-6.8-2-9.5
				c-1.5-2.7-3.4-4.9-5.9-6.4c-2.5-1.5-5.5-2.2-8.9-2.2c-3.5,0-6.6,0.8-9.1,2.2c-2.6,1.5-4.6,3.6-5.9,6.4c-1.3,2.8-2,6-2,9.7v4.4
				c0,4,0.8,7.5,2.5,10.4c1.7,2.9,4,5.1,7.1,6.7c3.1,1.6,6.8,2.3,11.1,2.3c4.1,0,7.5-0.6,10.3-1.7c2.8-1.1,5.6-2.9,8.4-5.3
				l14.8,15.8c-3.8,4.2-8.5,7.4-14.2,9.7S426.8,134.2,419.1,134.2z"/>
			<path class="st1" d="M515.4,134.2c-9.7,0-18.1-1.8-25.3-5.5c-7.2-3.6-12.7-8.6-16.7-15c-4-6.3-5.9-13.5-5.9-21.5
				c0-8.2,1.9-15.5,5.8-21.8c3.8-6.3,9.1-11.3,15.9-14.9s14.4-5.4,23-5.4c8,0,15.3,1.7,21.8,5c6.5,3.4,11.8,8.2,15.8,14.4
				c3.9,6.3,5.9,13.9,5.9,22.9c0,1-0.1,2.2-0.2,3.5c-0.1,1.3-0.2,2.5-0.3,3.6H491v-15h49.2l-10.8,4.2c0.1-3.6-0.6-6.8-2-9.5
				c-1.5-2.7-3.4-4.9-5.9-6.4c-2.5-1.5-5.5-2.2-8.9-2.2c-3.5,0-6.6,0.8-9.1,2.2c-2.6,1.5-4.6,3.6-5.9,6.4c-1.3,2.8-2,6-2,9.7v4.4
				c0,4,0.8,7.5,2.5,10.4c1.7,2.9,4,5.1,7.1,6.7c3.1,1.6,6.8,2.3,11.1,2.3c4.1,0,7.5-0.6,10.3-1.7c2.8-1.1,5.6-2.9,8.4-5.3
				l14.8,15.8c-3.8,4.2-8.5,7.4-14.2,9.7S523.1,134.2,515.4,134.2z"/>
			<path class="st1" d="M621.9,50.1c6.3,0,12,1.3,17.1,3.9c5.1,2.6,9.1,6.6,12.1,11.9c2.9,5.3,4.4,12.1,4.4,20.5v46.5h-28.7V91
				c0-5.8-1.2-10-3.5-12.7c-2.4-2.6-5.5-4-9.5-4c-3.1,0-5.9,0.7-8.4,2c-2.5,1.4-4.5,3.4-5.8,6.2c-1.4,2.8-2.1,6.5-2.1,11.1v39.1H569
				V51.4h27.3v23.3l-5.4-6.8c3.1-5.8,7.4-10.2,12.8-13.3C609,51.6,615.1,50.1,621.9,50.1z"/>
			<path class="st1" d="M711.6,135c-8.7,0-17-1.1-25-3.2s-14.4-4.9-19.3-8.2l9.8-22.1c4.7,3,10.1,5.5,16.3,7.4
				c6.2,1.9,12.3,2.9,18.4,2.9c4.2,0,7.5-0.3,10-1c2.4-0.7,4.2-1.7,5.4-3c1.1-1.3,1.7-2.9,1.7-4.7c0-2.3-1.1-4.1-3.3-5.5
				c-2.2-1.4-5.1-2.5-8.6-3.5c-3.6-0.9-7.4-1.8-11.5-2.7c-4.2-0.8-8.4-2-12.7-3.4c-4.3-1.4-8.2-3.2-11.7-5.5c-3.5-2.3-6.3-5.3-8.5-9
				c-2.2-3.7-3.2-8.3-3.2-14c0-6.2,1.7-11.8,5.1-16.9c3.4-5.1,8.5-9.2,15.5-12.3c6.9-3.1,15.5-4.6,25.8-4.6c6.9,0,13.7,0.8,20.3,2.3
				c6.6,1.6,12.5,3.9,17.6,7l-9,21.9c-5-2.8-10-4.8-14.9-6.1c-4.9-1.3-9.7-2-14.2-2c-4.1,0-7.4,0.5-9.9,1.4
				c-2.5,0.9-4.3,2.1-5.4,3.4c-1.1,1.4-1.7,2.9-1.7,4.5c0,2.4,1.1,4.3,3.3,5.6c2.2,1.4,5,2.5,8.5,3.3c3.5,0.9,7.4,1.7,11.6,2.6
				c4.2,0.9,8.5,2,12.7,3.4s8.1,3.1,11.6,5.4c3.5,2.2,6.4,5.2,8.6,8.9c2.2,3.7,3.3,8.2,3.3,13.7c0,6.1-1.7,11.7-5.2,16.9
				c-3.5,5.2-8.6,9.3-15.5,12.4C730.7,133.4,722,135,711.6,135z"/>
			<path class="st1" d="M812,134.2c-9.1,0-17.2-1.8-24.2-5.4c-7-3.6-12.5-8.6-16.5-14.9c-4-6.3-6-13.6-6-21.7c0-8.2,2-15.5,6-21.8
				c4-6.3,9.5-11.3,16.5-14.9c7-3.6,15-5.5,24.2-5.5c9.2,0,17.1,2,23.8,5.9c6.7,4,11.4,9.4,14.2,16.4l-22,11.4
				c-1.9-3.8-4.3-6.6-7-8.3c-2.8-1.7-5.9-2.6-9.2-2.6s-6.3,0.8-8.9,2.2c-2.7,1.5-4.8,3.7-6.4,6.5c-1.6,2.8-2.4,6.4-2.4,10.6
				c0,4.1,0.8,7.6,2.4,10.5c1.6,2.9,3.7,5.1,6.4,6.6c2.6,1.5,5.6,2.2,8.9,2.2s6.3-0.9,9.2-2.6c2.8-1.7,5.1-4.5,7-8.3l22,11.2
				c-2.8,7-7.6,12.5-14.2,16.4C829.1,132.2,821.2,134.2,812,134.2z"/>
			<path class="st1" d="M901.7,134.2c-8.9,0-16.8-1.8-23.7-5.4c-6.9-3.6-12.3-8.6-16.3-14.9c-4-6.3-5.9-13.6-5.9-21.7
				c0-8.2,2-15.5,5.9-21.8c3.9-6.3,9.4-11.3,16.3-14.9s14.8-5.4,23.7-5.4c8.9,0,16.8,1.8,23.8,5.4c6.9,3.6,12.4,8.6,16.4,14.9
				c3.9,6.4,5.9,13.6,5.9,21.8c0,8.1-2,15.3-5.9,21.7c-4,6.4-9.4,11.3-16.4,14.9C918.5,132.4,910.6,134.2,901.7,134.2z M901.7,111.6
				c3.2,0,6.1-0.8,8.6-2.2s4.6-3.7,6.1-6.7c1.5-2.9,2.3-6.5,2.3-10.6c0-4.2-0.8-7.7-2.3-10.5c-1.6-2.8-3.6-5-6.1-6.5
				s-5.4-2.2-8.6-2.2c-3.2,0-6.1,0.8-8.6,2.2s-4.6,3.7-6.2,6.5c-1.6,2.8-2.3,6.3-2.3,10.5c0,4.1,0.8,7.6,2.3,10.6
				c1.5,3,3.6,5.2,6.2,6.7S898.5,111.6,901.7,111.6z"/>
			<path class="st1" d="M960.8,132.9V51.4h27.3v23.9l-4.2-6.8c2.5-6.1,6.4-10.7,11.8-13.8c5.3-3.1,11.9-4.6,19.6-4.6v25.8
				c-1.3-0.2-2.5-0.3-3.4-0.4c-1,0-2-0.1-3-0.1c-5.8,0-10.5,1.6-14.1,4.7c-3.6,3.1-5.4,8.3-5.4,15.4v37.4H960.8z"/>
			<path class="st1" d="M1070,134.2c-9.7,0-18.1-1.8-25.3-5.5c-7.2-3.6-12.7-8.6-16.7-15c-4-6.3-5.9-13.5-5.9-21.5
				c0-8.2,1.9-15.5,5.8-21.8c3.8-6.3,9.1-11.3,15.9-14.9s14.4-5.4,23-5.4c8,0,15.3,1.7,21.8,5c6.5,3.4,11.8,8.2,15.8,14.4
				c3.9,6.3,5.9,13.9,5.9,22.9c0,1-0.1,2.2-0.2,3.5c-0.1,1.3-0.2,2.5-0.3,3.6h-64.3v-15h49.2l-10.8,4.2c0.1-3.6-0.6-6.8-2-9.5
				c-1.5-2.7-3.4-4.9-5.9-6.4c-2.5-1.5-5.5-2.2-8.9-2.2c-3.5,0-6.6,0.8-9.1,2.2c-2.6,1.5-4.6,3.6-5.9,6.4c-1.3,2.8-2,6-2,9.7v4.4
				c0,4,0.8,7.5,2.5,10.4c1.7,2.9,4,5.1,7.1,6.7c3.1,1.6,6.8,2.3,11.1,2.3c4.1,0,7.5-0.6,10.3-1.7c2.8-1.1,5.6-2.9,8.4-5.3
				l14.8,15.8c-3.8,4.2-8.5,7.4-14.2,9.7S1077.7,134.2,1070,134.2z"/>
		</g>
	</g>
</g>
</svg>
