<?xml version="1.0" encoding="UTF-8"?>
<svg id="Calque_2" data-name="Calque 2" xmlns="http://www.w3.org/2000/svg" viewBox="0 0 350.66 649.24">
  <defs>
    <style>
      .cls-1 {
        fill: #fbeae1;
      }

      .cls-1, .cls-2, .cls-3, .cls-4, .cls-5, .cls-6, .cls-7, .cls-8, .cls-9 {
        stroke-width: 0px;
      }

      .cls-2 {
        fill: #76cae1;
      }

      .cls-3 {
        fill: #c8cccc;
      }

      .cls-5 {
        fill: #e3bc74;
      }

      .cls-10 {
        stroke: #1d1d1b;
      }

      .cls-10, .cls-11 {
        fill: none;
        stroke-miterlimit: 10;
      }

      .cls-6 {
        fill: #484f4e;
      }

      .cls-11 {
        stroke: #040202;
      }

      .cls-7 {
        fill: #fff;
      }

      .cls-8 {
        fill: #967d16;
      }

      .cls-9 {
        fill: #707674;
      }
    </style>
  </defs>
  <g id="Calque_2-2" data-name="Calque 2">
    <g>
      <g>
        <path class="cls-5" d="M262.38,243.51l-1.93-2.02-24.2-25.36s-8.98-9.31-9.86-6.94c-1.31-1.79-11.14-16.16,5.93-20.28,18.21-4.41,28.13-7.69,28.13-7.69,0,0,28.97-13.8,20.04-26.76,0,0,43.78-51.47-9.65-57.78-.89-4.27-1.74-7.04-1.74-7.04l-61.95,2.98-42.82,2.06-19.08.92s-1.36,8.86-.47,19.04c-19.85,26.01-36.55,69,48.43,76.41,0,0,15.22,15.36,13.28,20.43,0,0-.59,1.05-1.32,2.64,0,0-2.76-2.03-4.84,2.18-1.73,3.49-16.09,32.36-20.93,42.08-.99,1.99-1.58,3.18-1.58,3.18,0,0-10.33,17.8-11.18,19.51,0,0,1.69,3.61-21.48-1.21-22.33-16.84-1.58-39.67-1.58-39.67,0,0-20.31,10.79-29.69,15.77,3.41-1.82,10.51-16.85,5.78-27.47-4.73-10.61-36.53-31.9-5.78-71.84,0,0-11.04,8.14-13.24,8.41,0,0-10.94-20.24,25.06-47.04,0,0,9.2-10.95-1.31-22.42-10.51-11.48-2.27-37.23-2.27-37.23-2.8,4.21-18.75,0-18.75,0,0,0,20.76-50.19,62.54-39.94,0,0-4.21-12.88,1.31-17.87,0,0,12.61,3.68,13.67,11.3,0,0,41.51-1.05,40.2,9.72,0,0,136.12-3.67,110.37,159.64,0,0,62.31,54.3-40.58,95.14h-.01c-1.35-3.7-3.56-5.89-3.56-5.89l-9.02-10.28-13.51-14.15-2.41-2.53Z"/>
        <path class="cls-7" d="M320.32,542.43c5.68,35.64-9.19,82.62-9.19,82.62-2.21,10.13-4.89,7.49-4.89,7.49-12.88,1.97-37.64-.4-37.64-.4,0,0-1-2.71,0-5.95l35.39.34s12.64-14.58,10.33-83.21c0,0,5.47-4.22,6-.89Z"/>
        <path class="cls-8" d="M301.12,611.58c4.79-2.5,1.09-5.7,1.09-5.7,0,0-2.19-.54-4.85-.7v-.12s7.83-2.94,3.47-7.09c-1.86-1.77-4.11-1.87-6.07-1.42l-.23-.79c4.15-1.19,6.17-3.31,6.17-3.31,0,0,2.25-2.02-2.28-4.55-1.84-1.03-4.04-.72-5.98,0l-.02-.05c2.61-1.04,4.56-2.62,4.56-2.62,0,0,6.83-6.96-1.7-6.7-1.35.04-2.53.21-3.55.46-1.64-1.18-8.54-6.53-2.03-8.31,3.76-1.03,5.9-4.22,6.55-8.24.53-3.34.04-7.25-1.44-10.97-.21-.56-.46-1.12-.72-1.67,0,0-7.33-5.08-.22-5.98,7.11-.89,20.26-2.34,20.45-.5,2.31,68.63-10.33,83.21-10.33,83.21l-35.39-.34c1.28-4.16,5.88-9.21,20.15-10.52,0,0-.5-3.43,1.79-1.92l1.06-1.62.15-.41c2.28.84,8.23.03,9.34-.13.01,0,.02,0,.03,0Z"/>
        <path class="cls-7" d="M302.21,605.88s3.7,3.2-1.09,5.7c0,0-.02,0-.03,0-1.11.16-7.06.97-9.34.13-.05-.01-.1-.03-.15-.05-2.38-1.01-4.54-4.14-.3-5.79.1-.04.21-.08.32-.11,1.75-.61,3.87-.7,5.74-.59,2.66.16,4.85.7,4.85.7Z"/>
        <path class="cls-7" d="M300.83,597.97c4.36,4.15-3.46,7.09-3.46,7.09v.12c-1.88-.11-4-.02-5.75.59l-.02-.07c-7.08-1.21-1.65-6.87-1.65-6.87,0,0,2.15-1.66,4.81-2.28,1.96-.45,4.21-.35,6.07,1.42Z"/>
        <path class="cls-7" d="M298.42,587.9c4.53,2.53,2.28,4.55,2.28,4.55,0,0-2.02,2.12-6.17,3.31-1.18.34-2.53.61-4.06.73-6.9.54-2.93-5.82-2.93-5.82,0,0,2.2-1.77,4.9-2.77,1.94-.72,4.14-1.03,5.98,0Z"/>
        <path class="cls-7" d="M287.46,581.07c.98-.82,2.36-1.6,4.27-2.08,1.02-.25,2.2-.42,3.55-.46,8.53-.26,1.7,6.7,1.7,6.7,0,0-1.95,1.58-4.56,2.62-1.83.73-3.98,1.19-6.01.68-4.94-1.26-1.29-4.31-1.29-4.31.05-.04.53-1.65,2.34-3.15Z"/>
        <path class="cls-7" d="M294.81,551.47c1.48,3.72,1.97,7.63,1.44,10.97-6.23.53-10.63,1.45-13.67,2.54l-.03-.07c-6.75-1.64-7.04-2.38-7.04-2.49,2.31-2.86,5.11-7.63,5.28-14.05,2.05.66,9.7,3.45,13.88,3.16l.14-.06Z"/>
        <path class="cls-1" d="M261.48,286.8l-19.34-18.34,22.65-22.42,13.51,14.15,9.02,10.28s2.21,2.19,3.56,5.89c1.09,2.99,1.62,6.97-.03,11.59-2.47,6.89-26.07,34.64-41.54,52.37-7.71,8.86-13.39,15.21-13.39,15.21-2.13-2.45-4.25-6.52-5.78-9.84l.25-.11s4.11-8.76,9.38-19.67h0c1.15-2.4,2.38-4.91,3.62-7.45,3.73-7.61,7.68-15.51,11.01-21.79,2.39-4.52,4.81-7.68,7.07-9.87Z"/>
        <path class="cls-8" d="M296.25,562.44c-.65,4.02-2.79,7.21-6.55,8.24-6.51,1.78.39,7.13,2.03,8.31-1.91.48-3.29,1.26-4.27,2.08-1.05-1.39-5.53-7.12-8.79-8.36-2.66-1.01-3.95-4.91,3.91-7.73,3.04-1.09,7.44-2.01,13.67-2.54Z"/>
        <path class="cls-1" d="M202.22,130.18c-1.37-5.22-1.62-10.65,3.26-10.69,1.1-.01,2.46.26,4.13.86l.24-.08c8.8,26.44,34.93,23.28,40.16,22.37.72-.13,1.44-.19,2.17-.24,24.91-1.62,21.58-31.73,18.66-45.72,53.43,6.31,9.65,57.78,9.65,57.78,8.93,12.96-20.04,26.76-20.04,26.76,0,0-9.92,3.28-28.13,7.69-17.07,4.12-7.24,18.49-5.93,20.28-.15.4-.06,1.13.33,2.29,2.72,8.07-10.87,16.71-10.87,16.71,0,0-3.68,3.35-10.68.75-4.53-1.68-2.63-8.52-.74-13.12.01-.03.02-.05.02-.05.25-.6.49-1.15.72-1.65.73-1.59,1.32-2.64,1.32-2.64,1.94-5.07-13.28-20.43-13.28-20.43-84.98-7.41-68.28-50.4-48.43-76.41,1.28,14.55,7.18,31.82,28.28,29.8,1.58-.15,3.17-.19,4.75-.1,5.62.33,20.1-.23,24.41-14.16Z"/>
        <path class="cls-9" d="M275.51,562.42c-1.66,2.05-3.07,3.12-3.07,3.12-17.15.38-11.63-6.83-11.63-6.83l.08-.33c1.34.32,2.7.62,4.09.9l.05.04c2.32-2.46,5.45-7.93,5.08-19.37l-.51.02c-.95-.07-1.91-.21-2.86-.41,0,0,2.35-5.74,7.08-1.99,0,0,5.05.37,5.46,1.57,1.16,3.37,1.58,6.46,1.51,9.23-.17,6.42-2.97,11.19-5.28,14.05Z"/>
        <path class="cls-1" d="M270.84,96.68c2.92,13.99,6.25,44.1-18.66,45.72-.73.05-1.45.11-2.17.24-5.23.91-31.36,4.07-40.16-22.37-1.1-3.31-1.93-7.09-2.41-11.4-.53-4.63-.65-9.87-.27-15.81l-.02-.44,61.95-2.98s.85,2.77,1.74,7.04ZM254.94,110.84c0-4.26-3.45-7.71-7.71-7.71s-7.71,3.45-7.71,7.71,3.45,7.71,7.71,7.71,7.71-3.45,7.71-7.71Z"/>
        <path class="cls-6" d="M270.11,539.95c.37,11.44-2.76,16.91-5.08,19.37l-.05-.04c-1.39-.28-2.75-.58-4.09-.9-54.98-12.89-71.88-55.27-71.88-55.27,6.08-14.19,12.08-28.45,17.76-42.08,0,0,29.45,72.1,59.97,78.53.95.2,1.91.34,2.86.41l.51-.02Z"/>
        <polygon class="cls-2" points="262.38 243.51 264.79 246.04 242.14 268.46 240.26 270.32 240.26 270.33 238.71 271.86 237.43 268.44 262.38 243.51"/>
        <path class="cls-7" d="M184.53,262.28l-5.13-3.9c4.84-9.72,19.2-38.59,20.93-42.08,2.08-4.21,4.84-2.18,4.84-2.18-.23.5-.47,1.05-.72,1.65,0,0,0,.02-.02.05-.52.98-8.98,17.5.02,20.77,9.29,3.36,26.99-5.05,22.08-27.21,0,0-.05-.06-.14-.19.88-2.37,9.86,6.94,9.86,6.94l24.2,25.36,1.93,2.02-24.95,24.93,1.28,3.42,1.55-1.53,3.14,48.13c-1.24,2.54-2.47,5.05-3.62,7.45h0c-53.49,6.04-69.56,1.51-73.22-.02-.14.9-.27,1.83-.4,2.77-3.27-.29-1.86-4.62-1.86-4.62l9.89-30.17,9.06-27.66,1.29-3.93Z"/>
        <circle class="cls-4" cx="247.23" cy="110.84" r="7.71"/>
        <path class="cls-6" d="M167.6,453.52c-1.33-2.41-4.34-9.46-4.02-23.32,0,0-2.25-65.78,2.57-101.54.13-.94.26-1.87.4-2.77,3.66,1.53,19.73,6.06,73.22.02-5.27,10.91-9.38,19.67-9.38,19.67l-.25.11c1.53,3.32,3.65,7.39,5.78,9.84,0,0,5.68-6.35,13.39-15.21h.01s1.55,13.67-6.42,32.68c-4.01,9.58-18.52,45.78-36.13,88.03-5.68,13.63-11.68,27.89-17.76,42.08-11.74,27.43-23.75,54.63-34.24,76.6-.63,1.31-1.24,2.59-1.86,3.86-15.21-1.04-21.74-6.08-24.39-9.35.44-1.69.91-3.41,1.4-5.18,8.7-31.64,23.27-74.85,37.68-115.52Z"/>
        <path class="cls-2" d="M215.85,228.19s13.59-8.64,10.87-16.71c-.39-1.16-.48-1.89-.33-2.29.09.13.14.19.14.19,4.91,22.16-12.79,30.57-22.08,27.21-9-3.27-.54-19.79-.02-20.77-1.89,4.6-3.79,11.44.74,13.12,7,2.6,10.68-.75,10.68-.75Z"/>
        <path class="cls-1" d="M207.43,108.87c.53,3.29-1.95,10.62-1.95,10.62-4.88.04-4.63,5.47-3.26,10.69-4.31,13.93-18.79,14.49-24.41,14.16-1.58-.09-3.17-.05-4.75.1-21.1,2.02-27-15.25-28.28-29.8,8.58-11.25,17.76-19.32,19.55-19.96l42.82-2.06.02.44c-.38,5.94-.26,11.18.27,15.81h-.01ZM192.24,117.12c0-4.26-3.45-7.71-7.71-7.71s-7.71,3.45-7.71,7.71,3.45,7.71,7.71,7.71,7.71-3.45,7.71-7.71Z"/>
        <circle class="cls-4" cx="184.53" cy="117.12" r="7.71"/>
        <path class="cls-2" d="M184.53,262.28l-1.29,3.93-5.42-4.65s.59-1.19,1.58-3.18l5.13,3.9Z"/>
        <path class="cls-1" d="M40.39,236.33c1.21.22,40.18,7.62,50.02,22.51.74,1.12,11.69,8.67,11.69,8.67,9.39,3.1,38.33,11.33,38.33,11.33,1.68.38,3.26.72,4.73,1.02,23.17,4.82,21.48,1.21,21.48,1.21.85-1.71,11.18-19.51,11.18-19.51l5.42,4.65-9.06,27.66c-2.61,4.41-8.55,2.8-8.55,2.8l-71.14-19.16c-.79.17-19.97.47-24.86-1.54s-23.84,3.77-23.84,3.77c-9.55-.59-1.99-9.3-1.99-9.3,12.82-4.29,21.91-1.36,21.91-1.36l-30.03-26.43s-4.46-11.75,2.51-7.73c.64.37,1.37.84,2.17,1.4.01,0,.02.01.03.01Z"/>
        <path class="cls-5" d="M145.25,95.6l19.08-.92c-1.79.64-10.97,8.71-19.55,19.96-.89-10.18.47-19.04.47-19.04Z"/>
        <path class="cls-9" d="M152.91,583.57c.62-1.27,1.23-2.55,1.86-3.86,0,0,6.32,3.36.89,8.95,0,0-1.12,6.45-2.71,6.83-4.18.99-7.95,1.18-11.33.84-6.11-.62-10.91-2.99-14.43-5.54-4.91-3.56-7.32-7.48-7.32-7.48,1.55-19.93,8.67-15.36,10.05-14.27-.49,1.77-.96,3.49-1.4,5.18,2.65,3.27,9.18,8.31,24.39,9.35Z"/>
        <path class="cls-7" d="M141.62,596.33l-5.55,14.89-.03.29c-3.42-.38-8-1.09-11.52-2.37l.08-.21c.19-4.68.07-8.36-.28-11.2h.11s2.76-6.94,2.76-6.94c3.52,2.55,8.32,4.92,14.43,5.54Z"/>
        <path class="cls-8" d="M140.89,611.91c8.09,21.24-2.1,29.69-2.1,29.69,0,0-52.59-3.61-93.84-63.97h0c6.1-.58,16.25,2.35,30.25,19.3h2.74c-.17.76-.11,1.42-.11,1.42,2.5,3.06,3.43,9.94,3.43,9.94,2.7,6.17,7.01,1.19,7.01,1.19.15-.54.25-1.06.32-1.58,2.33,4.85,5.26,4.01,5.26,4.01,0,0,3.11-.11,2.69-4.76.29,1.05,5.68,7.04,8.02,5.19,1.08-.86,1.69-2.28,1.56-4.19.69,1.28,4.21,3.23,4.21,3.23,8.92,3.74,4.24-6.78,4.24-6.78l-1.07-1.51c.2-.19,5.52-5.2,5.67,1.28.04,2.13,2.3,3.66,5.35,4.77,3.52,1.28,8.1,1.99,11.52,2.37,2.82.31,4.85.4,4.85.4Z"/>
        <path class="cls-7" d="M138.79,641.6c2.3,3.64-1.05,7.09-1.05,7.09-87.92-21.67-99.59-68.32-99.59-68.32,0,0,2.29-2.33,6.8-2.75h0c41.25,60.37,93.84,63.98,93.84,63.98Z"/>
        <path class="cls-8" d="M124.32,597.73c.35,2.84.47,6.52.28,11.2l-.08.21c-3.05-1.11-5.31-2.64-5.35-4.77-.15-6.48-5.47-1.47-5.67-1.28l-2.52-3.54c-.54-1.1-1.1-1.99-1.66-2.69l.13-.11s12.55-18.06,14.87.98Z"/>
        <path class="cls-7" d="M113.5,603.09l1.07,1.51s4.68,10.52-4.24,6.78c0,0-3.52-1.95-4.21-3.23-.16-2.4-1.49-5.57-4.53-9.43-.47-.6-.92-1.1-1.35-1.52,0,0,4.63-5.99,9.08-.34.56.7,1.12,1.59,1.66,2.69l2.52,3.54Z"/>
        <path class="cls-7" d="M106.12,608.15c.13,1.91-.48,3.33-1.56,4.19-2.34,1.85-7.73-4.14-8.02-5.19-.01-.05-.02-.08-.01-.11-.16-1.59-.73-3.72-1.98-6.54-.5-1.14-.99-2.07-1.46-2.82,0,0,2.54-4.94,7.15-.48.43.42.88.92,1.35,1.52,3.04,3.86,4.37,7.03,4.53,9.43Z"/>
        <path class="cls-7" d="M96.54,607.15c.42,4.65-2.69,4.76-2.69,4.76,0,0-2.93.84-5.26-4.01.59-3.97-.79-7.39-2.68-9.74,0,0,2.98-7.16,7.18-.48.47.75.96,1.68,1.46,2.82,1.25,2.82,1.82,4.95,1.98,6.54-.01.03,0,.06.01.11Z"/>
        <path class="cls-7" d="M88.59,607.9c-.07.52-.17,1.04-.32,1.58,0,0-4.31,4.98-7.01-1.19,0,0-.93-6.88-3.43-9.94,0,0-.06-.66.11-1.42.25-1.1.97-2.39,3.04-2.11,1.47.19,3.38,1.4,4.93,3.34,1.89,2.35,3.27,5.77,2.68,9.74Z"/>
        <path class="cls-3" d="M3.5,217.07l.02-.55,20.67.8s1.76-.57,1.67,5.45,0,18.51,0,18.51c0,0,.41.34-.18.76h0c-.48.01-14.43.24-18.91.41-4.55.18-3.91-1.67-3.91-1.67,0,0-.38-17.68-.64-20.75-.24-2.87,1.12-2.96,1.29-2.96ZM11.54,238.34c.22.21.5.25.83.08l6.39.11s2.46-.15,2.28-4.99c0,0-.02-.06-.07-.18-.44-1.14-2.79-7.35-2.91-9.91-.07-1.52-6.8,0-6.8,0,0,0-1.56,13.15.28,14.89ZM24.4,240.6c0-.23-.19-.41-.41-.41s-.41.18-.41.41.18.41.41.41.41-.19.41-.41ZM23.58,219.65c0-.22-.19-.41-.41-.41s-.41.19-.41.41.18.41.41.41.41-.18.41-.41ZM5.69,240.19c0-.23-.19-.41-.41-.41s-.41.18-.41.41.18.41.41.41.41-.19.41-.41ZM4.87,218.95c0-.22-.19-.41-.41-.41s-.41.19-.41.41.18.41.41.41.41-.18.41-.41Z"/>
        <path class="cls-7" d="M21.04,233.54c.18,4.84-2.28,4.99-2.28,4.99l-6.39-.11c-.33.17-.61.13-.83-.08.71-.5,2.56-2.05,3.19-4.8h5.87l.37-.18c.05.12.07.18.07.18Z"/>
        <path class="cls-7" d="M20.97,233.36l-.37.18h-5.87s-3.54-6.06-3.47-10.09c0,0,6.73-1.52,6.8,0,.12,2.56,2.47,8.77,2.91,9.91Z"/>
        <path class="cls-3" d="M6.76,242.45c4.48-.17,18.43-.4,18.91-.41-.69.49-2.73,1.07-8.31,1.38-10.42.56-12.87.56-12.87.56,0,0-3.86,1.24-3.95-6.1-.08-7.34,0-17.85,0-17.85,0,0-.26-3.31,2.11-3.54l.87.03-.02.55c-.17,0-1.53.09-1.29,2.96.26,3.07.64,20.75.64,20.75,0,0-.64,1.85,3.91,1.67Z"/>
        <path class="cls-7" d="M14.73,233.54c-.63,2.75-2.48,4.3-3.19,4.8-1.84-1.74-.28-14.89-.28-14.89-.07,4.03,3.47,10.09,3.47,10.09Z"/>
      </g>
      <g>
        <polyline class="cls-11" points="240.26 270.33 238.71 271.86 237.43 268.44 227.86 242.76"/>
        <path class="cls-11" d="M204.43,215.82c-1.89,4.6-3.79,11.44.74,13.12,7,2.6,10.68-.75,10.68-.75,0,0,13.59-8.64,10.87-16.71-.39-1.16-.48-1.89-.33-2.29.88-2.37,9.86,6.94,9.86,6.94l24.2,25.36,1.93,2.02,2.41,2.53-22.65,22.42-1.88,1.86"/>
        <path class="cls-11" d="M164.33,94.68c-1.79.64-10.97,8.71-19.55,19.96-19.85,26.01-36.55,69,48.43,76.41,0,0,15.22,15.36,13.28,20.43,0,0-.59,1.05-1.32,2.64-.23.5-.47,1.05-.72,1.65"/>
        <path class="cls-11" d="M204.45,215.77s0,.02-.02.05c-.52.98-8.98,17.5.02,20.77,9.29,3.36,26.99-5.05,22.08-27.21,0,0-.05-.06-.14-.19-1.31-1.79-11.14-16.16,5.93-20.28,18.21-4.41,28.13-7.69,28.13-7.69,0,0,28.97-13.8,20.04-26.76,0,0,43.78-51.47-9.65-57.78"/>
        <path class="cls-11" d="M264.79,246.04l13.51,14.15,9.02,10.28s2.21,2.19,3.56,5.89c1.09,2.99,1.62,6.97-.03,11.59-2.47,6.89-26.07,34.64-41.54,52.37-7.71,8.86-13.39,15.21-13.39,15.21"/>
        <polyline class="cls-11" points="242.14 268.46 261.48 286.8 261.59 286.9"/>
        <path class="cls-11" d="M239.77,325.91c-5.27,10.91-9.38,19.67-9.38,19.67"/>
        <path class="cls-11" d="M273.66,282.25s-5.46-1.96-12.18,4.55c-2.26,2.19-4.68,5.35-7.07,9.87-3.33,6.28-7.28,14.18-11.01,21.79-1.24,2.54-2.47,5.05-3.62,7.45"/>
        <path class="cls-11" d="M227.86,340.33s.9,2.37,2.28,5.36c1.53,3.32,3.65,7.39,5.78,9.84,1.02,1.16,2.03,1.96,2.99,2.14"/>
        <path class="cls-11" d="M168.2,454.5s-.24-.31-.6-.98c-1.33-2.41-4.34-9.46-4.02-23.32,0,0-2.25-65.78,2.57-101.54.13-.94.26-1.87.4-2.77.02-.15.05-.3.07-.45"/>
        <path class="cls-11" d="M191.65,240.56l-7.12,21.72-1.29,3.93-9.06,27.66-9.89,30.17s-1.41,4.33,1.86,4.62"/>
        <polyline class="cls-11" points="240.26 270.32 240.26 270.33 243.4 318.46"/>
        <path class="cls-11" d="M165.63,325.44s.26.18.92.45c3.66,1.53,19.73,6.06,73.22.02h0"/>
        <path class="cls-11" d="M211.29,335.25s-21.68,56.17-43.69,118.27c-14.41,40.67-28.98,83.88-37.68,115.52-.49,1.77-.96,3.49-1.4,5.18l-.09.33"/>
        <path class="cls-11" d="M249.32,340.33s1.55,13.66-6.42,32.67c-4.01,9.58-18.52,45.78-36.13,88.03-5.68,13.63-11.68,27.89-17.76,42.08-11.74,27.43-23.75,54.63-34.24,76.6-.63,1.31-1.24,2.59-1.86,3.86-.03.08-.07.16-.11.24"/>
        <path class="cls-11" d="M189.01,503.11s16.9,42.38,71.88,55.27c1.34.32,2.7.62,4.09.9"/>
        <path class="cls-11" d="M206.77,461.03s29.45,72.1,59.97,78.53c.95.2,1.91.34,2.86.41"/>
        <path class="cls-11" d="M266.74,539.56s2.35-5.74,7.08-1.99c0,0,5.05.37,5.46,1.57,1.16,3.37,1.58,6.46,1.51,9.23-.17,6.42-2.97,11.19-5.28,14.05-1.66,2.05-3.07,3.12-3.07,3.12-17.15.38-11.63-6.83-11.63-6.83"/>
        <path class="cls-11" d="M262.68,561.14s1.05-.43,2.35-1.82c2.32-2.46,5.45-7.93,5.08-19.37-.02-.43-.04-.87-.06-1.32"/>
        <path class="cls-11" d="M154.77,579.71s6.32,3.36.89,8.95c0,0-1.12,6.45-2.71,6.83-4.18.99-7.95,1.18-11.33.84-6.11-.62-10.91-2.99-14.43-5.54-4.91-3.56-7.32-7.48-7.32-7.48,1.55-19.93,8.67-15.36,10.05-14.27.15.11.23.19.23.19"/>
        <path class="cls-11" d="M126.78,571.33s.36,1.21,1.74,2.89c2.65,3.27,9.18,8.31,24.39,9.35.61.05,1.23.08,1.87.11"/>
        <path class="cls-11" d="M140.89,611.91c8.09,21.24-2.1,29.69-2.1,29.69,2.3,3.64-1.05,7.09-1.05,7.09-87.92-21.67-99.59-68.32-99.59-68.32,0,0,2.29-2.33,6.8-2.75,6.1-.57,16.25,2.36,30.25,19.31h2.36"/>
        <path class="cls-11" d="M138.79,641.6s-52.59-3.61-93.84-63.97"/>
        <path class="cls-11" d="M113.49,603.1h.01c.2-.2,5.52-5.21,5.67,1.27.04,2.13,2.3,3.66,5.35,4.77,3.52,1.28,8.1,1.99,11.52,2.37,2.82.31,4.85.4,4.85.4"/>
        <path class="cls-11" d="M109.45,596.75s12.55-18.06,14.87.98c.35,2.84.47,6.52.28,11.2"/>
        <path class="cls-11" d="M88.59,607.9c-.07.52-.17,1.04-.32,1.58,0,0-4.31,4.98-7.01-1.19,0,0-.93-6.88-3.43-9.94,0,0-.06-.66.11-1.42.25-1.1.97-2.39,3.04-2.11,1.47.19,3.38,1.4,4.93,3.34,1.89,2.35,3.27,5.77,2.68,9.74Z"/>
        <path class="cls-11" d="M96.54,607.15c.42,4.65-2.69,4.76-2.69,4.76,0,0-2.93.84-5.26-4.01-.02-.04-.04-.09-.06-.13"/>
        <path class="cls-11" d="M85.91,598.16s2.98-7.16,7.18-.48c.47.75.96,1.68,1.46,2.82,1.25,2.82,1.82,4.95,1.98,6.54"/>
        <path class="cls-11" d="M93.09,597.68s2.54-4.94,7.15-.48c.43.42.88.92,1.35,1.52,3.04,3.86,4.37,7.03,4.53,9.43.13,1.91-.48,3.33-1.56,4.19-2.34,1.85-7.73-4.14-8.02-5.19-.01-.05-.02-.08-.01-.11"/>
        <path class="cls-11" d="M100.24,597.2s4.63-5.99,9.08-.34c.56.7,1.12,1.59,1.66,2.69l2.52,3.54,1.07,1.51s4.68,10.52-4.24,6.78c0,0-3.52-1.95-4.21-3.23-.07-.11-.11-.22-.12-.32"/>
        <line class="cls-11" x1="141.62" y1="596.33" x2="136.07" y2="611.22"/>
        <line class="cls-11" x1="127.19" y1="590.79" x2="124.43" y2="597.72"/>
        <path class="cls-11" d="M280.35,548.25c.08.02.23.06.44.12,2.05.66,9.7,3.45,13.88,3.16"/>
        <path class="cls-11" d="M275.51,562.4v.02c0,.11.29.85,7.04,2.49"/>
        <path class="cls-11" d="M287.69,581.37s-.08-.11-.23-.3c-1.05-1.39-5.53-7.12-8.79-8.36-2.66-1.01-3.95-4.91,3.91-7.73,3.04-1.09,7.44-2.01,13.67-2.54.06-.01.13-.01.2-.02"/>
        <path class="cls-11" d="M268.6,626.19l35.39.34s12.64-14.58,10.33-83.21"/>
        <path class="cls-11" d="M291.6,612.13l-1.06,1.62c-2.29-1.51-1.79,1.92-1.79,1.92-14.27,1.31-18.87,6.36-20.15,10.52-1,3.24,0,5.95,0,5.95,0,0,24.76,2.37,37.64.4,0,0,2.68,2.64,4.89-7.49,0,0,14.87-46.98,9.19-82.62-.53-3.33-6,.89-6,.89-.19-1.84-13.34-.39-20.45.5-7.11.9.22,5.98.22,5.98.26.55.51,1.11.72,1.67,1.48,3.72,1.97,7.63,1.44,10.97-.65,4.02-2.79,7.21-6.55,8.24-6.51,1.78.39,7.13,2.03,8.31.22.16.34.24.34.24"/>
        <path class="cls-11" d="M301.09,611.59c-.05.03-.1.05-.16.08"/>
        <path class="cls-11" d="M301.27,611.56s-.05.01-.15.02c0,0-.02,0-.03,0-1.11.16-7.06.97-9.34.13-.05-.01-.1-.03-.15-.05-2.38-1.01-4.54-4.14-.3-5.79.1-.04.21-.08.32-.11,1.75-.61,3.87-.7,5.74-.59,2.66.16,4.85.7,4.85.7,0,0,3.7,3.2-1.09,5.7"/>
        <path class="cls-11" d="M291.6,605.7c-7.08-1.21-1.65-6.87-1.65-6.87,0,0,2.15-1.66,4.81-2.28,1.96-.45,4.21-.35,6.07,1.42,4.36,4.15-3.46,7.09-3.46,7.09"/>
        <path class="cls-11" d="M292.44,587.9c1.94-.72,4.14-1.03,5.98,0,4.53,2.53,2.28,4.55,2.28,4.55,0,0-2.02,2.12-6.17,3.31-1.18.34-2.53.61-4.06.73-6.9.54-2.93-5.82-2.93-5.82,0,0,2.2-1.77,4.9-2.77Z"/>
        <path class="cls-11" d="M292.42,587.85c-1.83.73-3.98,1.19-6.01.68-4.94-1.26-1.29-4.31-1.29-4.31.05-.04.53-1.65,2.34-3.15.98-.82,2.36-1.6,4.27-2.08,1.02-.25,2.2-.42,3.55-.46,8.53-.26,1.7,6.7,1.7,6.7,0,0-1.95,1.58-4.56,2.62Z"/>
        <path class="cls-11" d="M205.17,214.12s-2.76-2.03-4.84,2.18c-1.73,3.49-16.09,32.36-20.93,42.08-.99,1.99-1.58,3.18-1.58,3.18l5.42,4.65"/>
        <path class="cls-11" d="M177.82,261.56s-10.33,17.8-11.18,19.51c0,0,1.69,3.61-21.48-1.21-1.47-.3-3.05-.64-4.73-1.02,0,0-28.94-8.23-38.33-11.33,0,0-10.95-7.55-11.69-8.67-9.84-14.89-48.81-22.29-50.02-22.51"/>
        <path class="cls-11" d="M63.4,255.8s-12.45-11.51-20.7-17.78c-.82-.62-1.59-1.19-2.31-1.69,0,0-.02-.01-.03-.01-.8-.56-1.53-1.03-2.17-1.4-6.97-4.02-2.51,7.73-2.51,7.73l30.03,26.43s-9.09-2.93-21.91,1.36c0,0-7.56,8.71,1.99,9.3,0,0,18.95-5.78,23.84-3.77s24.07,1.71,24.86,1.54l71.14,19.16s5.94,1.61,8.55-2.8c.5-.84.87-1.9,1.06-3.22"/>
        <polyline class="cls-11" points="64.12 246.64 42.7 238.02 42.23 237.83"/>
        <line class="cls-11" x1="179.4" y1="258.38" x2="184.53" y2="262.28"/>
        <polyline class="cls-11" points="237.41 268.46 237.43 268.44 262.38 243.51 262.44 243.45"/>
        <path class="cls-10" d="M11.26,223.45s6.73-1.52,6.8,0c.12,2.56,2.47,8.77,2.91,9.91.05.12.07.18.07.18.18,4.84-2.28,4.99-2.28,4.99l-6.39-.11c-.33.17-.61.13-.83-.08-1.84-1.74-.28-14.89-.28-14.89Z"/>
        <path class="cls-10" d="M11.26,223.45c-.07,4.03,3.47,10.09,3.47,10.09h5.87"/>
        <path class="cls-10" d="M11.26,238.53s.1-.06.28-.19c.71-.5,2.56-2.05,3.19-4.8"/>
        <path class="cls-10" d="M25.67,242.04c-.69.49-2.73,1.07-8.31,1.38-10.42.56-12.87.56-12.87.56,0,0-3.86,1.24-3.95-6.1-.08-7.34,0-17.85,0-17.85,0,0-.26-3.31,2.11-3.54"/>
        <path class="cls-10" d="M2.65,216.49l.87.03,20.67.8s1.76-.57,1.67,5.45,0,18.51,0,18.51c0,0,.41.34-.18.76"/>
        <path class="cls-10" d="M3.52,217.07h-.02c-.17,0-1.53.09-1.29,2.96.26,3.07.64,20.75.64,20.75,0,0-.64,1.85,3.91,1.67,4.48-.17,18.43-.4,18.91-.41h0"/>
        <circle class="cls-10" cx="4.46" cy="218.95" r=".41"/>
        <circle class="cls-10" cx="23.17" cy="219.65" r=".41"/>
        <circle class="cls-10" cx="5.28" cy="240.19" r=".41"/>
        <circle class="cls-10" cx="23.99" cy="240.6" r=".41"/>
        <path class="cls-11" d="M113.89,255.96c3.41-1.82,10.51-16.85,5.78-27.47-4.73-10.61-36.53-31.9-5.78-71.84,0,0-11.04,8.14-13.24,8.41,0,0-10.94-20.24,25.06-47.04,0,0,9.2-10.95-1.31-22.42-10.51-11.48-2.27-37.23-2.27-37.23-2.8,4.21-18.75,0-18.75,0,0,0,20.76-50.19,62.54-39.94,0,0-4.21-12.88,1.31-17.87,0,0,12.61,3.68,13.67,11.3,0,0,41.51-1.05,40.2,9.72,0,0,136.12-3.67,110.37,159.64,0,0,62.31,54.3-40.58,95.14"/>
        <path class="cls-11" d="M109.23,258.44s.02,0,.05-.02c.02-.02.05-.03.08-.05.01,0,.02-.01.03-.01.04-.03.1-.06.17-.09.05-.03.1-.05.15-.08.09-.06.2-.11.33-.18.02-.01.05-.02.07-.03.13-.08.28-.16.45-.24.05-.03.1-.06.15-.08.19-.11.4-.22.64-.35"/>
        <path class="cls-11" d="M111.35,257.31c-.23.13-.44.24-.64.35"/>
        <path class="cls-11" d="M111.35,257.31c.71-.37,1.56-.82,2.54-1.35"/>
        <path class="cls-11" d="M145.16,279.86c-22.33-16.84-1.58-39.67-1.58-39.67,0,0-20.31,10.79-29.69,15.77"/>
        <path class="cls-11" d="M205.75,139.74s-2.25-4.69-3.53-9.56c-1.37-5.22-1.62-10.65,3.26-10.69,1.1-.01,2.46.26,4.13.86"/>
        <path class="cls-11" d="M207.17,93.06c-.38,5.94-.26,11.18.27,15.81.48,4.31,1.31,8.09,2.41,11.4,8.8,26.44,34.93,23.28,40.16,22.37.72-.13,1.44-.19,2.17-.24,24.91-1.62,21.58-31.73,18.66-45.72-.89-4.27-1.74-7.04-1.74-7.04l-61.95,2.98-42.82,2.06-19.08.92s-1.36,8.86-.47,19.04c1.28,14.55,7.18,31.82,28.28,29.8,1.58-.15,3.17-.19,4.75-.1,5.62.33,20.1-.23,24.41-14.16"/>
        <path class="cls-11" d="M205.48,119.49s2.48-7.33,1.95-10.62"/>
        <path class="cls-11" d="M194.82,160.77s15.77,5.25,26.98-6.31"/>
        <path class="cls-11" d="M160.12,119.49c-.25-2.52,3.35-24.07,31.38-22.75"/>
        <path class="cls-11" d="M221.8,108.87s4.56-21.97,26.89-12.19"/>
        <circle class="cls-11" cx="184.53" cy="117.12" r="7.71"/>
        <circle class="cls-11" cx="247.23" cy="110.84" r="7.71"/>
      </g>
    </g>
  </g>
</svg>