<?xml version="1.0" encoding="utf-8"?>
<!-- Generator: Adobe Illustrator 27.0.1, SVG Export Plug-In . SVG Version: 6.00 Build 0)  -->
<svg version="1.1" id="Calque_1" xmlns="http://www.w3.org/2000/svg" xmlns:xlink="http://www.w3.org/1999/xlink" x="0px" y="0px"
	 viewBox="0 0 595.3 282.5" style="enable-background:new 0 0 595.3 282.5;" xml:space="preserve">
<style type="text/css">
	.st0{fill:#47BBED;}
	.st1{fill:#148D51;stroke:#572310;stroke-width:0.5;stroke-miterlimit:10;}
</style>
<g id="Calque_1_00000011016705106825571600000003116350056037167035_">
	<rect y="-53.7" class="st0" width="595.3" height="372.8"/>
</g>
<g id="Calque_2_00000028319191351830858120000011300999114685317804_">
</g>
<g id="Calque_3">
	<g>
		<path class="st1" d="M122.1,141.7c0,0-0.8,0.2-0.6-2.1c0.2-2.2,0-4.9,0-4.9s0.5-2.2-3.4-2.3s-4.1-0.6-4.1-0.6
			c0.2,0.4-1.3-2.1,0.8-4c1.4-1.3,2.3-3.2,2.7-4.3c0.3-1,0-2.1-1-2.5c-0.5-0.2-1.1-0.4-2.1-0.3l-2.6,0c0,0-1.3-0.1-1.5,1.6
			s-0.1,3.1-0.1,3.1s0.5,1.8-4.1,1.5c-1.4-0.1-2.4-0.2-3.1-0.3c-1.1-0.1-2.1-0.8-2.7-1.8c-1-1.5-1.9-4.2-0.4-7.9
			c1.5-3.6,1.5-5.4,1.2-6.3c-0.2-0.6-0.1-1.2,0.2-1.8c1-1.7,3.5-4.9,7.5-4.4c5.4,0.6,4.2,1.7,9,0c3.4-1.2,6.4-0.6,7.9-0.2
			c0.6,0.2,1,0.7,1.1,1.2l1.2,7.4c0,0.4,1.2,1.5,2.4,0.4c0.5-0.5,0.7-1.2,0.7-1.9v-6.3c0-2.5,1.1-4.9,3-6.5c1.6-1.3,4.2-2.7,8.1-3.7
			c0,0,1.8,0.5,0.8-4.7c-0.1-0.8,0.3-1.6,1-2c0.2-0.1,0.5-0.2,0.8-0.3c1.4-0.4,1.6-1.9,1.6-2.9c0-0.8,0.5-1.5,1.3-1.6
			c0.4-0.1,0.8-0.2,1.4-0.2c1.5-0.1,3.4-0.8,4.8-1.3c0.8-0.3,1.3-1,1.3-1.9c0-1.4,0.4-3.5,2.8-4.4c2.4-0.9,3.9-1.1,4.6-1.1
			c0.4,0,0.7,0.3,0.8,0.7l0,0c0.1,0.7,0.9,1.1,1.5,0.9l3.1-1.2c0,0,3.1-1.6-0.4-4c0,0-1.4-0.3-0.5-2.1s-0.8-3.4-0.8-3.4
			s-1.9-2.4,1.2-2.4c3.1-0.1,7,0.1,9.6-0.6c1.5-0.4,2.9-0.8,3.8-1.1c0.8-0.2,1.6-0.4,2.4-0.5l1-0.1c0.9-0.1,1.5-1,1.2-1.8
			s-1.1-1.9-3-3c-1.2-0.7-2-1.5-2.7-2.2c-1.1-1.3-1.6-3-1.6-4.7c0-1.6-0.4-4.5-3.6-3c-4.1,2-4.6-1.7-4.6-1.7s0.3-3.8-5.3-3.8
			c-3.5,0-5.4,1.3-6.4,2.2c-0.6,0.6-1,1.4-1.1,2.2c-0.2,1.8-0.8,6-2.9,7c-0.8,0.4-1.3,0.6-1.7,0.9c-0.7,0.4-1.2,1.2-1.3,2l-0.1,1
			c-0.1,1-0.5,1.8-1.3,2.1c-0.4,0.2-1,0.3-1.6,0.1c-0.8-0.3-1.3-1-1.4-1.9c-0.2-1.3-1-3.8-5.2-5.3c-0.6-0.2-1.2-0.3-1.9-0.4l-3-0.3
			c-0.7-0.1-1.1-0.2-1.5-0.5c-0.9-0.6-2-2.1,0.1-5.2c3-4.4,9.5-6.1,9.5-6.1s4-0.7,7.3-2.4c0.5-0.3,1-0.4,1.6-0.5l2.7-0.2
			c0.5,0,0.8-0.1,1-0.2c0.6-0.3,1.8-1.2,3.5-3.2c1.7-2.1,4.7-1.4,6.4-0.8c1.2,0.4,1.8,1.8,1.2,3c-0.2,0.3-0.4,0.7-0.7,1.1
			c-1.9,2.4,0.9,2.5,0.9,2.5s4.7,1.6,6.1,3.6c0.7,1,1.7,0.9,2.4,0.6c0.8-0.3,1.3-1.1,1.3-1.9l0.1-4.6c0,0,0.6-3.2,3.8-0.9
			c2.1,1.6,2.8-0.2,2.9-1.6c0.1-0.8-0.2-1.5-0.8-2c-3.5-2.8-16.7-12.5-25.9-3.7c-0.3,0.3-0.6,0.7-0.8,1.1c-0.6,1.2-2.3,3.6-4.5-0.1
			c0,0-1.4-2-2.7,0.2c-0.9,1.5-2.1,0.7-2.8,0.1c-0.8-0.8-2-1.2-3.1-1.1c-0.8,0.1-1.8,0.5-2.9,1.4c-2.3,1.8-5,1.6-6.3,1.4
			c-0.6-0.1-1.2-0.1-1.8-0.1l-12.3,0.5c-0.6,0-1.2-0.2-1.7-0.6c-1.1-1-3.4-2.6-5.2-2.1c-1.9,0.5-5-1.1-6.4-2
			c-0.6-0.4-1.2-0.5-1.9-0.6c-2-0.2-6.4-0.4-9,0.6c-2.4,0.9-5.3,1.2-6.9,1.4c-0.7,0-1.9,0.2-2.6,0.1c-2.7-0.6-10.2-1.6-12.9-2
			c-2.9-0.5-15.3,0.3-18.8,1.4c-0.8,0.2-1.6,0.3-2.3,0.7c-1,0.6-2.1,1.6-2.2,3c0,0.7-0.4,1.2-1,1.5c-1.4,0.5-3.5,1.7-3.6,4.1
			c0,0.9-0.6,1.7-1.4,2.1c-0.6,0.2-1.5,0.4-2.8,0.1c-2.8-0.6-7.2,1.5-9,2.5c-1.1,0.6-1.6,2-1,3.1c0.4,0.8,1.4,1.8,3.1,2.9
			c0.5,0.3,0.7,1,0.5,1.5c-0.5,1.1-2.3,2.8-8.4,4.2c-0.1,0-0.1,0.1,0,0.1c1.5,0,6.1-0.1,8.4-1c1.7-0.7,3.1-1.4,3.9-1.9
			c0.5-0.3,1.1-0.4,1.8-0.4h5.8c0.4,0,0.8-0.2,0.9-0.6c0.2-0.3,0.4-0.7,0.8-0.8c0.5-0.2,5.7-2.2,7.8-3c0.6-0.2,1.2-0.4,1.8-0.4
			c3-0.3,12.1-0.6,12.9,6.4c0.1,0.6-0.1,1.1-0.6,1.5c-1.2,1.2-4,4.1-3.9,5.7c0.1,0.8,0.2,1.3,0.3,1.6c0.2,0.4,0.7,0.5,1,0.2
			c0.8-0.9,2.5-2.6,3.2-1.8c0.7,0.7,0.8,3.9,0.8,5.6c0,0.6,0.2,1.2,0.5,1.7c0.7,1,1.6,3,0.5,5.3c-0.2,0.4-0.5,0.8-0.8,1.1
			c-1.5,1.2-6.1,5.2-6.7,8.2c-0.8,3.6-3.1,11.2,1.4,16.1c4.5,4.9,5.6,14.2,5.6,14.2s0.6,4.9,3.7,7c3.1,2.2-0.8-5.2-0.8-5.2
			s-2.2-5-1.9-9.5c0.2-3.8,3.8,5.4,4.8,8.2c0.2,0.5,0.5,0.9,0.9,1.3c1.1,1,3.2,3.2,3.1,4.7c-0.1,2,0.7,8.2,9,13.1
			c0.5,0.3,1.1,0.5,1.7,0.6c2,0.4,6.9,1.3,9.8,1.6c2.9,0.3,4.1,3.2,4.6,4.5c0.2,0.5,0.6,0.9,1.1,1.1c0.5,0.1,1.1,0.2,2,0
			c2-0.4,4.3-2.5,5.1,2.3c0.6,3.6,2.7,4.2,3.7,4.2c0.3,0,0.5,0.3,0.5,0.5c0,0.7,0.1,2,0.8,3.2c0.5,0.8,1.3,1.2,2.2,1.3
			c1.7,0.2,5,0.6,5.6,0.9c0.8,0.3,5.1,5.2,0,8.6c-0.9,0.6-1.4,1.8-1,2.9l0,0c0.5,1.2-1.1,3-1.9,4c-0.4,0.4-0.7,1-0.9,1.6
			c-0.5,1.9-1.5,6.3-1.1,9.4c0.5,4.1,1.4,5.1,1.4,5.1l0.4,0.1c0.5,0.2,1,0.4,1.5,0.6l0.3,0.1c0.1,0,0.3,0.1,0.3,0.2
			c0.7,1.8,5.6,14.2,12.3,16.3c6.3,1.9,5.7,13.8,5.4,17c-0.1,0.6,0,1.2,0,1.7l1.9,14.5c0.1,0.6,0.3,1.2,0.6,1.8
			c0.6,1.1,1.6,3.4,0.5,5.8c-1.1,2.4-0.7,4.5-0.3,5.4c0.2,0.4,0.2,0.9,0.1,1.4c-0.1,0.8-0.4,2-0.9,3.8c-0.9,2.8,3.4,12.8,4.8,15.7
			c0.3,0.6,0.6,1.1,1,1.6c1.9,2.3,7.9,8.5,17.2,9.3c1.1,0.1,2.1-1,1.8-2c-0.2-0.7-0.7-1.4-1.8-2.1c-0.5-0.3-1.1-0.5-1.7-0.7
			l-2.8-0.7c-0.6-0.1-0.9-0.7-0.8-1.3c0.2-1.2,0.4-3-0.5-3.3c-0.5-0.2-0.9-0.3-1.2-0.5c-0.4-0.2-0.4-0.7-0.1-0.9
			c0.8-0.6,1.9-1.6,1.6-1.9c-0.3-0.3,0-2.2,0.1-3.4c0.1-0.6-0.1-1.2-0.6-1.6c-0.2-0.2-0.5-0.4-0.9-0.6c-0.4-0.2-0.6-0.7-0.3-1.1
			c0.6-1.2,1.3-3.4-0.4-6.9c-2.4-4.8,3.6-0.8,3.4-0.9c0,0,2.9,1.9,1.7-1.9c-0.6-1.9-0.4-2.9,0-3.4c0.3-0.4,0.9-0.5,1.4-0.3
			c0.7,0.2,2.3,0.5,4-1.1c2.4-2.2,1.1-4.7,1.1-4.7s-1.9-1.9,0.9-3c0.4-0.1,0.7-0.2,1.1-0.1c0.6,0.1,1.9,0.2,3.8-1
			c2-1.3,2.6-5.2,2.7-7.1c0.1-0.5,0.5-1,1.1-1c0.9,0,2-0.4,1.2-2c-1.3-2.5-0.6-7.8,3.6-10.1l3.4-1.9c0.4-0.2,1-0.4,1.5-0.3
			c1.2,0.1,3.7,0,4.5-3.1c0.8-3.1,1.9-7.2,2.4-9.1c0.2-0.8,0.3-1.5,0.4-2.3l0.2-5.1c0-0.7,0.2-1.3,0.6-1.9l4.5-6.4
			c0,0,2.4-4.3,0.1-7.7c-0.3-0.4-0.7-0.7-1.2-0.8c-0.9-0.2-2.7-0.8-5.6-2.6c-4.3-2.6-1.5-3.5-6.4-3.5c-3.9,0-8.9-4.5-10.7-6.3
			c-0.5-0.5-0.8-1.1-0.9-1.8l-0.5-3.1c-0.1-0.4-0.4-0.7-0.7-0.8c-1.1-0.3-3.3-1.1-4.5-3.7c-1.6-3.5-7.4-1.9-7.4-1.9
			s-4.4,0.7-5.4-3.9c-0.9-4.5-3.7-5.2-3.7-5.2s-1.7-0.7-5,2.7c-2.7,2.8-3.5-0.2-3.6-1.3c-0.1-0.3-0.3-0.6-0.6-0.7
			c-0.5-0.1-1.2-0.1-2.1,0.8c-0.3,0.3-0.7,0.4-1.1,0.3l-9.2-2.5c0,0-2.3-0.4-3,2.4c-0.5,2-1.8,2.9-2.5,3.2c-0.3,0.1-0.6,0.2-0.9,0.1
			c-0.6-0.1-1.6-0.4-2-1c-0.2-0.2-0.4-0.4-0.8-0.4l-5.1,0.5c0,0-1.1,0.2-1.3-3.8C122.7,142.5,122.9,141.6,122.1,141.7z"/>
		<path class="st1" d="M176.4,68.1l3.8-4.5c0,0,2-1.5,3.4,0.9c0,0,0.9,0.9,2,0.9c1.1,0,1,1.3,1,1.3s-1.2,1.4-1,3
			c0.1,0.8-0.7,0.9-1.5,0.8c-0.7-0.1-1.4-0.3-1.9-0.8c-0.6-0.5-1.6-1.1-3.1-0.8l-1.7,0C177.3,68.9,175.5,69.1,176.4,68.1z"/>
		<path class="st1" d="M115.1,23.6c0.2,0.6,0.9,1,1.6,0.8c1.6-0.3,4.6-0.7,4.8,0.6c0.2,1.8-0.3,2.2,0.7,2.1s15.1-0.8,15.1-0.8
			s2.1,0.6,1.6-2.5c-0.4-2.4,2.4-1.9,3.8-1.5c0.4,0.1,0.7,0.3,1.1,0.5c0.8,0.5,2.5,1.5,4.3,1.2c2.4-0.4,2.9-1,3.4-2.6
			s4.9-1.4,4.9-1.4l3.1-0.1c0,0,1.9-1.4-0.7-2.2c-2.1-0.7-5.1,0.4-6.3,0.8c-0.3,0.1-0.7,0.2-1,0.2c-1.2,0.1-4,0.2-6.3-0.4
			c-1.6-0.5-3-0.6-3.9-0.5c-0.7,0-1.3,0.3-1.7,0.8c-0.8,0.8-2.3,2.1-4.4,2.1c-3,0-5.5,0.3-8.7-1.8s-8.3,0.4-8.3,0.4
			S114.1,21.1,115.1,23.6z"/>
		<path class="st1" d="M154.2,12.8c-0.8,0-1.6,0-2.3-0.1c-1.9-0.2-6.1-0.4-9.2,0.8c-2.8,1.1-4.7,1.5-5.8,1.7
			c-0.6,0.1-1.2,0.3-1.8,0.7c-0.9,0.6-1.6,1.3,1.2,0.9c0.5-0.1,0.9-0.2,1.4-0.5c0.8-0.5,2.6-1.2,5-0.8c2.7,0.4,6.4,0,7.8-0.1
			c0.4,0,0.8-0.1,1.1-0.1l11-0.3c0.6,0,1.2,0.2,1.6,0.6c1.1,1,3.6,2.9,6.7,3.2c2.8,0.2,4.9-2.1,5.9-3.6c0.8-1.1,1.8-2.1,3-2.8
			c1.1-0.6,2.6-1.2,4.6-1.7c0.8-0.2,1.5-0.4,2.1-0.9c1-0.7,1.7-1.8-1.8-2c-5.5-0.4-11.1,2.4-11.1,2.4s-7.4,1.9-10.4,2.2
			C161,12.7,156.4,12.8,154.2,12.8z"/>
		<path class="st1" d="M239.9,36.2c0-0.5-0.2-1-0.7-1.1c-1-0.4-2.4-1.3-0.7-2.7c2.5-2,4,1.1,4,1.1s0.8,1.4,4-0.7
			c2.2-1.5,4-0.2,4.9,0.7c0.4,0.4,0.4,1.1,0,1.5c-0.5,0.4-1.4,1-3,1.3l-2.7,1.1c-0.6,0.2-1.1,0.4-1.7,0.4l-2.2,0.2
			C241.8,37.8,239.9,38.5,239.9,36.2z"/>
		<path class="st1" d="M193,10.9c0,0-4.3,2.2-3.3,4.6c0.3,0.8,1.1,1.2,1.9,1.3l5.9,0.5c0,0,4.1,0.6,3.6,4.1c-0.3,2.1,0,3.2,0.3,3.6
			c0.2,0.5,0.3,1,0.1,1.5c-0.3,0.7-0.9,1.6-2.2,2.5c-2.3,1.6,0.7,10.2,1.6,12.7c0.2,0.4,0.5,0.8,0.9,1c1.5,0.8,5.3,2.2,7.3-1.2
			c2.6-4.4,5.8-5.8,5.8-5.8l18.5-8.4c0,0,2.9-1,5.1-0.8c0.8,0.1,1.5-0.3,1.7-1.1c0.1-0.4,0.1-0.9-0.2-1.4c-0.4-0.7,0.5-0.9,1.4-1
			c0.7,0,1.3-0.6,1.4-1.3c0.2-0.8,0.6-1.8,1.6-2.8c2-2.1,2.5-0.5,3.4-3.9c0.8-2.9-0.8-1.2,0.6-2.9c0.7-0.8,1.4-1.5,2.4-2
			c2.1-1.1,5.3-3.2-1.9-2.6c-6.4,0.5-8.6,0-9.3-0.4c-0.4-0.2-0.9-0.4-1.4-0.4l-15.4,0.5c0,0-10.1-0.4-11.5-0.5
			C209.9,6.8,196.7,8,193,10.9z"/>
		<path class="st1" d="M283.9,10.5l5.6,0.2c0,0,1.2,1.2,2.8,0.2c1.6-1,5,0,5,0s2.7,1.4,0.1,2.2c-2.2,0.7-1,1.4-0.6,1.6
			c0,0,0,0.1,0,0.1c-0.5,0.1-2.1,0.2-3.3-0.4c-1.4-0.8-3.6,2.1-3.6,2.1S282.5,13.6,283.9,10.5z"/>
		<path class="st1" d="M255.1,57.4c0,0-1.9-2.7,1.5-1.7c0,0,1.1-3.3,3.2-1.4c2.1,1.8,1.2,3.1,1.2,3.1l-3.8,3.5c0,0-3.9,0.7-2.1-1.5
			C256.9,57,255.1,57.4,255.1,57.4z"/>
		<path class="st1" d="M262.1,52.2c0-0.2-2.6-5.4,2.8-3.5s3.3,1.6,3.3,1.6s-1.5,1.5-0.5,2.4s3.8,4.5,3.8,4.5s2.2,2.7-0.9,3.4
			s-3.8,0.9-3.8,0.9l-2.8,1.6c0,0-2.2,0-1.2-2.3s1.1-3.4,1.1-3.4s-0.1-1.4,0.9-2.4C265.8,53.9,262.1,52.2,262.1,52.2z"/>
		<path class="st1" d="M349.2,198c0,0,3.1-1.5,5.2-5.3c1.2-2.1,2.3-3,3.1-3.3c0.5-0.2,1,0.1,1.1,0.6l0.4,2.5
			c0.1,0.9,0.3,1.9,0.6,2.8c0.2,0.5,0.2,1.2-0.3,1.8c-0.9,0.9-1.5,1.7-0.9,2.8s-1.7,3.5-1.7,3.5s-1.8,9.2-4.4,11.6
			c-2.6,2.4-5.1,0.6-5.1,0.6s-1.9-2.5-0.6-3.7c0.6-0.6,0.5-1.4,0.3-2c-0.3-0.6-0.2-1.3,0.3-1.8c1.2-1.1,2.9-3.1,1.5-5.4
			C346.5,199.4,349.2,198,349.2,198z"/>
		<path class="st1" d="M485.4,171.8c-0.4,0.4-1,0.1-1.1-0.4c-0.2-1.5-0.3-3.9,1-5.4c1.3-1.5,4.3-1.1,6.1-0.6c0.7,0.2,0.9,1,0.4,1.5
			l-1.2,1.2c0,0-1,2,0.6,3s1.9,3.4,1.9,3.4s-0.3,2.5-2.9,0.9c-1.6-1-1.9-2.5-1.9-3.6c0-0.6-0.5-1-1-0.9
			C486.6,171.1,485.9,171.3,485.4,171.8z"/>
		<path class="st1" d="M508.7,249.3c0.2-0.4,0.5-0.6,0.9-0.7c0.9-0.1,2.6-0.5,3.9-0.9c1.6-0.6-0.7,4-1.4,5.2
			c-0.1,0.2-0.2,0.3-0.4,0.5c-1,0.7-4.5,2.6-4.2-1.3L508.7,249.3z"/>
		<path class="st1" d="M540.8,254.4c0,0-9.3,8.8,2.7,4.7c0,0,7-6.3,8.5-6.8c1.6-0.5,2.4-1.5,4.4-1.3c2,0.2,2-2.3,2-2.3
			s6.9-1.7,8.7-5.3c0,0,1-1.7-1.8-1.4l0.3-5.8c0,0-1.2-2.8-2.7,0c-1.6,2.8-0.6,6.6-8,12.1c0,0-2.9,2-7.2,2.7
			C543.2,251.7,540.8,254.4,540.8,254.4z"/>
		<path class="st1" d="M500.1,160.3l2.2,0.5c0.4,0.1,0.8,0.5,0.8,0.9c0.1,0.8-0.1,2.1-1.5,3.1c-2.2,1.5-2.7-1.6-2.7-1.6
			s-0.5-1.1-0.3-2.1C498.9,160.5,499.5,160.2,500.1,160.3z"/>
		<path class="st1" d="M506.8,167c0,0,1.7,0.3,2.6,0s1.2,3.6,2.9,2.7c1.8-0.9,2.6,0.2,6.3-1.5s10.8,6.9,10.8,6.9s1.5,0.5,7.5,0
			c0,0,3.1,2.1-0.3,2.7c-5.2,0.9-1.7,3.2-0.5,3.6c0,0,7.2,4.7-0.4,3.6l-4.2-3c0,0-2-1.4-4.4,0.5c-2.5,2-4.1,1.2-4.1,1.2
			s-0.8-1.1-0.6-2.8l-6-0.1c0,0-4.8-0.1-0.3-2s0-5.3,0-5.3s-2-1.5-4.9-1.5C506.9,172.1,505.7,167.1,506.8,167z"/>
		<path class="st1" d="M481.3,115.4c0,0,2.3-3,2.6,0.3c0.2,2.1-0.5,3.2-1,3.7c-0.3,0.3-0.7,0.3-1,0.1
			C481.1,118.9,479.8,117.6,481.3,115.4z"/>
		<path class="st1" d="M500.1,75.7c0,0-4.4-4.9,0.7-1.4s5.8-1.2,5.8-1.2s2,1,0.4,3.1c-1.5,2.1-1.3,2.9-2.3,2.9c-0.7,0-2-0.1-2.8-0.1
			c-0.4,0-0.7,0.2-0.9,0.5c-0.2,0.6-0.9,1.2-2.2-0.9c-2-3.1,0.9-1.9,0.9-1.9S501.4,76.6,500.1,75.7z"/>
		<path class="st1" d="M502,86.2c0,0,0-8.8,3.9-0.4c3.9,8.4-1.7,8.1-1.7,8.1l-3.6,1c0,0-1.8,3-3.8,1c-2.1-1.9-1.6,3.8-1.6,3.8
			s-0.7,2.5-3.1-0.5c-2.4-3.1,1-3.9,1-3.9s1.2-2.1,2.4-2.5c1.1-0.4,3.8-0.4,3.8-0.4v-2.3c0,0,0-2,1.6-1.2
			C502.4,89.7,502,86.2,502,86.2z"/>
		<path class="st1" d="M480.1,150.3c0.3,0.9,0.8,2.2,1.6,2.7c0.4,0.2,0.6,0.7,0.5,1.1l-0.7,2.8c0,0-0.6,2.3,1,4
			c1.1,1.2-0.5,2.5-1.5,3.2c-0.6,0.4-1,1-1.3,1.6c-0.4,1.2-0.8,3.1,0.2,4.7c1.2,2-5.3,1.2-8.1,0.8c-0.9-0.1-1.7-0.5-2.4-1.1
			c-2.2-2-6.8-6.6-3.8-9.8l3.4-0.7c0,0,1.3-0.6,2.3-1.9c0.3-0.4,0.7-0.6,1.2-0.6l1.4,0c0.7,0,1-0.8,1.6-1.1c1.6-1,2.8-4.4,3.3-6.1
			C478.9,149.2,479.9,149.7,480.1,150.3z"/>
		<path class="st1" d="M483.6,130.3c0.3-1.2,1.1-2.9,2.5-1.1c0.3,0.3,0.4,0.8,0.4,1.2v2.1c0,0,0.1,1.1,2.1,1.7s3.2,3.1,3.2,3.1v2.6
			c0,0.9,0.4,1.7,1.2,2.2c0.3,0.2,0.8,0.4,1.3,0.5c2.1,0.6,0.8,2.9,0.8,2.9s-0.6,2.4,0.1,4.1c0.4,0.8,0.3,1.5,0.1,2.1
			c-0.2,0.7-0.9,1.1-1.6,0.8c-0.9-0.4-2-0.7-2.7-0.4c-1.2,0.6-2.5,1.8-2.5,1.8s-2.8,2.5-1.2-2s3.3-3.5,3.3-3.5s2.2-1.9-0.8-2
			s-0.5-4.5-0.5-4.5s-0.8-5.2-2.2-2.9s-2.5-4-2.5-4l-1-3C483.4,131.4,483.4,130.9,483.6,130.3z"/>
		<path class="st1" d="M444.5,154.3c-9.6-3,0.7,5.1,0.7,5.1s2.7,1,2.8,3.3s7.6,14.3,10,14.7c0,0,0.1,0,0.1,0
			c1.2,0.2,2.4,0.7,3.3,1.6c0.6,0.6,1.9,1.3,4.9,1.3c3.6,0,7.9,1.1,10.4,1.9c1.4,0.4,2.8,0.6,4.2,0.6h7.7c0,0,8.4,0-0.4-1.5
			s-13.7-2.3-13.7-2.3s-3.7,0-7.1-2.4c-1.5-1.1-2.9-1.4-3.9-1.3c-1.4,0-2.7-0.9-2.9-2.3c-0.1-0.7-0.2-1.5-0.2-2.5
			c0-1.5-0.6-2.9-1.7-4l-10-9.6C447.6,155.7,446.1,154.8,444.5,154.3z"/>
		<path class="st1" d="M468.6,215.3c-1.8-6.6,5.9-8.4,5.9-8.4s13.3-5.2,16.2-9.8c2.9-4.6,4.8-4.2,4.8-4.2l2.6,0.2
			c1.9,0.2,3.7-0.7,4.7-2.4c0.1-0.3,0.3-0.5,0.4-0.8c0.6-1.2,1.8-2,3.1-2c2.4-0.1,3.8,0.8,5.8,1.3c2.7,0.6,2,2,0.8,3.5c0,0,0,0,0,0
			c-1,1.1-0.4,3,1.1,3.3c1,0.2,2.2,0.8,2.7,2.2c0.9,2.5,2.5,0.5,2.5,0.5s1.2-0.6,3.6-7.8s2.9,1.9,2.9,1.9c3.8,0.5,3.1,3.5,3.1,3.5
			l0.9,6l3.7,5.5c6.3,7.7,2.8,14.8,2.8,14.8s-8.3,13.8-11.2,14.3c-1.6,0.3-2.7,1.6-3.3,2.7c-0.7,1.3-2,2.2-3.4,2.5
			c-1.7,0.3-3.7,0.6-5,0.1c-2.4-1-4.7,0-4.7,0s-5-0.4-3.6-2.2c1.4-1.8,0-2.3,0-2.3s-2.9,1.9-1.1-2.8c1.8-4.8-2-1.2-2-1.2
			s-3.8,2.2-3-1.9s-3.2-3.1-3.2-3.1s-4.2,1.9-8.5,1.5c-2.4-0.2-4.4,0.6-5.5,1.3c-0.7,0.5-1.6,0.6-2.4,0.4c-1.1-0.2-3.5,0-8.1,2
			c-8.4,3.6-2.9-3.7-2.9-3.7L468.6,215.3z"/>
		<path class="st1" d="M466.1,126v-2.9c0,0-0.8-2.1,3-2.1s11.5-13,11.5-13s1.9-5.9-2.6-11l-3.1-3.4c0,0-2.8-0.4-0.2-2.3l1.2-0.9
			c0,0,1.8-1.3-1.2-2.2c0,0-2.7,0.9-3.6-1.3c0,0-2.8-2.7-0.1-4.4c0,0,1.7-0.4,2.5,2.7s3-2.2,3-2.2s2.4,0.6,3,4c0,0,3.6-0.5,3.6,2.9
			s1.5,4.9,1.5,4.9s3.3,0.6,3.6-2.5s-5-7.6-5-7.6s-1.7-1.1,0.2-3.1s0.5-3.3,0.5-3.3s0.6-1.4,2.5-0.5c1.9,0.9,3.8-1.9,3.8-1.9
			s2.5-6.3-0.5-10.9c-3.1-4.7,0-4.5,0-4.5l3.4,4.5c0,0,3.3,4,2.4-1.9s-11.3-8.4-11.3-8.4h-4.5c0,0-8.7-5-0.3-8.6h5
			c0,0,2.9-3.5,5-1.7s2.2,1.9,2.2,1.9s2,1,2-1.9s0.8-2.5,0.8-2.5l2.6,0.9c0,0,1.9,1,3.1-1.3s2.2,3.6,2.2,3.6l-1.8,2.8
			c0,0-2.5,2.7,1.5,6.5c4.1,3.7,8.7,8.5,8.7,8.5s0.5,4.3,2.3,0.4s-6-15.8-6-15.8l-0.4-3.5c0,0,0.6-1.1,2,0.1
			c1.5,1.2,2.2-0.5,2.2-0.5l3.1-0.5c0,0,0.8-1.5,1.7-1.4s2.5-2.5,0-4.1s-5-2.9-5-2.9s0.9-3.8-3.3-4.5s-8.5-3.9-8.5-3.9
			s-2.4-0.5-5.7,1.5s-6.8,0.3-6.8,0.3s-5.9-4.8-15.1-4.9s-10.5,0-10.5,0s-2.9-2.4-6.8-2c0,0-1.9-1.1,0-2c1.9-1-2.3-1.9-2.3-1.9
			s-5,0.1-7.4-0.5s-8.1-0.8-8.1-0.8s-5.9,0.2-0.6,2.2l3.2,1c0,0,3.8,2-0.9,4.6s-7.2-4.1-7.2-4.1s-4.9-1-7.9-0.1s-15.1,0.1-15.9-0.5
			c-0.8-0.5-0.7-3.8-0.7-3.8h-7.5c0,0-4.3-2-7.5-1.1l-2.7-2.5l-7-0.3c0,0-8.1-2.6-3.2,1.5c4.9,4.1-4.7,4.5-4.7,4.5l-2.7,3.1
			l-5.1,0.5c0,0-2.8,2.6-5.2,0.3c-2.4-2.4-4-1.8-4-1.8s-2.4,3,0,5.7s1.8,3.2,1.8,3.2s-1,1.3-2.9-0.5s-5-0.3-5-0.3l-6.8-3.5
			c0,0-2.9-1.7,0-4.9l2.8-1.6c0,0,2.9-2.7-1.9-1.1s-6.4,3.8-6.4,3.8s-1.6,2.4,1,3.9c2.5,1.5,3,2.7,3,2.7s0.8,1.3-2.7,1.4
			s-4.5-0.1-4.5-0.1s-2.7,5.7-3.8,0.8s-3.3,4.1-3.3,4.1s-0.7,1-2.7,1.1c-2,0.1-2.5,1.6-2.5,1.6s-5.7-0.1-4.8-4.4l3.1,1.2
			c0,0,3.7-0.6,0.3-2.7c-3.5-2.1-8.9-2.3-14.4-4s-11.7,0-11.7,0s-7.5,2.5-9.9,10.9c0,0-3.8,2.3-6.6,3c0,0-1.4,2.6,0,4.5
			s-0.2,4.1,2.3,3.7s4.3-2.1,4.3-2.1s2.2-0.6,2.9,2.6s4.4,2.1,4.4,2.1s2.1-0.6,2.5-2.7c0.4-2.1,1.7-2.7,1.7-2.7s1.2-0.9-0.9-2.5
			c-2-1.7,1.5-3.8,1.5-3.8s-0.3-3.8,3-4s2.4,1.6,2.4,1.6l-2.5,1.9c0,0-0.9,1.1,0.2,2.3c1.1,1.2-0.4,2-0.4,2s2,1.1,3.8,0.1
			c1.8-1,2.7-0.9,2.7-0.9s3.5,0.9,0,3l-2.8,0.5c0,0-3,2-3.7,7.5c0,0,0.3,1.7-3.2,0.5s-3.6,1.6-3.6,1.6l-3-0.2l-3.7-0.7
			c0,0-1.2-0.7-1-4s-3.1,0.5-3.1,0.5l-0.3,2.8c0,0,1.9,3.2-0.9,2.6s-3.1,1-3.1,1s-1.2,2.9-3,3.6s-2,0.3-2.9,1s-0.4,2.3-4.2,2.6
			c-3.8,0.3-4.3,1.2-4.3,1.2s-1.2,2.1,1.1,3.7s3.6,3,3.6,3s1.9,3.1-2.5,3.7s-8.2-0.3-8.2-0.3s-4.4,0.7-2.1,5.3l-0.7,4.1
			c0,0-0.8,3.1,1.7,3.5s2,1.5,2,1.5s4.2,0.2,6-1.8c1.8-2,4.9-1.5,4.9-1.5s3.4-4.6,3.3-7.1c0,0,2.4-2.9,2.4-4.3s2.4,0.3,2.4,0.3
			s2.5,1.4,4.4-0.7c1.9-2,5.5,1.3,5.5,1.3l6.4,6.2c0,0,3.5,1.9,0.3,3.3c-3.2,1.5-1.1,3.4-1.1,3.4s3.6,0.9,5.2-0.7s4.2-3.9,1.8-6.3
			c-2.4-2.4-1.8,0.7-2.6-3.5l-5.4-3.5c0,0-4-4.7,2.6-2c6.6,2.6,7.7,6.6,7.7,6.6s0.2,3,2.1,3.8c2,0.9,1.6,4.5,1.6,4.5
			s1.5,2.7,3.3-0.1s-0.9-3.7-0.9-3.7s0.5-6.7,4.9-0.6s5.2,6.8,5.2,6.8s1.3,1.9,2.9-0.9c1.6-2.8,3.8,0,3.8,0s3.3,0.3,4.9-0.6
			s-1.4,9.5-1.4,9.5s-0.3,3.9-4.3,2s-4.7,1.5-4.7,1.5s-4.1-1-6.6-1.9s-5-2.3-5-2.3s-3.5-1.7-4.5,1.5s-0.8,2.4-2.5,2s-4.3-2-4.3-2
			s-2.5,0.9-3.8-2.5c0,0-2.4-1.4-4.9-1.3c0,0-1.5-1.3,0.3-2.2c1.7-0.9-2.2-2.4-2.2-2.4l-0.6-2.3c0,0-3.5-0.5-5,0.6s-4.2,0.9-4.2,0.9
			s-6.2,0.9-9.7,3.2c-3.4,2.3-5.6-1.1-5.6-1.1s-2,1.5-1.4,3.3s-4.8,1.5-4.8,1.5s-3,1.5-1.9,5.9c0,0,0.4,2.3-2.7,3.2
			s-5.4,5.5-5.4,5.5s0,2.8-1.9,3.4c0,0-5.5,3.8-2.7,9.5c2.8,5.7-1.2,8.6-1.2,8.6s-0.6,4.1,1.9,7.5c0,0,0,2.7,3.7,4.1
			c0,0,1.7,0.2,1.5,3.2s5.5,3.5,5.5,3.5s1,5.6,6.5,3.3c5.4-2.3,7.3-1.1,7.3-1.1s3.6,3.3,5.7-0.6c2.2-3.9,9.1,1,9.1,1s0,3,2.9,1.2
			c2.9-1.8,3.5,1.8,3.5,1.8l-0.5,10l7.3,13.5v3.9c0,0,2.8,3.2,0.6,6c-2.2,2.8-3.3,7.9-3.3,7.9s4,7.5,4.3,12.1s0,4.9,0,4.9
			s2.7,3.5,1.5,5.1s2.3,4,2.3,4l1.7,4.4c0,0-0.1,5.1,3.6,5.2c3.8,0.1,5.2-0.8,5.2-0.8s1.6-0.6,5.2,0.4c0,0,3.5-4.2,5.9-5.3
			s6.9-8.5,6.9-8.5l0.3-3.1c0,0,0.2-1.5,2.5-2.2s1.1-9.6,1.1-9.8c0-0.2,2.3-5.8,6.8-6.3s4-10,4-10l-2.1-13.7c0,0-0.1-2.6,3.1-3.8
			s7.7-11.2,7.7-11.2s2.4,0.1,5-3.6c2.5-3.7,2.7-5.8,2.7-5.8l1.7-6c0,0,2.7-5.6-2.5-2.4c-5.2,3.2-10,0-10,0s0-3.9-4.7-6.5
			c0,0-1.3-4.6-3.6-6.3c-2.3-1.7-4.3-6.9-4.3-6.9s-3.7-11-7.2-14.3c-3.5-3.3-0.5-2.6-0.5-2.6l2.2,2c0,0,1.4-1.5,2,0.3
			s6.8,12.1,6.8,12.1s0.3,3.1,3.3,3.8c2.9,0.7,1.5,3.9,1.5,3.9s3.7,2,4,8.6c0,0,1.3,1.9,4.9,0c3.6-1.9,8.7-2.6,8.7-2.6
			s1.2-2.1,2.9-2.1c1.7,0,3.3-1.1,3.3-1.1s1.5-3.4,3.7-3.8c2.2-0.5,1.8-3.8,1.8-3.8s4.9-3.8,0-4.7c-4.8-0.9-3.1-3.8-3.1-3.8
			s-0.6-1.8-3.3,0c-2.7,1.8-3.6,0.7-3.6,0.7s-2.6,0.1-2.3-2.4s-4-2.1-4-2.1l-3.2-4.7c0,0-0.8-5.4,3.8-1.3c4.6,4.1,3.3,5.4,7.9,5.7
			c4.6,0.4,4.8-2.7,7,1.4c0,0,2.7,1.7,5.5,1.4c1.1,1.2,7,1.8,7.7,0.8c0.2-0.3,0.7-0.5,1.5,1.7s10.1,6.6,10.1,6.6l10.8,23.9
			c0,0,1.3,3.2,2.9,0.3c1.7-2.9,2.4,0.5,2.4,0.5l0.5,3.2c0,0,3.1,3,3.7-1.8l-3.5-4.9c0,0,1.1-2.2-1.3-6.2c-2.4-4,5.5-7.3,5.5-7.3
			s4.1-8.2,9-8.7c4.9-0.5,6.3,2.6,6.3,2.6l1.6,2.8c0,0,3.1,0.3,2.2,5.5c0,0-0.5,1.2,2.6,1.6c3.1,0.4,3.8,1.8,3.8,1.8l1,10.3
			l9.7,14.9c0,0,5.1,7.1,3.5-1.1s-2-7.6-2-7.6s-1.5-2.6-3.1-2.9s-4.1-4.9-4.1-4.9l-0.3-4.1c0,0,0.8-3.4,3.3-0.8s4.9,8,4.9,8
			s1.1,2,7-4.7s-3.6-12.7-3.6-12.7s-5.9-4.3-0.6-8.4c0,0,6.3-0.6,3.6,5.1c0,0,0,3.4,3.1-0.2"/>
	</g>
</g>
</svg>
