<?xml version="1.0" encoding="utf-8"?>
<!-- Generator: Adobe Illustrator 28.2.0, SVG Export Plug-In . SVG Version: 6.00 Build 0)  -->
<svg version="1.1" xmlns="http://www.w3.org/2000/svg" xmlns:xlink="http://www.w3.org/1999/xlink" x="0px" y="0px"
	 viewBox="0 0 595.28 841.89" style="enable-background:new 0 0 595.28 841.89;" xml:space="preserve">
<style type="text/css">
	.st0{fill:#47bbed;}
	.st1{fill:#148D51;stroke:#572310;stroke-width:0.5;stroke-miterlimit:10;}
</style>
<g id="Calque_1">
	<rect class="st0" width="595.28" height="841.89"/>
</g>
<g id="Calque_2">
</g>
<g id="Calque_3">
	<g>
		<path class="st1" d="M122.07,420.68c0,0-0.85,0.18-0.62-2.06c0.22-2.23-0.02-4.88-0.02-4.88s0.47-2.23-3.39-2.27
			s-4.12-0.64-4.12-0.64c0.22,0.41-1.3-2.07,0.8-3.99c1.43-1.31,2.33-3.21,2.72-4.3c0.35-0.98-0.04-2.11-0.98-2.55
			c-0.48-0.22-1.14-0.37-2.06-0.32l-2.59-0.01c0,0-1.28-0.09-1.47,1.57c-0.19,1.66-0.13,3.06-0.13,3.06s0.51,1.82-4.09,1.5
			c-1.43-0.1-2.43-0.2-3.13-0.29c-1.13-0.15-2.12-0.79-2.73-1.76c-0.96-1.53-1.95-4.25-0.43-7.85c1.52-3.59,1.47-5.42,1.23-6.29
			c-0.17-0.6-0.13-1.23,0.19-1.76c1.02-1.72,3.48-4.9,7.46-4.43c5.43,0.64,4.2,1.66,8.99-0.05c3.42-1.22,6.44-0.61,7.89-0.16
			c0.56,0.17,0.97,0.66,1.07,1.24l1.19,7.37c0.04,0.39,1.17,1.55,2.37,0.37c0.5-0.49,0.72-1.19,0.72-1.88l0-6.26
			c0-2.5,1.06-4.91,3-6.48c1.65-1.34,4.21-2.73,8.14-3.72c0,0,1.75,0.55,0.82-4.71c-0.14-0.81,0.26-1.64,1-2
			c0.22-0.11,0.49-0.21,0.8-0.31c1.35-0.44,1.62-1.91,1.64-2.89c0.02-0.77,0.53-1.45,1.28-1.64c0.37-0.1,0.83-0.18,1.42-0.22
			c1.46-0.12,3.44-0.79,4.78-1.3c0.77-0.29,1.3-1.03,1.29-1.86c-0.03-1.37,0.36-3.47,2.84-4.44c2.38-0.93,3.85-1.1,4.62-1.09
			c0.39,0,0.71,0.28,0.78,0.66l0,0c0.12,0.72,0.86,1.15,1.54,0.89l3.12-1.17c0,0,3.06-1.56-0.38-3.96c0,0-1.44-0.32-0.54-2.11
			s-0.77-3.38-0.77-3.38s-1.85-2.36,1.21-2.43c3.06-0.06,6.96,0.1,9.57-0.61c1.49-0.4,2.86-0.83,3.76-1.13
			c0.77-0.25,1.56-0.41,2.36-0.49l1-0.09c0.88-0.08,1.5-0.97,1.19-1.8c-0.31-0.83-1.1-1.88-2.98-2.97
			c-1.18-0.69-2.04-1.47-2.66-2.24c-1.06-1.32-1.56-3-1.58-4.69c-0.02-1.58-0.45-4.54-3.57-3c-4.12,2.04-4.63-1.74-4.63-1.74
			s0.32-3.81-5.27-3.78c-3.5,0.02-5.41,1.26-6.41,2.23c-0.61,0.59-0.98,1.39-1.05,2.24c-0.16,1.82-0.75,5.97-2.95,6.99
			c-0.75,0.35-1.31,0.65-1.72,0.9c-0.72,0.44-1.19,1.2-1.27,2.05l-0.1,1c-0.1,0.97-0.54,1.75-1.27,2.14
			c-0.43,0.23-0.97,0.33-1.59,0.09c-0.76-0.31-1.29-1.04-1.39-1.86c-0.16-1.28-1.02-3.84-5.18-5.29c-0.6-0.21-1.22-0.34-1.85-0.4
			l-3.01-0.28c-0.72-0.07-1.14-0.22-1.5-0.48c-0.88-0.65-1.96-2.15,0.08-5.16c2.98-4.38,9.49-6.13,9.49-6.13s4.04-0.66,7.27-2.39
			c0.49-0.26,1.01-0.43,1.57-0.47l2.71-0.17c0.51-0.03,0.77-0.11,1.01-0.25c0.6-0.34,1.81-1.2,3.48-3.2
			c1.73-2.06,4.73-1.4,6.37-0.82c1.23,0.43,1.82,1.81,1.25,2.98c-0.16,0.33-0.38,0.68-0.68,1.07c-1.87,2.38,0.85,2.47,0.85,2.47
			s4.72,1.62,6.09,3.57c0.7,1.01,1.67,0.93,2.43,0.62c0.78-0.32,1.28-1.08,1.3-1.92l0.14-4.62c0,0,0.6-3.23,3.79-0.85
			c2.12,1.58,2.75-0.21,2.94-1.59c0.11-0.78-0.19-1.55-0.8-2.05c-3.49-2.84-16.68-12.45-25.85-3.72c-0.34,0.32-0.62,0.7-0.84,1.12
			c-0.62,1.16-2.33,3.56-4.52-0.1c0,0-1.4-2-2.68,0.21c-0.86,1.49-2.08,0.73-2.79,0.07c-0.84-0.78-1.96-1.23-3.09-1.07
			c-0.83,0.11-1.81,0.48-2.88,1.35c-2.26,1.82-5,1.6-6.29,1.37c-0.58-0.11-1.16-0.15-1.75-0.13l-12.32,0.55
			c-0.61,0.03-1.21-0.18-1.68-0.58c-1.1-0.95-3.36-2.58-5.24-2.06c-1.94,0.54-5-1.11-6.42-1.97c-0.58-0.35-1.23-0.55-1.91-0.61
			c-2.04-0.17-6.37-0.39-9.03,0.63c-2.44,0.93-5.3,1.25-6.87,1.35c-0.71,0.05-1.93,0.24-2.62,0.1c-2.72-0.56-10.18-1.56-12.94-2
			c-2.93-0.46-15.3,0.33-18.77,1.35c-0.78,0.23-1.6,0.29-2.31,0.71c-0.96,0.58-2.1,1.57-2.18,2.98c-0.04,0.67-0.43,1.25-1.05,1.48
			c-1.4,0.52-3.52,1.72-3.59,4.15c-0.03,0.91-0.59,1.73-1.44,2.07c-0.63,0.25-1.52,0.36-2.75,0.11c-2.76-0.56-7.22,1.54-9.05,2.49
			c-1.13,0.59-1.58,1.99-0.97,3.1c0.44,0.81,1.36,1.79,3.08,2.89c0.46,0.3,0.7,0.95,0.48,1.45c-0.49,1.09-2.3,2.8-8.42,4.25
			c-0.07,0.02-0.07,0.12,0,0.12c1.51,0,6.12-0.07,8.45-1.03c1.73-0.71,3.13-1.42,3.94-1.86c0.54-0.29,1.14-0.44,1.75-0.44h5.75
			c0.4,0,0.75-0.22,0.94-0.57c0.18-0.33,0.44-0.7,0.77-0.83c0.51-0.21,5.73-2.23,7.76-3.01c0.58-0.22,1.17-0.37,1.79-0.43
			c3.05-0.3,12.11-0.58,12.87,6.43c0.06,0.57-0.14,1.14-0.55,1.54c-1.24,1.22-3.97,4.1-3.87,5.68c0.05,0.75,0.16,1.28,0.29,1.65
			c0.15,0.42,0.68,0.52,0.98,0.19c0.85-0.93,2.54-2.59,3.2-1.84c0.65,0.74,0.76,3.92,0.77,5.6c0,0.6,0.17,1.19,0.5,1.7
			c0.66,0.99,1.6,2.99,0.53,5.28c-0.19,0.42-0.49,0.78-0.84,1.07c-1.47,1.21-6.06,5.19-6.7,8.19c-0.77,3.57-3.06,11.23,1.4,16.09
			c4.47,4.85,5.62,14.17,5.62,14.17s0.64,4.85,3.7,7.02c3.06,2.17-0.77-5.23-0.77-5.23s-2.17-4.98-1.91-9.45
			c0.22-3.82,3.79,5.41,4.83,8.18c0.18,0.49,0.48,0.92,0.86,1.27c1.07,0.99,3.22,3.18,3.12,4.72c-0.12,1.98,0.71,8.17,9.04,13.08
			c0.52,0.31,1.09,0.51,1.68,0.62c2.01,0.39,6.93,1.31,9.83,1.61c2.88,0.3,4.14,3.22,4.55,4.5c0.17,0.51,0.56,0.92,1.07,1.07
			c0.47,0.14,1.14,0.21,2.03,0.05c2.04-0.38,4.34-2.55,5.11,2.3c0.57,3.63,2.65,4.19,3.66,4.24c0.3,0.01,0.52,0.26,0.51,0.55
			c-0.01,0.74,0.09,2.05,0.85,3.19c0.5,0.75,1.33,1.22,2.23,1.33c1.68,0.21,4.96,0.65,5.56,0.9c0.78,0.33,5.11,5.2,0.01,8.65
			c-0.95,0.64-1.37,1.84-0.96,2.91l0.02,0.05c0.46,1.19-1.06,3.04-1.95,3.99c-0.42,0.44-0.72,0.97-0.87,1.56
			c-0.51,1.91-1.52,6.28-1.14,9.39c0.51,4.09,1.45,5.09,1.45,5.09l0.36,0.11c0.53,0.17,1.04,0.39,1.52,0.65l0.27,0.15
			c0.14,0,0.26,0.08,0.31,0.21c0.66,1.77,5.55,14.24,12.31,16.26c6.27,1.87,5.72,13.77,5.44,17.04c-0.05,0.58-0.04,1.16,0.04,1.73
			l1.9,14.45c0.08,0.63,0.27,1.24,0.57,1.79c0.62,1.11,1.57,3.44,0.47,5.83c-1.13,2.44-0.66,4.47-0.34,5.37
			c0.16,0.44,0.19,0.9,0.12,1.37c-0.11,0.75-0.36,2-0.93,3.85c-0.87,2.83,3.45,12.79,4.75,15.68c0.26,0.58,0.59,1.12,1,1.61
			c1.89,2.27,7.92,8.55,17.21,9.32c1.14,0.1,2.13-0.95,1.81-2.05c-0.19-0.65-0.69-1.38-1.79-2.1c-0.5-0.33-1.07-0.55-1.66-0.7
			l-2.79-0.7c-0.56-0.14-0.91-0.7-0.79-1.27c0.24-1.17,0.44-2.99-0.5-3.33c-0.51-0.19-0.92-0.35-1.23-0.49
			c-0.38-0.17-0.44-0.67-0.11-0.93c0.77-0.61,1.85-1.56,1.6-1.9c-0.27-0.35-0.04-2.25,0.12-3.37c0.09-0.59-0.12-1.19-0.58-1.57
			c-0.24-0.2-0.53-0.41-0.85-0.56c-0.41-0.19-0.57-0.72-0.34-1.11c0.65-1.15,1.33-3.45-0.39-6.92c-2.35-4.75,3.62-0.76,3.45-0.89
			c0,0,2.94,1.91,1.66-1.91c-0.64-1.91-0.41-2.9-0.03-3.41c0.31-0.41,0.88-0.51,1.37-0.35c0.73,0.25,2.28,0.47,4.02-1.09
			c2.43-2.17,1.15-4.72,1.15-4.72s-1.89-1.89,0.86-2.97c0.35-0.14,0.74-0.15,1.12-0.07c0.64,0.14,1.93,0.17,3.77-1.05
			c2-1.33,2.58-5.23,2.74-7.12c0.05-0.55,0.5-0.97,1.05-0.98c0.9-0.03,1.99-0.37,1.18-1.98c-1.28-2.55-0.64-7.79,3.57-10.09
			l3.42-1.87c0.45-0.25,0.97-0.36,1.49-0.31c1.23,0.13,3.72,0,4.5-3.1c0.77-3.06,1.89-7.16,2.43-9.12c0.21-0.76,0.33-1.54,0.36-2.34
			l0.18-5.13c0.02-0.67,0.24-1.33,0.63-1.88l4.49-6.43c0,0,2.35-4.33,0.1-7.66c-0.28-0.42-0.71-0.7-1.2-0.82
			c-0.88-0.21-2.71-0.83-5.62-2.61c-4.32-2.64-1.53-3.49-6.43-3.45c-3.9,0.03-8.87-4.47-10.72-6.3c-0.48-0.48-0.79-1.1-0.89-1.77
			l-0.46-3.13c-0.06-0.4-0.35-0.71-0.74-0.8c-1.1-0.26-3.34-1.11-4.51-3.69c-1.6-3.51-7.38-1.94-7.38-1.94s-4.43,0.66-5.36-3.85
			c-0.94-4.51-3.72-5.19-3.72-5.19s-1.72-0.66-5,2.72c-2.71,2.8-3.47-0.18-3.65-1.29c-0.05-0.32-0.27-0.58-0.58-0.67
			c-0.47-0.13-1.21-0.08-2.13,0.84c-0.3,0.3-0.74,0.43-1.15,0.32l-9.17-2.47c0,0-2.32-0.43-2.96,2.38c-0.46,2-1.76,2.9-2.48,3.25
			c-0.29,0.14-0.61,0.19-0.92,0.13c-0.58-0.11-1.59-0.39-2.02-1.01c-0.18-0.25-0.45-0.41-0.76-0.38l-5.09,0.46
			c0,0-1.13,0.17-1.28-3.83C122.66,421.47,122.88,420.53,122.07,420.68z"/>
		<path class="st1" d="M176.43,347.07l3.83-4.45c0,0,1.98-1.49,3.36,0.85c0,0,0.89,0.85,1.96,0.87c1.06,0.02,0.98,1.28,0.98,1.28
			s-1.17,1.4-1,2.96c0.09,0.8-0.69,0.92-1.47,0.84c-0.71-0.07-1.39-0.34-1.93-0.8c-0.55-0.48-1.6-1.08-3.15-0.78l-1.68,0.04
			C177.32,347.88,175.53,348.07,176.43,347.07z"/>
		<path class="st1" d="M115.11,302.55c0.25,0.63,0.93,0.97,1.6,0.84c1.57-0.3,4.58-0.7,4.75,0.65c0.22,1.84-0.3,2.2,0.69,2.15
			s15.13-0.81,15.13-0.81s2.06,0.59,1.55-2.51c-0.39-2.39,2.44-1.85,3.76-1.48c0.38,0.11,0.73,0.28,1.05,0.5
			c0.77,0.53,2.53,1.55,4.34,1.23c2.41-0.41,2.87-0.99,3.35-2.62s4.85-1.39,4.85-1.39l3.05-0.14c0,0,1.93-1.37-0.69-2.25
			c-2.09-0.7-5.13,0.36-6.26,0.82c-0.33,0.13-0.68,0.22-1.04,0.25c-1.2,0.11-4.02,0.25-6.34-0.43c-1.65-0.49-3.01-0.57-3.92-0.55
			c-0.66,0.02-1.28,0.28-1.73,0.76c-0.76,0.82-2.31,2.12-4.38,2.12c-3.02,0-5.51,0.34-8.74-1.79s-8.3,0.41-8.3,0.41
			S114.11,300.03,115.11,302.55z"/>
		<path class="st1" d="M154.17,291.8c-0.78,0.01-1.55-0.02-2.33-0.1c-1.9-0.19-6.08-0.41-9.17,0.79c-2.76,1.07-4.74,1.52-5.75,1.7
			c-0.64,0.12-1.25,0.34-1.8,0.69c-0.88,0.56-1.61,1.27,1.22,0.94c0.48-0.06,0.95-0.22,1.37-0.45c0.83-0.46,2.58-1.17,4.96-0.81
			c2.71,0.41,6.42,0.04,7.79-0.12c0.38-0.05,0.76-0.07,1.14-0.08l10.97-0.28c0.61-0.02,1.2,0.2,1.65,0.6
			c1.14,1.02,3.65,2.94,6.66,3.17c2.83,0.22,4.92-2.14,5.95-3.64c0.78-1.14,1.78-2.11,2.99-2.77c1.11-0.6,2.64-1.25,4.6-1.66
			c0.76-0.16,1.5-0.43,2.13-0.89c0.99-0.72,1.72-1.76-1.77-2.02c-5.49-0.41-11.11,2.36-11.11,2.36s-7.4,1.91-10.44,2.2
			C161.02,291.65,156.43,291.76,154.17,291.8z"/>
		<path class="st1" d="M239.94,315.21c0.02-0.49-0.24-0.95-0.69-1.15c-1-0.42-2.4-1.33-0.69-2.72c2.46-1.99,4.02,1.07,4.02,1.07
			s0.8,1.4,3.96-0.7c2.2-1.47,4.01-0.23,4.91,0.66c0.43,0.42,0.43,1.13-0.02,1.52c-0.51,0.44-1.42,0.96-2.99,1.26l-2.7,1.07
			c-0.55,0.22-1.13,0.35-1.72,0.4l-2.22,0.18C241.8,316.81,239.85,317.51,239.94,315.21z"/>
		<path class="st1" d="M193.03,289.91c0,0-4.34,2.23-3.31,4.61c0.32,0.75,1.1,1.2,1.92,1.28l5.86,0.55c0,0,4.05,0.57,3.61,4.15
			c-0.27,2.15,0.01,3.17,0.27,3.64c0.25,0.45,0.31,0.99,0.12,1.47c-0.27,0.69-0.89,1.62-2.24,2.55c-2.27,1.56,0.74,10.24,1.64,12.67
			c0.16,0.44,0.49,0.8,0.91,1.01c1.52,0.78,5.26,2.21,7.34-1.24c2.65-4.4,5.78-5.84,5.78-5.84l18.54-8.41c0,0,2.85-1.04,5.14-0.77
			c0.75,0.09,1.48-0.33,1.68-1.06c0.11-0.42,0.11-0.91-0.18-1.38c-0.45-0.72,0.46-0.93,1.35-0.98c0.72-0.04,1.29-0.56,1.44-1.26
			c0.17-0.77,0.59-1.8,1.61-2.84c2.04-2.07,2.46-0.45,3.38-3.89c0.78-2.9-0.77-1.25,0.61-2.94c0.66-0.8,1.45-1.48,2.37-1.96
			c2.07-1.1,5.3-3.23-1.95-2.63c-6.38,0.53-8.55,0.01-9.29-0.4c-0.43-0.24-0.91-0.38-1.4-0.37l-15.35,0.45
			c0,0-10.09-0.38-11.52-0.48C209.92,285.76,196.74,286.94,193.03,289.91z"/>
		<path class="st1" d="M283.9,289.49l5.6,0.23c0,0,1.21,1.23,2.81,0.21c1.6-1.02,5-0.02,5-0.02s2.72,1.36,0.13,2.19
			c-2.22,0.71-0.99,1.42-0.58,1.61c0.03,0.02,0.03,0.06-0.01,0.07c-0.45,0.06-2.06,0.21-3.26-0.44c-1.4-0.77-3.64,2.11-3.64,2.11
			S282.49,292.53,283.9,289.49z"/>
		<path class="st1" d="M255.13,336.34c0,0-1.91-2.74,1.49-1.7c0,0,1.11-3.26,3.21-1.43c2.11,1.83,1.19,3.13,1.19,3.13l-3.79,3.47
			c0,0-3.87,0.74-2.11-1.55C256.9,335.96,255.13,336.34,255.13,336.34z"/>
		<path class="st1" d="M262.07,331.17c0-0.16-2.62-5.39,2.84-3.54c5.46,1.85,3.26,1.57,3.26,1.57s-1.47,1.46-0.45,2.35
			c1.02,0.89,3.83,4.47,3.83,4.47s2.17,2.68-0.86,3.41c-3.03,0.73-3.82,0.93-3.82,0.93l-2.76,1.56c0,0-2.17,0-1.24-2.27
			s1.09-3.37,1.09-3.37s-0.1-1.35,0.89-2.41C265.83,332.83,262.07,331.17,262.07,331.17z"/>
		<path class="st1" d="M349.21,476.96c0,0,3.06-1.53,5.19-5.28c1.2-2.11,2.34-2.95,3.11-3.28c0.48-0.21,1.02,0.13,1.09,0.65
			l0.35,2.51c0.13,0.94,0.28,1.87,0.56,2.78c0.16,0.51,0.24,1.22-0.26,1.77c-0.85,0.94-1.45,1.7-0.85,2.81
			c0.6,1.11-1.7,3.49-1.7,3.49s-1.79,9.19-4.43,11.57c-2.64,2.38-5.11,0.6-5.11,0.6s-1.87-2.47-0.6-3.74
			c0.64-0.64,0.53-1.38,0.26-1.97c-0.28-0.61-0.19-1.34,0.32-1.78c1.22-1.07,2.93-3.12,1.47-5.38
			C346.49,478.41,349.21,476.96,349.21,476.96z"/>
		<path class="st1" d="M485.39,450.78c-0.41,0.35-1.05,0.11-1.12-0.42c-0.23-1.54-0.3-3.91,0.95-5.35c1.34-1.53,4.29-1.07,6.07-0.6
			c0.66,0.17,0.87,0.99,0.38,1.46l-1.22,1.18c0,0-1.05,2.04,0.64,3c1.69,0.96,1.88,3.38,1.88,3.38s-0.32,2.46-2.94,0.93
			c-1.65-0.96-1.9-2.53-1.87-3.56c0.02-0.56-0.48-1.01-1.03-0.87C486.59,450.06,485.93,450.31,485.39,450.78z"/>
		<path class="st1" d="M508.7,528.3c0.16-0.38,0.5-0.64,0.91-0.71c0.92-0.14,2.64-0.45,3.95-0.93c1.63-0.59-0.73,3.96-1.38,5.16
			c-0.1,0.19-0.25,0.35-0.44,0.47c-1.02,0.65-4.48,2.58-4.19-1.34L508.7,528.3z"/>
		<path class="st1" d="M540.75,533.35c0,0-9.32,8.84,2.68,4.7c0,0,6.96-6.26,8.55-6.77c1.6-0.51,2.43-1.51,4.4-1.3
			c1.98,0.21,1.98-2.34,1.98-2.34s6.89-1.66,8.74-5.3c0,0,1.02-1.66-1.85-1.4l0.26-5.81c0,0-1.15-2.81-2.74,0
			c-1.6,2.81-0.57,6.64-7.98,12.13c0,0-2.87,2-7.21,2.72C543.24,530.7,540.75,533.35,540.75,533.35z"/>
		<path class="st1" d="M500.11,439.3l2.18,0.45c0.44,0.09,0.78,0.45,0.82,0.89c0.07,0.82-0.07,2.15-1.47,3.14
			c-2.17,1.53-2.68-1.57-2.68-1.57s-0.51-1.14-0.26-2.07C498.87,439.52,499.5,439.17,500.11,439.3z"/>
		<path class="st1" d="M506.79,446.02c0,0,1.74,0.26,2.64,0s1.2,3.56,2.89,2.72c1.79-0.89,2.64,0.17,6.3-1.53
			c3.66-1.7,10.85,6.85,10.85,6.85s1.53,0.55,7.49,0c0,0,3.11,2.12-0.26,2.72c-5.19,0.93-1.73,3.16-0.55,3.62
			c0,0,7.15,4.68-0.43,3.57l-4.21-3.02c0,0-1.96-1.4-4.43,0.55c-2.47,1.96-4.09,1.23-4.09,1.23s-0.8-1.15-0.59-2.81l-5.96-0.09
			c0,0-4.81-0.09-0.3-2c4.51-1.91,0.04-5.32,0.04-5.32s-2.04-1.54-4.85-1.49C506.87,451.12,505.68,446.05,506.79,446.02z"/>
		<path class="st1" d="M481.29,394.4c0,0,2.27-2.97,2.62,0.26c0.23,2.09-0.48,3.21-1.01,3.74c-0.28,0.28-0.73,0.31-1.05,0.08
			C481.06,397.89,479.83,396.55,481.29,394.4z"/>
		<path class="st1" d="M500.15,354.63c0,0-4.37-4.85,0.67-1.4c5.04,3.45,5.84-1.24,5.84-1.24s1.95,1.01,0.41,3.15
			c-1.53,2.14-1.31,2.9-2.33,2.87c-0.67-0.02-1.97-0.08-2.78-0.12c-0.37-0.02-0.72,0.18-0.86,0.52c-0.25,0.6-0.85,1.22-2.18-0.88
			c-1.95-3.06,0.89-1.85,0.89-1.85S501.36,355.56,500.15,354.63z"/>
		<path class="st1" d="M501.97,365.16c0,0-0.03-8.78,3.86-0.38c3.89,8.39-1.66,8.14-1.66,8.14l-3.61,0.99c0,0-1.76,2.97-3.83,1.05
			c-2.07-1.91-1.63,3.8-1.63,3.8s-0.67,2.52-3.06-0.54c-2.39-3.06,0.99-3.89,0.99-3.89s1.21-2.07,2.36-2.46
			c1.15-0.38,3.81-0.41,3.81-0.41v-2.33c0,0,0.05-1.95,1.62-1.18C502.38,368.7,501.97,365.16,501.97,365.16z"/>
		<path class="st1" d="M480.13,429.27c0.27,0.86,0.81,2.19,1.57,2.66c0.39,0.24,0.64,0.67,0.52,1.11l-0.71,2.81
			c0,0-0.57,2.31,0.96,4.03c1.07,1.2-0.46,2.51-1.47,3.17c-0.59,0.39-1.05,0.97-1.28,1.64c-0.42,1.21-0.81,3.13,0.2,4.72
			c1.25,1.98-5.27,1.23-8.14,0.81c-0.9-0.13-1.73-0.52-2.41-1.12c-2.22-1.96-6.77-6.65-3.81-9.83l3.38-0.74c0,0,1.33-0.64,2.3-1.92
			c0.28-0.37,0.72-0.58,1.18-0.58l1.39-0.03c0.71-0.01,0.97-0.75,1.57-1.12c1.57-0.99,2.75-4.38,3.33-6.09
			C478.91,428.2,479.94,428.67,480.13,429.27z"/>
		<path class="st1" d="M483.56,409.3c0.33-1.19,1.09-2.93,2.53-1.14c0.26,0.33,0.4,0.75,0.4,1.17v2.14c0,0,0.1,1.15,2.06,1.66
			c1.96,0.51,3.24,3.06,3.24,3.06v2.6c0,0.89,0.42,1.74,1.17,2.21c0.34,0.21,0.77,0.41,1.31,0.55c2.11,0.57,0.77,2.87,0.77,2.87
			s-0.64,2.44,0.13,4.09c0.35,0.75,0.3,1.52,0.15,2.15c-0.17,0.69-0.93,1.06-1.59,0.78c-0.85-0.36-2.01-0.71-2.71-0.38
			c-1.21,0.57-2.47,1.79-2.47,1.79s-2.76,2.49-1.17-1.98s3.26-3.51,3.26-3.51s2.23-1.91-0.77-2.04s-0.46-4.53-0.46-4.53
			s-0.75-5.17-2.22-2.94s-2.55-3.96-2.55-3.96l-1.02-2.97C483.43,410.4,483.41,409.83,483.56,409.3z"/>
		<path class="st1" d="M444.45,433.31c-9.56-3.02,0.68,5.1,0.68,5.1s2.72,1.03,2.81,3.32c0.09,2.29,7.57,14.29,10.04,14.72
			c0.04,0.01,0.08,0.01,0.12,0.02c1.24,0.22,2.44,0.72,3.33,1.61c0.59,0.59,1.92,1.26,4.89,1.26c3.57,0,7.91,1.13,10.35,1.86
			c1.35,0.41,2.75,0.61,4.16,0.61h7.71c0,0,8.41,0-0.36-1.45s-13.7-2.3-13.7-2.3s-3.66,0-7.06-2.38c-1.54-1.08-2.87-1.35-3.86-1.32
			c-1.43,0.04-2.67-0.93-2.9-2.34c-0.11-0.7-0.19-1.55-0.18-2.55c0.01-1.49-0.58-2.93-1.66-3.97l-10.01-9.6
			C447.59,434.72,446.08,433.82,444.45,433.31z"/>
		<path class="st1" d="M468.62,494.27c-1.79-6.56,5.87-8.38,5.87-8.38s13.28-5.23,16.21-9.83c2.94-4.6,4.76-4.21,4.76-4.21
			l2.65,0.25c1.88,0.18,3.73-0.73,4.67-2.37c0.15-0.27,0.29-0.52,0.4-0.75c0.59-1.19,1.79-1.97,3.12-2.01
			c2.39-0.06,3.78,0.81,5.84,1.3c2.68,0.64,2.04,2.04,0.77,3.45c-0.01,0.01-0.03,0.03-0.04,0.04c-0.99,1.13-0.37,2.95,1.08,3.32
			c0.97,0.25,2.17,0.84,2.66,2.25c0.89,2.55,2.55,0.51,2.55,0.51s1.15-0.64,3.63-7.79c2.48-7.15,2.88,1.91,2.88,1.91
			c3.83,0.51,3.06,3.45,3.06,3.45l0.89,6l3.7,5.49c6.26,7.66,2.81,14.81,2.81,14.81s-8.3,13.79-11.23,14.3
			c-1.61,0.28-2.68,1.59-3.32,2.72c-0.72,1.27-1.97,2.15-3.41,2.45c-1.66,0.35-3.74,0.6-5.02,0.06c-2.43-1.02-4.72,0-4.72,0
			s-4.98-0.38-3.57-2.17c1.4-1.79,0-2.3,0-2.3s-2.94,1.91-1.15-2.84c1.79-4.76-2.04-1.24-2.04-1.24s-3.83,2.17-3.05-1.87
			s-3.17-3.11-3.17-3.11s-4.25,1.91-8.46,1.53c-2.43-0.22-4.35,0.59-5.54,1.32c-0.73,0.45-1.6,0.56-2.44,0.4
			c-1.15-0.21-3.46,0.01-8.1,1.97c-8.43,3.57-2.94-3.7-2.94-3.7L468.62,494.27z"/>
		<path class="st1" d="M466.07,405.02v-2.87c0,0-0.83-2.11,3-2.11c3.83,0,11.54-12.96,11.54-12.96s1.86-5.87-2.61-10.98l-3.06-3.38
			c0,0-2.81-0.36-0.19-2.29l1.21-0.9c0,0,1.79-1.28-1.21-2.17c0,0-2.68,0.89-3.57-1.34c0,0-2.81-2.68-0.13-4.4
			c0,0,1.74-0.38,2.45,2.74s2.98-2.17,2.98-2.17s2.43,0.57,3,3.96c0,0,3.64-0.51,3.64,2.87c0,3.38,1.53,4.85,1.53,4.85
			s3.26,0.64,3.64-2.55s-4.98-7.6-4.98-7.6s-1.66-1.09,0.19-3.13c1.85-2.04,0.46-3.26,0.46-3.26s0.63-1.4,2.48-0.51
			c1.85,0.89,3.83-1.91,3.83-1.91s2.55-6.26-0.51-10.91c-3.06-4.66,0-4.47,0-4.47l3.38,4.47c0,0,3.26,3.96,2.36-1.91
			s-11.3-8.43-11.3-8.43h-4.47c0,0-8.74-4.98-0.26-8.62h5.04c0,0,2.87-3.51,5.04-1.66c2.17,1.85,2.17,1.85,2.17,1.85
			s2.04,0.96,2.04-1.85c0-2.81,0.77-2.49,0.77-2.49l2.62,0.89c0,0,1.91,0.96,3.06-1.34c1.15-2.3,2.23,3.57,2.23,3.57l-1.79,2.81
			c0,0-2.55,2.74,1.53,6.45c4.09,3.7,8.68,8.49,8.68,8.49s0.51,4.34,2.3,0.38c1.79-3.96-5.96-15.77-5.96-15.77l-0.36-3.45
			c0,0,0.57-1.09,2.04,0.13c1.47,1.21,2.23-0.51,2.23-0.51l3.13-0.45c0,0,0.83-1.53,1.72-1.4s2.49-2.49,0-4.15s-5.04-2.87-5.04-2.87
			s0.86-3.83-3.27-4.47s-8.53-3.89-8.53-3.89s-2.36-0.51-5.74,1.47s-6.83,0.32-6.83,0.32s-5.94-4.79-15.13-4.85
			c-9.19-0.06-10.53,0-10.53,0s-2.94-2.43-6.83-2.04c0,0-1.91-1.09,0-2.04c1.91-0.96-2.3-1.85-2.3-1.85s-5.04,0.13-7.4-0.51
			c-2.36-0.64-8.11-0.77-8.11-0.77s-5.87,0.19-0.57,2.17l3.19,0.96c0,0,3.83,1.98-0.89,4.6c-4.72,2.62-7.21-4.15-7.21-4.15
			s-4.85-0.96-7.85-0.06s-15.06,0.06-15.89-0.45c-0.83-0.51-0.7-3.77-0.7-3.77h-7.47c0,0-4.28-1.98-7.53-1.09l-2.68-2.49l-7.02-0.26
			c0,0-8.11-2.62-3.19,1.47c4.91,4.09-4.66,4.53-4.66,4.53l-2.74,3.13l-5.11,0.51c0,0-2.81,2.62-5.23,0.26
			c-2.43-2.36-4.02-1.79-4.02-1.79s-2.43,3,0,5.68c2.43,2.68,1.79,3.19,1.79,3.19s-1.01,1.34-2.87-0.45s-4.99-0.26-4.99-0.26
			l-6.77-3.51c0,0-2.87-1.66,0-4.85l2.81-1.6c0,0,2.87-2.74-1.91-1.09s-6.38,3.77-6.38,3.77s-1.6,2.43,0.96,3.89
			c2.55,1.47,3,2.74,3,2.74s0.83,1.34-2.68,1.4s-4.53-0.13-4.53-0.13s-2.74,5.74-3.83,0.83c-1.09-4.91-3.26,4.15-3.26,4.15
			s-0.7,1.02-2.68,1.09c-1.98,0.06-2.49,1.6-2.49,1.6s-5.7-0.08-4.77-4.42l3.15,1.19c0,0,3.74-0.6,0.26-2.72
			c-3.49-2.13-8.94-2.3-14.38-4s-11.74,0-11.74,0s-7.49,2.55-9.87,10.89c0,0-3.83,2.3-6.64,2.98c0,0-1.36,2.64,0,4.51
			c1.36,1.87-0.17,4.12,2.3,3.72c2.47-0.4,4.26-2.1,4.26-2.1s2.21-0.6,2.89,2.64s4.43,2.13,4.43,2.13s2.13-0.56,2.55-2.66
			c0.43-2.1,1.7-2.7,1.7-2.7s1.19-0.85-0.85-2.55c-2.04-1.7,1.45-3.83,1.45-3.83s-0.34-3.83,2.98-4c3.32-0.17,2.38,1.62,2.38,1.62
			l-2.55,1.87c0,0-0.94,1.11,0.17,2.3c1.11,1.19-0.43,2.04-0.43,2.04s2.04,1.11,3.83,0.09c1.79-1.02,2.72-0.94,2.72-0.94
			s3.49,0.85,0,2.98l-2.81,0.51c0,0-2.98,2.04-3.74,7.49c0,0,0.34,1.69-3.23,0.55c-3.57-1.14-3.57,1.58-3.57,1.58l-2.98-0.17
			l-3.74-0.68c0,0-1.19-0.68-1.02-4c0.17-3.32-3.06,0.51-3.06,0.51l-0.26,2.76c0,0,1.87,3.2-0.94,2.6c-2.81-0.6-3.07,1.03-3.07,1.03
			s-1.18,2.86-3.05,3.63s-2.01,0.27-2.88,1.03s-0.36,2.3-4.19,2.64c-3.83,0.34-4.26,1.19-4.26,1.19s-1.19,2.13,1.11,3.66
			s3.57,2.98,3.57,2.98s1.87,3.15-2.47,3.66c-4.34,0.51-8.16-0.26-8.16-0.26s-4.35,0.68-2.05,5.28l-0.67,4.09
			c0,0-0.78,3.15,1.69,3.49c2.47,0.34,1.96,1.53,1.96,1.53s4.17,0.17,5.96-1.79c1.79-1.96,4.85-1.53,4.85-1.53s3.4-4.6,3.32-7.06
			c0,0,2.38-2.89,2.38-4.34s2.38,0.26,2.38,0.26s2.55,1.36,4.43-0.68c1.87-2.04,5.53,1.28,5.53,1.28l6.38,6.21
			c0,0,3.49,1.87,0.26,3.32c-3.23,1.45-1.11,3.4-1.11,3.4s3.57,0.94,5.19-0.68c1.62-1.62,4.17-3.91,1.79-6.3
			c-2.38-2.38-1.79,0.68-2.64-3.49l-5.36-3.49c0,0-4-4.68,2.64-2.04c6.64,2.64,7.66,6.64,7.66,6.64s0.17,2.98,2.13,3.83
			c1.96,0.85,1.62,4.51,1.62,4.51s1.45,2.72,3.32-0.09c1.87-2.81-0.94-3.66-0.94-3.66s0.51-6.72,4.85-0.6s5.19,6.81,5.19,6.81
			s1.28,1.87,2.89-0.94c1.62-2.81,3.83,0,3.83,0s3.32,0.34,4.94-0.6c1.62-0.94-1.36,9.53-1.36,9.53s-0.26,3.91-4.26,2.04
			s-4.68,1.45-4.68,1.45s-4.09-1.02-6.64-1.87s-5.02-2.3-5.02-2.3s-3.49-1.7-4.51,1.53s-0.77,2.38-2.47,1.96s-4.34-1.96-4.34-1.96
			s-2.55,0.85-3.83-2.55c0,0-2.38-1.36-4.94-1.28c0,0-1.45-1.28,0.26-2.21c1.7-0.94-2.21-2.38-2.21-2.38l-0.6-2.3
			c0,0-3.49-0.51-5.02,0.6s-4.17,0.85-4.17,0.85s-6.23,0.94-9.67,3.23c-3.44,2.3-5.65-1.11-5.65-1.11s-2.05,1.53-1.37,3.32
			s-4.79,1.45-4.79,1.45s-3.04,1.53-1.94,5.91c0,0,0.43,2.34-2.72,3.19c-3.15,0.85-5.36,5.45-5.36,5.45s-0.04,2.77-1.94,3.43
			c0,0-5.49,3.77-2.68,9.51c2.81,5.74-1.21,8.62-1.21,8.62s-0.64,4.15,1.95,7.53c0,0,0.03,2.68,3.73,4.15c0,0,1.66,0.19,1.53,3.19
			c-0.13,3,5.49,3.51,5.49,3.51s1.02,5.62,6.45,3.32s7.34-1.15,7.34-1.15s3.57,3.32,5.74-0.57c2.17-3.89,9.13,1.02,9.13,1.02
			s0,3.02,2.87,1.25c2.87-1.76,3.45,1.81,3.45,1.81l-0.45,10.02l7.34,13.53v3.89c0,0,2.81,3.19,0.64,6
			c-2.17,2.81-3.26,7.91-3.26,7.91s4.02,7.47,4.34,12.06s0,4.91,0,4.91s2.74,3.45,1.53,5.11s2.3,4.02,2.3,4.02l1.66,4.4
			c0,0-0.13,5.11,3.64,5.23c3.77,0.13,5.17-0.77,5.17-0.77s1.6-0.57,5.23,0.38c0,0,3.51-4.21,5.87-5.3s6.89-8.49,6.89-8.49
			l0.32-3.13c0,0,0.19-1.53,2.49-2.23c2.3-0.7,1.09-9.57,1.09-9.77c0-0.19,2.3-5.81,6.83-6.32c4.53-0.51,3.96-10.02,3.96-10.02
			l-2.11-13.72c0,0-0.06-2.62,3.13-3.83c3.19-1.21,7.66-11.23,7.66-11.23s2.43,0.06,4.98-3.64c2.55-3.7,2.68-5.81,2.68-5.81l1.72-6
			c0,0,2.68-5.62-2.55-2.43c-5.23,3.19-9.96,0-9.96,0s0-3.89-4.66-6.51c0,0-1.34-4.6-3.64-6.26c-2.3-1.66-4.28-6.89-4.28-6.89
			s-3.7-11.04-7.21-14.3c-3.51-3.26-0.45-2.62-0.45-2.62l2.23,2.04c0,0,1.4-1.53,2.04,0.32c0.64,1.85,6.83,12.13,6.83,12.13
			s0.32,3.13,3.26,3.83c2.94,0.7,1.47,3.89,1.47,3.89s3.7,2.04,4.02,8.62c0,0,1.28,1.91,4.91,0c3.64-1.91,8.67-2.62,8.67-2.62
			s1.16-2.11,2.89-2.11c1.72,0,3.26-1.15,3.26-1.15s1.47-3.38,3.7-3.83c2.23-0.45,1.79-3.83,1.79-3.83s4.86-3.77,0.04-4.66
			c-4.82-0.89-3.1-3.77-3.1-3.77s-0.57-1.79-3.26,0c-2.68,1.79-3.57,0.7-3.57,0.7s-2.62,0.13-2.3-2.43s-3.96-2.11-3.96-2.11
			l-3.19-4.72c0,0-0.83-5.36,3.77-1.28c4.6,4.09,3.32,5.36,7.91,5.74c4.6,0.38,4.79-2.74,6.96,1.4c0,0,2.74,1.66,5.49,1.4
			c1.1,1.25,6.99,1.84,7.72,0.83c0.2-0.28,0.7-0.51,1.53,1.66c0.83,2.17,10.09,6.57,10.09,6.57l10.79,23.87c0,0,1.28,3.19,2.94,0.26
			c1.66-2.94,2.43,0.51,2.43,0.51l0.45,3.19c0,0,3.13,3,3.7-1.79l-3.45-4.91c0,0,1.09-2.17-1.28-6.19
			c-2.36-4.02,5.55-7.34,5.55-7.34s4.15-8.17,9-8.68c4.85-0.51,6.32,2.62,6.32,2.62l1.6,2.81c0,0,3.06,0.32,2.23,5.49
			c0,0-0.45,1.21,2.62,1.6c3.06,0.38,3.83,1.79,3.83,1.79l1.02,10.28l9.7,14.87c0,0,5.11,7.15,3.45-1.09s-1.98-7.6-1.98-7.6
			s-1.47-2.62-3.13-2.94s-4.09-4.85-4.09-4.85l-0.32-4.15c0,0,0.83-3.38,3.26-0.83s4.85,7.98,4.85,7.98s1.15,1.98,7.02-4.66
			c5.87-6.64-3.57-12.7-3.57-12.7s-5.87-4.28-0.64-8.36c0,0,6.32-0.64,3.64,5.11c0,0,0,3.38,3.13-0.19"/>
	</g>
</g>
</svg>
